<svg width="800" height="600" viewBox="0 0 800 600" xmlns="http://www.w3.org/2000/svg" xmlns:xlink="http://www.w3.org/1999/xlink" data-cache="1714886018704">
<style>
path.line-0 {
  stroke-dasharray: 434 439;
  stroke-dashoffset: 434;
  animation: draw-0 6916.939215556163ms linear forwards infinite;
}
@keyframes draw-0 {
  0% { stroke-dashoffset: 434; }
  12.56% { stroke-dashoffset: 0; }
  97.63% { stroke-dashoffset: 0; }
  98.79% { stroke-dashoffset: 434; }
  100% { stroke-dashoffset: 434; }
}
path.line-1 {
  stroke-dasharray: 200 205;
  stroke-dashoffset: 200;
  animation: draw-1 6916.939215556163ms linear forwards infinite;
}
@keyframes draw-1 {
  0% { stroke-dashoffset: 200; }
  12.557355874255482% { stroke-dashoffset: 200; }
  18.34% { stroke-dashoffset: 0; }
  97.20% { stroke-dashoffset: 0; }
  97.73% { stroke-dashoffset: 200; }
  100% { stroke-dashoffset: 200; }
}
path.line-2 {
  stroke-dasharray: 293 298;
  stroke-dashoffset: 293;
  animation: draw-2 6916.939215556163ms linear forwards infinite;
}
@keyframes draw-2 {
  0% { stroke-dashoffset: 293; }
  18.337786976576353% { stroke-dashoffset: 293; }
  26.81% { stroke-dashoffset: 0; }
  96.57% { stroke-dashoffset: 0; }
  97.36% { stroke-dashoffset: 293; }
  100% { stroke-dashoffset: 293; }
}
path.line-3 {
  stroke-dasharray: 238 243;
  stroke-dashoffset: 238;
  animation: draw-3 6916.939215556163ms linear forwards infinite;
}
@keyframes draw-3 {
  0% { stroke-dashoffset: 238; }
  26.808476685186022% { stroke-dashoffset: 238; }
  33.70% { stroke-dashoffset: 0; }
  96.07% { stroke-dashoffset: 0; }
  96.70% { stroke-dashoffset: 238; }
  100% { stroke-dashoffset: 238; }
}
path.line-4 {
  stroke-dasharray: 469 474;
  stroke-dashoffset: 469;
  animation: draw-4 6916.939215556163ms linear forwards infinite;
}
@keyframes draw-4 {
  0% { stroke-dashoffset: 469; }
  33.69560260056216% { stroke-dashoffset: 469; }
  47.27% { stroke-dashoffset: 0; }
  95.06% { stroke-dashoffset: 0; }
  96.32% { stroke-dashoffset: 469; }
  100% { stroke-dashoffset: 469; }
}
path.line-5 {
  stroke-dasharray: 366 371;
  stroke-dashoffset: 366;
  animation: draw-5 6916.939215556163ms linear forwards infinite;
}
@keyframes draw-5 {
  0% { stroke-dashoffset: 366; }
  47.268839332584015% { stroke-dashoffset: 366; }
  57.84% { stroke-dashoffset: 0; }
  94.28% { stroke-dashoffset: 0; }
  95.26% { stroke-dashoffset: 366; }
  100% { stroke-dashoffset: 366; }
}
path.line-6 {
  stroke-dasharray: 240 245;
  stroke-dashoffset: 240;
  animation: draw-6 6916.939215556163ms linear forwards infinite;
}
@keyframes draw-6 {
  0% { stroke-dashoffset: 240; }
  57.84017105143254% { stroke-dashoffset: 240; }
  64.79% { stroke-dashoffset: 0; }
  93.77% { stroke-dashoffset: 0; }
  94.41% { stroke-dashoffset: 240; }
  100% { stroke-dashoffset: 240; }
}
path.line-7 {
  stroke-dasharray: 78 83;
  stroke-dashoffset: 78;
  animation: draw-7 6916.939215556163ms linear forwards infinite;
}
@keyframes draw-7 {
  0% { stroke-dashoffset: 78; }
  64.79024589299861% { stroke-dashoffset: 78; }
  67.05% { stroke-dashoffset: 0; }
  93.60% { stroke-dashoffset: 0; }
  93.81% { stroke-dashoffset: 78; }
  100% { stroke-dashoffset: 78; }
}
path.line-8 {
  stroke-dasharray: 15 20;
  stroke-dashoffset: 15;
  animation: draw-8 6916.939215556163ms linear forwards infinite;
}
@keyframes draw-8 {
  0% { stroke-dashoffset: 15; }
  67.0540363465637% { stroke-dashoffset: 15; }
  67.49% { stroke-dashoffset: 0; }
  93.57% { stroke-dashoffset: 0; }
  93.61% { stroke-dashoffset: 15; }
  100% { stroke-dashoffset: 15; }
}
path.line-9 {
  stroke-dasharray: 209 214;
  stroke-dashoffset: 209;
  animation: draw-9 6916.939215556163ms linear forwards infinite;
}
@keyframes draw-9 {
  0% { stroke-dashoffset: 209; }
  67.49301786786612% { stroke-dashoffset: 209; }
  73.54% { stroke-dashoffset: 0; }
  93.12% { stroke-dashoffset: 0; }
  93.68% { stroke-dashoffset: 209; }
  100% { stroke-dashoffset: 209; }
}
path.line-10 {
  stroke-dasharray: 94 99;
  stroke-dashoffset: 94;
  animation: draw-10 6916.939215556163ms linear forwards infinite;
}
@keyframes draw-10 {
  0% { stroke-dashoffset: 94; }
  73.54225473986273% { stroke-dashoffset: 94; }
  76.25% { stroke-dashoffset: 0; }
  92.92% { stroke-dashoffset: 0; }
  93.17% { stroke-dashoffset: 94; }
  100% { stroke-dashoffset: 94; }
}
path.line-11 {
  stroke-dasharray: 44 49;
  stroke-dashoffset: 44;
  animation: draw-11 6916.939215556163ms linear forwards infinite;
}
@keyframes draw-11 {
  0% { stroke-dashoffset: 44; }
  76.24923477252624% { stroke-dashoffset: 44; }
  77.53% { stroke-dashoffset: 0; }
  92.83% { stroke-dashoffset: 0; }
  92.95% { stroke-dashoffset: 44; }
  100% { stroke-dashoffset: 44; }
}
path.line-12 {
  stroke-dasharray: 27 32;
  stroke-dashoffset: 27;
  animation: draw-12 6916.939215556163ms linear forwards infinite;
}
@keyframes draw-12 {
  0% { stroke-dashoffset: 27; }
  77.52685838226148% { stroke-dashoffset: 27; }
  78.31% { stroke-dashoffset: 0; }
  92.77% { stroke-dashoffset: 0; }
  92.84% { stroke-dashoffset: 27; }
  100% { stroke-dashoffset: 27; }
}
</style><rect x="0" y="0" width="800" height="600" fill="#fff">

</rect><g mask="url(#brush)">
<path d="M108.925,351.206L108.925,349.706C108.925,348.206,108.925,345.206,109.425,342.373C109.925,339.539,110.925,336.873,111.759,334.206C112.592,331.539,113.259,328.873,114.092,326.539C114.925,324.206,115.925,322.206,117.259,319.873C118.592,317.539,120.259,314.873,121.925,312.873C123.592,310.873,125.259,309.539,126.925,307.706C128.592,305.873,130.259,303.539,131.592,301.206C132.925,298.873,133.925,296.539,135.092,294.039C136.259,291.539,137.592,288.873,138.759,286.539C139.925,284.206,140.925,282.206,142.092,280.039C143.259,277.873,144.592,275.539,145.759,273.373C146.925,271.206,147.925,269.206,149.092,266.873C150.259,264.539,151.592,261.873,152.925,259.206C154.259,256.539,155.592,253.873,156.759,251.206C157.925,248.539,158.925,245.873,159.759,243.373C160.592,240.873,161.259,238.539,161.759,236.206C162.259,233.873,162.592,231.539,162.759,231.706C162.925,231.873,162.925,234.539,162.925,237.039C162.925,239.539,162.925,241.873,163.092,244.373C163.259,246.873,163.592,249.539,163.759,252.206C163.925,254.873,163.925,257.539,164.425,260.706C164.925,263.873,165.925,267.539,166.759,270.539C167.592,273.539,168.259,275.873,169.092,279.206C169.925,282.539,170.925,286.873,171.759,290.206C172.592,293.539,173.259,295.873,173.759,298.206C174.259,300.539,174.592,302.873,175.925,302.206C177.259,301.539,179.592,297.873,181.925,294.706C184.259,291.539,186.592,288.873,188.759,286.206C190.925,283.539,192.925,280.873,194.925,277.873C196.925,274.873,198.925,271.539,200.425,268.873C201.925,266.206,202.925,264.206,204.259,261.706C205.592,259.206,207.259,256.206,208.759,253.373C210.259,250.539,211.592,247.873,212.425,247.706C213.259,247.539,213.592,249.873,213.759,252.373C213.925,254.873,213.925,257.539,213.925,260.206C213.925,262.873,213.925,265.539,213.925,268.706C213.925,271.873,213.925,275.539,213.925,278.706C213.925,281.873,213.925,284.539,213.925,287.039C213.925,289.539,213.925,291.873,213.925,294.373C213.925,296.873,213.925,299.539,213.925,302.206C213.925,304.873,213.925,307.539,213.925,310.206C213.925,312.873,213.925,315.539,213.925,318.206C213.925,320.873,213.925,323.539,213.759,326.206C213.592,328.873,213.259,331.539,213.092,334.039C212.925,336.539,212.925,338.873,212.925,341.373C212.925,343.873,212.925,346.539,212.925,349.206C212.925,351.873,212.925,354.539,212.925,357.039C212.925,359.539,212.925,361.873,213.425,363.039C213.925,364.206,214.925,364.206,215.425,364.206L215.925,364.206" stroke-width="9.904596074066864" stroke-linecap="round" stroke-linejoin="round" stroke="#000" fill="none" class="line-0">

</path><path d="M253.925,309.206L252.759,309.206C251.592,309.206,249.259,309.206,246.925,309.873C244.592,310.539,242.259,311.873,240.425,313.539C238.592,315.206,237.259,317.206,236.592,319.873C235.925,322.539,235.925,325.873,235.925,328.706C235.925,331.539,235.925,333.873,236.592,336.206C237.259,338.539,238.592,340.873,240.425,343.039C242.259,345.206,244.592,347.206,246.925,348.539C249.259,349.873,251.592,350.539,253.925,349.539C256.259,348.539,258.592,345.873,260.259,343.373C261.925,340.873,262.925,338.539,263.759,335.873C264.592,333.206,265.259,330.206,264.925,327.539C264.592,324.873,263.259,322.539,261.592,320.539C259.925,318.539,257.925,316.873,255.925,315.539C253.925,314.206,251.925,313.206,249.592,312.539C247.259,311.873,244.592,311.539,244.425,311.206C244.259,310.873,246.592,310.539,248.925,310.873C251.259,311.206,253.592,312.206,255.425,313.539C257.259,314.873,258.592,316.539,259.925,318.706C261.259,320.873,262.592,323.539,263.759,326.206C264.925,328.873,265.925,331.539,266.925,333.873C267.925,336.206,268.925,338.206,269.592,340.373C270.259,342.539,270.592,344.873,271.592,347.039C272.592,349.206,274.259,351.206,276.259,352.706C278.259,354.206,280.592,355.206,282.092,355.706C283.592,356.206,284.259,356.206,284.592,356.206L284.925,356.206" stroke-width="9.904596074066864" stroke-linecap="round" stroke-linejoin="round" stroke="#000" fill="none" class="line-1">

</path><path d="M291.925,322.206L292.259,321.039C292.592,319.873,293.259,317.539,294.092,315.373C294.925,313.206,295.925,311.206,297.092,309.206C298.259,307.206,299.592,305.206,300.925,303.039C302.259,300.873,303.592,298.539,304.425,296.039C305.259,293.539,305.592,290.873,305.759,288.373C305.925,285.873,305.925,283.539,305.925,280.873C305.925,278.206,305.925,275.206,305.925,272.539C305.925,269.873,305.925,267.539,305.925,267.539C305.925,267.539,305.925,269.873,305.925,272.206C305.925,274.539,305.925,276.873,305.925,279.873C305.925,282.873,305.925,286.539,305.925,290.206C305.925,293.873,305.925,297.539,305.925,300.539C305.925,303.539,305.925,305.873,305.925,308.206C305.925,310.539,305.925,312.873,305.925,315.373C305.925,317.873,305.925,320.539,305.925,323.039C305.925,325.539,305.925,327.873,305.925,330.873C305.925,333.873,305.925,337.539,305.925,340.706C305.925,343.873,305.925,346.539,305.925,349.373C305.925,352.206,305.925,355.206,305.759,357.873C305.592,360.539,305.259,362.873,304.925,362.706C304.592,362.539,304.259,359.873,304.092,356.873C303.925,353.873,303.925,350.539,303.925,347.706C303.925,344.873,303.925,342.539,304.092,340.206C304.259,337.873,304.592,335.539,305.425,333.539C306.259,331.539,307.592,329.873,309.425,328.706C311.259,327.539,313.592,326.873,316.092,326.539C318.592,326.206,321.259,326.206,323.592,326.873C325.925,327.539,327.925,328.873,329.259,330.706C330.592,332.539,331.259,334.873,331.925,337.706C332.592,340.539,333.259,343.873,333.759,346.873C334.259,349.873,334.592,352.539,335.259,354.873C335.925,357.206,336.925,359.206,338.425,361.039C339.925,362.873,341.925,364.539,344.259,365.373C346.592,366.206,349.259,366.206,351.259,365.373C353.259,364.539,354.592,362.873,355.259,361.039C355.925,359.206,355.925,357.206,355.925,356.206L355.925,355.206" stroke-width="9.904596074066864" stroke-linecap="round" stroke-linejoin="round" stroke="#000" fill="none" class="line-2">

</path><path d="M401.925,343.206L401.925,342.039C401.925,340.873,401.925,338.539,401.092,336.206C400.259,333.873,398.592,331.539,396.925,329.373C395.259,327.206,393.592,325.206,391.592,324.039C389.592,322.873,387.259,322.539,385.092,323.206C382.925,323.873,380.925,325.539,379.259,327.206C377.592,328.873,376.259,330.539,375.092,333.039C373.925,335.539,372.925,338.873,372.425,341.706C371.925,344.539,371.925,346.873,372.425,349.039C372.925,351.206,373.925,353.206,375.259,355.039C376.592,356.873,378.259,358.539,380.092,360.206C381.925,361.873,383.925,363.539,385.925,365.206C387.925,366.873,389.925,368.539,391.925,369.873C393.925,371.206,395.925,372.206,397.925,373.206C399.925,374.206,401.925,375.206,403.925,375.039C405.925,374.873,407.925,373.539,409.259,371.706C410.592,369.873,411.259,367.539,411.592,365.206C411.925,362.873,411.925,360.539,411.425,358.206C410.925,355.873,409.925,353.539,408.425,351.539C406.925,349.539,404.925,347.873,403.259,346.206C401.592,344.539,400.259,342.873,399.592,340.873C398.925,338.873,398.925,336.539,400.092,335.706C401.259,334.873,403.592,335.539,405.259,336.873C406.925,338.206,407.925,340.206,409.092,342.039C410.259,343.873,411.592,345.539,412.425,347.539C413.259,349.539,413.592,351.873,414.259,354.039C414.925,356.206,415.925,358.206,416.925,360.539C417.925,362.873,418.925,365.539,419.925,367.873C420.925,370.206,421.925,372.206,423.925,373.539C425.925,374.873,428.925,375.539,431.259,375.206C433.592,374.873,435.259,373.539,436.259,372.706C437.259,371.873,437.592,371.539,437.759,371.373L437.925,371.206" stroke-width="9.904596074066864" stroke-linecap="round" stroke-linejoin="round" stroke="#000" fill="none" class="line-3">

</path><path d="M445.925,340.206L446.092,339.039C446.259,337.873,446.592,335.539,447.425,333.039C448.259,330.539,449.592,327.873,450.759,325.206C451.925,322.539,452.925,319.873,453.925,317.039C454.925,314.206,455.925,311.206,456.759,308.539C457.592,305.873,458.259,303.539,459.092,301.206C459.925,298.873,460.925,296.539,461.592,294.206C462.259,291.873,462.592,289.539,462.759,287.206C462.925,284.873,462.925,282.539,462.925,280.039C462.925,277.539,462.925,274.873,462.425,274.706C461.925,274.539,460.925,276.873,459.925,279.373C458.925,281.873,457.925,284.539,457.425,287.373C456.925,290.206,456.925,293.206,456.759,296.039C456.592,298.873,456.259,301.539,456.092,304.206C455.925,306.873,455.925,309.539,455.759,312.373C455.592,315.206,455.259,318.206,455.092,320.873C454.925,323.539,454.925,325.873,454.925,328.539C454.925,331.206,454.925,334.206,454.925,337.039C454.925,339.873,454.925,342.539,454.925,345.206C454.925,347.873,454.925,350.539,454.925,353.039C454.925,355.539,454.925,357.873,454.925,360.539C454.925,363.206,454.925,366.206,454.925,368.873C454.925,371.539,454.925,373.873,454.925,376.206C454.925,378.539,454.925,380.873,454.925,383.373C454.925,385.873,454.925,388.539,454.925,388.373C454.925,388.206,454.925,385.206,454.925,382.206C454.925,379.206,454.925,376.206,454.925,373.373C454.925,370.539,454.925,367.873,454.925,365.373C454.925,362.873,454.925,360.539,454.925,358.206C454.925,355.873,454.925,353.539,455.259,351.039C455.592,348.539,456.259,345.873,456.925,343.373C457.592,340.873,458.259,338.539,459.425,336.373C460.592,334.206,462.259,332.206,463.759,330.039C465.259,327.873,466.592,325.539,468.259,323.539C469.925,321.539,471.925,319.873,474.092,318.873C476.259,317.873,478.592,317.539,481.092,318.373C483.592,319.206,486.259,321.206,488.092,323.206C489.925,325.206,490.925,327.206,491.425,329.873C491.925,332.539,491.925,335.873,491.759,338.873C491.592,341.873,491.259,344.539,490.092,346.873C488.925,349.206,486.925,351.206,485.092,353.039C483.259,354.873,481.592,356.539,479.759,357.873C477.925,359.206,475.925,360.206,473.759,360.873C471.592,361.539,469.259,361.873,466.925,361.873C464.592,361.873,462.259,361.539,462.425,361.539C462.592,361.539,465.259,361.873,467.759,362.539C470.259,363.206,472.592,364.206,474.925,365.206C477.259,366.206,479.592,367.206,481.925,368.373C484.259,369.539,486.592,370.873,488.759,372.373C490.925,373.873,492.925,375.539,495.092,377.206C497.259,378.873,499.592,380.539,501.759,381.873C503.925,383.206,505.925,384.206,508.092,384.873C510.259,385.539,512.592,385.873,514.925,386.039C517.259,386.206,519.592,386.206,521.259,385.206C522.925,384.206,523.925,382.206,524.925,379.873C525.925,377.539,526.925,374.873,527.759,372.373C528.592,369.873,529.259,367.539,530.092,365.373C530.925,363.206,531.925,361.206,532.592,360.039C533.259,358.873,533.592,358.539,533.759,358.373L533.925,358.206" stroke-width="9.904596074066864" stroke-linecap="round" stroke-linejoin="round" stroke="#000" fill="none" class="line-4">

</path><path d="M271.925,526.206L272.925,525.373C273.925,524.539,275.925,522.873,278.425,521.039C280.925,519.206,283.925,517.206,286.259,515.539C288.592,513.873,290.259,512.539,292.259,510.706C294.259,508.873,296.592,506.539,299.092,504.373C301.592,502.206,304.259,500.206,306.759,498.039C309.259,495.873,311.592,493.539,313.425,491.539C315.259,489.539,316.592,487.873,318.425,485.539C320.259,483.206,322.592,480.206,324.259,477.706C325.925,475.206,326.925,473.206,327.925,471.039C328.925,468.873,329.925,466.539,330.925,464.373C331.925,462.206,332.925,460.206,333.592,458.039C334.259,455.873,334.592,453.539,335.092,451.039C335.592,448.539,336.259,445.873,336.925,443.373C337.592,440.873,338.259,438.539,338.592,436.206C338.925,433.873,338.925,431.539,337.759,429.706C336.592,427.873,334.259,426.539,331.925,426.373C329.592,426.206,327.259,427.206,325.592,429.206C323.925,431.206,322.925,434.206,322.425,437.706C321.925,441.206,321.925,445.206,321.925,448.539C321.925,451.873,321.925,454.539,322.092,457.039C322.259,459.539,322.592,461.873,323.425,464.373C324.259,466.873,325.592,469.539,327.092,472.706C328.592,475.873,330.259,479.539,331.592,482.539C332.925,485.539,333.925,487.873,334.759,490.373C335.592,492.873,336.259,495.539,336.759,498.539C337.259,501.539,337.592,504.873,337.759,508.039C337.925,511.206,337.925,514.206,337.092,516.873C336.259,519.539,334.592,521.873,332.759,523.873C330.925,525.873,328.925,527.539,326.592,529.206C324.259,530.873,321.592,532.539,318.925,533.706C316.259,534.873,313.592,535.539,310.759,535.039C307.925,534.539,304.925,532.873,302.925,530.539C300.925,528.206,299.925,525.206,299.425,522.539C298.925,519.873,298.925,517.539,299.592,515.539C300.259,513.539,301.592,511.873,303.425,511.039C305.259,510.206,307.592,510.206,310.259,510.206C312.925,510.206,315.925,510.206,318.759,510.706C321.592,511.206,324.259,512.206,326.925,513.039C329.592,513.873,332.259,514.539,334.759,515.373C337.259,516.206,339.592,517.206,342.759,518.373C345.925,519.539,349.925,520.873,352.759,521.539C355.592,522.206,357.259,522.206,358.092,522.206L358.925,522.206" stroke-width="9.904596074066864" stroke-linecap="round" stroke-linejoin="round" stroke="#000" fill="none" class="line-5">

</path><path d="M397.925,490.206L396.925,489.373C395.925,488.539,393.925,486.873,391.759,485.539C389.592,484.206,387.259,483.206,384.925,482.206C382.592,481.206,380.259,480.206,377.925,480.373C375.592,480.539,373.259,481.873,371.592,484.206C369.925,486.539,368.925,489.873,367.925,493.206C366.925,496.539,365.925,499.873,365.259,502.706C364.592,505.539,364.259,507.873,364.092,510.706C363.925,513.539,363.925,516.873,363.925,519.706C363.925,522.539,363.925,524.873,364.759,527.039C365.592,529.206,367.259,531.206,369.092,532.873C370.925,534.539,372.925,535.873,375.092,537.373C377.259,538.873,379.592,540.539,381.592,540.539C383.592,540.539,385.259,538.873,386.925,536.873C388.592,534.873,390.259,532.539,391.592,530.373C392.925,528.206,393.925,526.206,394.925,523.873C395.925,521.539,396.925,518.873,397.425,516.373C397.925,513.873,397.925,511.539,398.092,509.039C398.259,506.539,398.592,503.873,398.759,501.373C398.925,498.873,398.925,496.539,398.925,494.039C398.925,491.539,398.925,488.873,398.925,488.706C398.925,488.539,398.925,490.873,398.925,493.373C398.925,495.873,398.925,498.539,398.925,501.039C398.925,503.539,398.925,505.873,399.425,508.206C399.925,510.539,400.925,512.873,402.092,515.039C403.259,517.206,404.592,519.206,405.925,521.206C407.259,523.206,408.592,525.206,409.925,527.206C411.259,529.206,412.592,531.206,413.759,533.206C414.925,535.206,415.925,537.206,417.759,538.539C419.592,539.873,422.259,540.539,423.759,540.706C425.259,540.873,425.592,540.539,425.759,540.373L425.925,540.206" stroke-width="9.904596074066864" stroke-linecap="round" stroke-linejoin="round" stroke="#000" fill="none" class="line-6">

</path><path d="M443.925,493.206L443.759,494.539C443.592,495.873,443.259,498.539,443.092,501.206C442.925,503.873,442.925,506.539,442.925,509.039C442.925,511.539,442.925,513.873,442.925,516.206C442.925,518.539,442.925,520.873,442.925,523.206C442.925,525.539,442.925,527.873,443.425,530.039C443.925,532.206,444.925,534.206,446.259,535.873C447.592,537.539,449.259,538.873,451.259,540.039C453.259,541.206,455.592,542.206,458.092,542.706C460.592,543.206,463.259,543.206,465.425,543.206C467.592,543.206,469.259,543.206,470.092,543.206L470.925,543.206" stroke-width="9.904596074066864" stroke-linecap="round" stroke-linejoin="round" stroke="#000" fill="none" class="line-7">

</path><path d="M451.925,469.206L450.925,468.539C449.925,467.873,447.925,466.539,446.259,466.206C444.592,465.873,443.259,466.539,442.592,466.873L441.925,467.206" stroke-width="9.904596074066864" stroke-linecap="round" stroke-linejoin="round" stroke="#000" fill="none" class="line-8">

</path><path d="M471.925,496.206L473.425,496.039C474.925,495.873,477.925,495.539,480.425,496.039C482.925,496.539,484.925,497.873,486.592,500.039C488.259,502.206,489.592,505.206,490.592,508.039C491.592,510.873,492.259,513.539,492.592,516.706C492.925,519.873,492.925,523.539,492.925,526.706C492.925,529.873,492.925,532.539,492.759,535.206C492.592,537.873,492.259,540.539,491.759,540.039C491.259,539.539,490.592,535.873,490.259,532.873C489.925,529.873,489.925,527.539,490.592,524.539C491.259,521.539,492.592,517.873,493.925,514.706C495.259,511.539,496.592,508.873,497.925,506.706C499.259,504.539,500.592,502.873,502.092,501.373C503.592,499.873,505.259,498.539,507.259,497.706C509.259,496.873,511.592,496.539,513.592,497.039C515.592,497.539,517.259,498.873,518.425,500.873C519.592,502.873,520.259,505.539,520.592,508.039C520.925,510.539,520.925,512.873,520.925,515.206C520.925,517.539,520.925,519.873,520.759,522.373C520.592,524.873,520.259,527.539,520.092,530.039C519.925,532.539,519.925,534.873,520.092,537.206C520.259,539.539,520.592,541.873,521.759,543.539C522.925,545.206,524.925,546.206,527.425,547.039C529.925,547.873,532.925,548.539,535.425,549.039C537.925,549.539,539.925,549.873,540.925,550.039L541.925,550.206" stroke-width="9.904596074066864" stroke-linecap="round" stroke-linejoin="round" stroke="#000" fill="none" class="line-9">

</path><path d="M563.925,476.206L563.925,477.539C563.925,478.873,563.925,481.539,563.925,484.039C563.925,486.539,563.925,488.873,563.759,491.706C563.592,494.539,563.259,497.873,562.925,501.206C562.592,504.539,562.259,507.873,562.092,510.873C561.925,513.873,561.925,516.539,561.759,519.206C561.592,521.873,561.259,524.539,561.092,527.039C560.925,529.539,560.925,531.873,560.925,534.373C560.925,536.873,560.925,539.539,560.925,542.039C560.925,544.539,560.925,546.873,562.092,548.373C563.259,549.873,565.592,550.539,568.092,550.873C570.592,551.206,573.259,551.206,575.092,551.206C576.925,551.206,577.925,551.206,578.425,551.206L578.925,551.206" stroke-width="9.904596074066864" stroke-linecap="round" stroke-linejoin="round" stroke="#000" fill="none" class="line-10">

</path><path d="M566.925,440.206L566.592,441.373C566.259,442.539,565.592,444.873,566.259,447.206C566.925,449.539,568.925,451.873,571.425,453.539C573.925,455.206,576.925,456.206,578.925,455.706C580.925,455.206,581.925,453.206,581.425,452.039C580.925,450.873,578.925,450.539,577.925,450.373L576.925,450.206" stroke-width="9.904596074066864" stroke-linecap="round" stroke-linejoin="round" stroke="#000" fill="none" class="line-11">

</path><path d="M450.925,463.206L451.592,462.206C452.259,461.206,453.592,459.206,455.425,457.873C457.259,456.539,459.592,455.873,461.925,455.539C464.259,455.206,466.592,455.206,468.425,455.206C470.259,455.206,471.592,455.206,472.259,455.206L472.925,455.206" stroke-width="9.904596074066864" stroke-linecap="round" stroke-linejoin="round" stroke="#000" fill="none" class="line-12">

</path>
</g><mask id="brush">
<rect x="0" y="0" width="100%" height="100%" fill="black">

</rect><path d="M108.92,351.21L107.57,345.21L107.13,342.21L106.84,340.11L109.46,332.98L110.88,328.08L110.34,326.03L113.43,318.46L116.37,313.08L118.31,309.72L124.15,304.88L126.22,300.95L128.67,298.12L131.07,292.55L134.30,287.06L134.76,284.81L138.12,278.30L140.00,273.49L142.71,270.09L145.05,265.27L149.56,257.52L151.60,254.01L153.14,249.69L153.87,246.86L154.71,243.79L155.81,241.15L156.63,239.31L156.11,240.13L157.21,235.72L161.93,231.17L157.81,236.21L157.70,234.21L157.63,233.21L157.53,231.21L157.43,229.21L157.36,226.21L157.27,224.21L157.21,223.21L157.38,221.84L157.87,220.55L158.65,219.42L159.68,218.50L160.90,217.86L162.24,217.54L163.61,217.54L164.95,217.86L166.17,218.50L167.20,219.42L167.98,220.55L168.47,221.84L168.64,223.21L168.64,224.21L168.72,226.21L168.70,230.21L168.58,235.21L168.66,237.21L168.22,244.20L168.60,251.63L168.74,256.21L168.81,260.08L170.47,263.53L170.87,266.19L171.76,270.24L172.78,273.99L173.78,276.59L174.90,282.21L176.28,290.09L177.10,291.17L178.51,297.28L179.51,299.76L179.83,302.21L179.95,305.21L180.06,308.21L180.14,309.21L179.98,310.45L179.54,311.63L178.83,312.66L177.89,313.49L176.77,314.08L175.55,314.38L174.30,314.38L173.08,314.08L171.97,313.49L171.03,312.66L170.31,311.63L169.87,310.45L169.71,309.21L174.93,303.00L170.64,308.21L170.63,306.95L172.03,302.82L172.72,299.01L177.91,291.35L182.02,288.11L185.01,283.60L191.90,275.95L193.38,272.43L197.73,266.08L199.33,262.41L200.17,260.33L203.31,255.04L205.03,251.26L205.89,249.19L208.03,245.66L211.49,241.45L209.05,245.21L208.96,244.21L208.88,243.21L209.03,242.00L209.46,240.86L210.15,239.86L211.06,239.06L212.14,238.49L213.32,238.20L214.53,238.20L215.71,238.49L216.79,239.06L217.70,239.86L218.39,240.86L218.82,242.00L218.97,243.21L218.97,244.21L219.08,246.21L219.19,248.21L219.23,252.21L219.32,255.21L219.25,260.21L218.68,268.21L218.78,272.21L218.51,279.21L218.44,285.21L218.58,287.21L218.35,294.21L218.31,300.21L218.46,302.21L218.52,307.21L218.66,310.21L218.79,312.21L218.91,315.21L219.00,318.21L219.09,320.21L219.16,322.21L219.10,326.21L219.13,328.21L219.14,330.24L217.79,335.39L217.78,338.21L217.58,341.21L217.44,343.21L216.53,349.21L216.13,352.21L215.85,354.21L215.32,357.21L214.93,359.21L214.50,361.21L214.27,362.21L214.03,363.21L212.93,363.36L215.93,364.20L215.93,364.21L215.93,364.22L212.93,365.06L211.82,363.21L211.58,362.21L211.35,361.21L210.92,359.21L210.54,357.21L210.01,354.21L209.72,352.21L209.32,349.21L208.41,343.21L208.27,341.21L208.07,338.21L207.91,335.21L208.06,333.03L208.71,330.17L208.72,328.21L208.75,326.21L208.69,322.21L208.77,320.21L208.85,318.21L208.95,315.21L209.06,312.21L209.19,310.21L209.34,307.21L209.39,302.21L209.54,300.21L209.50,294.21L209.27,287.21L209.41,285.21L209.35,279.21L209.07,272.21L209.17,268.21L208.60,260.21L208.53,255.21L208.62,252.21L208.66,248.21L208.77,246.21L208.88,244.21L208.88,243.21L209.03,242.00L209.46,240.86L210.15,239.86L211.06,239.06L212.14,238.49L213.32,238.20L214.53,238.20L215.71,238.49L216.79,239.06L217.70,239.86L218.39,240.86L218.82,242.00L218.97,243.21L218.89,244.21L218.80,245.21L214.36,248.96L215.82,250.75L213.96,253.23L212.82,255.15L210.54,259.37L207.68,264.08L206.52,266.00L204.12,270.33L200.47,275.98L197.95,280.46L192.84,288.81L187.84,296.30L185.94,297.06L183.13,301.40L181.22,307.46L181.21,308.21L174.93,313.42L180.14,309.21L179.98,310.45L179.54,311.63L178.83,312.66L177.89,313.49L176.77,314.08L175.55,314.38L174.30,314.38L173.08,314.08L171.97,313.49L171.03,312.66L170.31,311.63L169.87,310.45L169.71,309.21L169.79,308.21L169.90,305.21L170.34,302.65L169.34,299.13L168.75,295.24L167.57,292.32L164.95,284.20L164.07,279.82L163.07,276.42L162.09,272.17L160.98,266.22L161.38,266.88L159.04,260.34L159.11,256.21L159.25,252.79L157.63,244.21L157.19,237.21L157.27,235.21L157.15,230.21L157.14,226.21L157.21,224.21L157.21,223.21L157.38,221.84L157.87,220.55L158.65,219.42L159.68,218.50L160.90,217.86L162.24,217.54L163.61,217.54L164.95,217.86L166.17,218.50L167.20,219.42L167.98,220.55L168.47,221.84L168.64,223.21L168.58,224.21L168.49,226.21L168.42,229.21L168.32,231.21L168.22,233.21L168.15,234.21L168.04,236.21L161.93,241.24L166.64,238.69L165.74,240.28L165.22,243.10L164.04,245.26L163.14,246.62L161.98,249.56L160.71,252.72L158.25,258.40L156.29,260.89L152.80,269.14L149.14,276.32L147.85,276.93L145.73,282.11L143.09,287.60L141.55,291.35L138.78,295.86L135.18,304.30L133.63,305.46L129.70,311.53L125.54,314.69L123.48,317.34L120.42,321.96L117.51,326.38L116.97,330.33L114.39,335.44L111.01,340.31L110.72,342.21L110.28,345.21L108.94,351.21Z" fill="white">

</path><path d="M253.93,309.22L248.93,310.78L246.93,311.09L243.43,311.44L243.82,312.10L243.01,313.22L242.79,314.70L241.40,316.61L241.30,317.90L239.52,321.13L240.25,320.21L240.59,324.21L240.84,329.21L241.06,332.21L241.25,335.21L241.28,335.95L241.88,335.73L244.53,340.45L246.16,342.96L246.40,342.28L250.02,344.60L251.84,346.17L251.93,345.41L253.93,345.34L254.65,345.35L253.71,345.39L252.52,345.50L255.98,340.24L259.07,335.77L258.32,336.12L260.86,328.61L260.51,327.21L260.45,326.21L260.42,324.47L262.66,326.46L263.93,327.92L260.07,326.22L256.75,322.90L255.76,322.38L252.47,319.81L249.22,316.95L248.74,317.44L246.03,315.80L247.93,317.06L246.93,317.11L244.93,317.18L243.93,317.23L235.84,311.21L241.93,304.07L242.93,304.02L246.93,304.08L249.22,304.10L253.42,305.57L252.22,305.01L256.75,306.56L260.70,310.67L260.49,309.40L263.11,311.77L266.01,316.18L266.79,318.94L266.43,317.70L267.60,318.96L269.88,324.33L270.12,326.91L271.38,328.49L272.49,332.34L273.05,333.65L273.92,337.27L274.57,341.15L275.59,345.21L275.47,346.21L274.92,345.31L276.27,348.47L277.96,351.17L278.73,352.40L279.48,353.65L279.84,354.75L284.93,356.20L284.93,356.21L284.93,356.22L279.93,357.77L278.01,357.66L276.37,356.76L275.12,356.01L273.89,355.24L271.45,353.69L269.59,351.94L268.93,351.11L266.90,348.12L266.39,346.21L266.26,345.21L267.02,345.67L265.73,342.85L263.93,341.14L262.80,338.76L261.36,336.07L260.47,333.93L259.39,331.98L257.97,328.09L258.25,327.45L257.42,326.71L255.06,323.48L253.84,320.23L254.74,318.64L255.36,321.02L251.49,317.36L251.15,315.75L251.10,317.85L251.63,317.41L248.63,316.31L246.93,316.33L242.93,316.39L241.93,316.34L248.01,311.21L243.93,305.18L244.93,305.23L246.93,305.30L247.93,305.35L251.82,306.61L251.11,306.97L254.63,307.47L259.38,310.60L264.09,314.03L267.10,317.51L265.78,318.20L263.93,316.49L267.19,317.95L271.43,323.94L271.40,326.21L271.34,327.21L270.99,331.80L269.53,336.30L268.78,340.64L265.87,346.17L263.33,350.91L260.14,355.02L255.21,357.06L253.93,357.07L251.93,357.00L247.64,356.38L243.83,353.82L241.45,352.14L237.69,349.46L235.33,345.97L231.97,340.69L230.57,336.46L230.60,335.21L230.79,332.21L231.01,329.21L231.26,324.21L231.60,320.21L232.33,317.28L234.55,314.52L237.06,311.72L238.85,309.19L240.04,308.32L242.42,306.97L246.93,307.32L248.93,307.63L253.93,309.20Z" fill="white">

</path><path d="M291.92,322.21L290.48,318.21L290.45,316.87L291.62,314.90L292.40,313.82L292.57,311.29L293.93,309.28L294.16,307.77L296.14,305.45L295.35,305.86L297.53,300.92L299.42,298.99L298.60,297.23L300.96,293.70L299.72,294.21L299.54,292.17L300.55,286.90L300.26,286.21L300.32,281.21L300.31,277.21L300.23,275.21L300.17,272.21L300.29,267.21L300.23,266.21L300.17,265.21L300.33,263.83L300.83,262.53L301.62,261.39L302.65,260.47L303.88,259.82L305.23,259.49L306.62,259.49L307.97,259.82L309.20,260.47L310.24,261.39L311.02,262.53L311.52,263.83L311.68,265.21L311.70,267.21L311.58,272.21L311.48,277.21L311.57,279.21L311.32,285.21L311.26,290.21L311.36,292.21L311.38,296.21L311.31,301.21L311.40,303.21L311.32,308.21L311.26,313.21L311.36,315.21L311.38,319.21L311.40,323.21L311.19,329.21L311.26,330.21L311.29,334.21L311.39,336.21L311.31,341.21L311.25,346.21L311.34,349.21L311.13,355.21L311.23,358.21L311.33,360.25L310.19,365.48L304.93,372.79L298.28,367.21L298.22,364.21L298.33,359.21L298.25,357.21L298.35,352.21L298.44,347.21L298.37,344.21L298.36,340.21L298.29,337.21L298.25,336.11L299.48,331.39L300.58,328.14L302.86,325.01L305.75,323.44L307.53,321.70L310.93,320.17L311.93,320.12L313.93,320.06L315.93,320.01L316.93,319.96L318.93,319.91L320.93,319.87L323.93,319.87L324.93,319.82L328.26,320.33L333.05,323.97L333.87,326.86L333.55,324.58L334.83,325.99L337.19,332.61L337.80,333.61L338.45,337.19L338.92,342.20L339.70,345.81L339.82,348.92L340.84,353.21L340.74,354.93L342.01,356.66L342.89,358.72L343.69,360.73L342.17,360.18L346.14,361.95L347.25,363.52L346.93,362.85L347.93,362.99L349.74,363.37L350.38,363.12L352.55,362.57L354.07,362.04L354.10,361.21L354.37,360.21L354.96,358.21L355.92,355.21L355.93,355.21L355.94,355.21L356.89,358.21L357.48,360.21L357.75,361.21L358.01,362.21L357.78,364.37L356.81,366.09L355.30,367.84L353.47,369.29L350.11,371.04L347.93,371.42L346.93,371.56L342.60,370.89L341.69,370.23L338.34,369.30L336.19,367.94L334.16,365.69L332.96,363.69L331.84,361.75L330.74,359.80L329.11,355.48L329.01,353.21L329.54,353.58L328.03,349.49L328.15,348.61L326.93,344.21L325.40,337.22L326.05,338.80L324.66,335.81L325.02,334.43L324.30,333.83L321.98,329.55L322.80,330.44L325.60,332.08L324.93,332.59L323.93,332.55L320.93,332.54L318.93,332.50L316.93,332.45L315.93,332.41L313.93,332.35L311.93,332.30L310.93,332.25L312.32,330.71L312.11,332.98L310.99,333.40L311.27,332.28L310.38,335.02L309.61,336.30L309.56,337.21L309.49,340.21L309.48,344.21L309.41,347.21L309.50,352.21L309.60,357.21L309.52,359.21L309.63,364.21L309.57,367.21L304.93,361.63L299.44,365.21L299.66,362.93L300.53,360.17L300.62,358.21L300.72,355.21L300.51,349.21L300.60,346.21L300.54,341.21L300.46,336.21L300.56,334.21L300.59,330.21L300.66,329.21L300.45,323.21L300.47,319.21L300.50,315.21L300.59,313.21L300.53,308.21L300.45,303.21L300.55,301.21L300.47,296.21L300.49,292.21L300.59,290.21L300.53,285.21L300.28,279.21L300.37,277.21L300.27,272.21L300.15,267.21L300.17,265.21L300.33,263.83L300.83,262.53L301.61,261.39L302.65,260.47L303.88,259.82L305.23,259.49L306.62,259.49L307.97,259.82L309.20,260.47L310.24,261.39L311.02,262.53L311.52,263.83L311.68,265.21L311.62,266.21L311.56,267.21L311.68,272.21L311.62,275.21L311.54,277.21L311.54,281.21L311.59,286.21L311.30,289.51L310.31,292.25L310.13,294.21L308.89,298.71L307.25,299.19L306.43,303.42L304.32,305.49L302.50,306.55L301.72,308.97L299.69,310.64L297.92,313.14L297.28,313.12L295.45,316.59L294.23,317.51L293.40,317.54L293.37,318.21L291.94,322.21Z" fill="white">

</path><path d="M401.92,343.21L400.35,338.21L400.19,336.60L399.40,336.69L397.70,334.32L396.42,332.51L394.64,331.50L393.47,330.64L390.70,327.38L389.81,326.57L390.02,327.21L387.64,325.83L388.93,326.92L386.93,327.14L385.93,327.27L387.63,327.03L384.40,329.15L382.98,329.79L384.21,329.54L382.69,332.21L383.48,331.46L381.19,335.61L379.60,334.69L380.64,334.50L378.44,338.58L379.30,338.25L378.03,343.69L378.26,346.21L378.27,349.21L377.49,346.68L380.41,351.26L380.79,353.88L382.38,353.75L384.31,355.67L390.21,360.92L395.36,366.09L397.42,368.14L399.25,367.90L402.90,369.09L405.82,371.18L404.93,370.45L405.93,370.39L403.73,371.01L404.63,370.04L407.06,366.14L405.74,368.21L405.69,366.21L405.65,365.21L405.60,364.21L405.56,362.21L405.52,361.21L405.48,359.21L405.44,358.21L405.40,357.21L405.93,356.56L404.73,356.48L403.90,353.57L405.61,356.46L406.55,357.29L400.66,352.53L405.93,354.88L398.21,348.21L400.24,350.54L399.81,352.18L397.06,349.91L398.21,348.32L392.11,343.21L392.09,342.21L392.06,341.21L392.03,340.21L392.02,338.21L392.01,336.21L391.98,335.21L391.96,334.21L391.93,333.21L398.93,325.19L399.93,325.17L403.38,325.77L407.92,328.21L409.89,330.24L410.90,331.23L412.10,332.51L414.55,337.99L411.72,336.95L411.38,335.80L414.44,337.64L418.97,343.21L418.89,344.87L419.87,347.87L420.79,353.21L420.20,352.79L419.83,350.46L422.03,354.51L422.57,357.89L422.93,359.85L423.07,358.96L417.93,357.86L425.21,364.21L424.96,365.92L426.00,367.97L420.93,366.87L427.14,372.21L426.37,370.77L426.24,371.53L424.93,370.74L426.13,370.97L429.46,372.74L431.93,373.33L432.93,373.57L433.93,373.83L432.82,376.21L433.42,374.13L437.92,371.20L437.93,371.21L437.93,371.21L436.43,374.28L437.03,376.21L433.93,378.58L432.93,378.84L431.93,379.08L428.93,379.82L426.40,379.67L425.72,379.45L424.93,379.67L421.61,378.88L419.48,377.65L417.28,374.26L416.71,372.21L420.93,377.55L415.85,372.45L414.68,370.83L412.89,366.49L412.64,364.21L417.93,370.55L412.78,365.45L410.95,362.85L409.28,358.52L410.03,359.95L407.65,355.63L407.60,353.00L405.98,348.54L406.57,350.01L404.97,345.54L404.88,343.21L407.41,348.78L408.47,348.61L406.13,347.46L401.30,342.42L401.76,341.91L400.95,341.18L399.96,340.17L397.93,338.20L400.47,338.64L399.93,339.24L398.93,339.22L405.92,333.21L405.89,334.21L405.87,335.21L405.84,336.21L405.83,338.21L405.82,340.21L405.79,341.21L405.77,342.21L405.74,343.21L403.64,338.09L406.79,340.50L406.04,340.23L409.61,343.87L411.64,348.21L405.93,341.53L411.19,345.88L409.30,345.12L412.24,345.95L415.95,350.84L415.12,349.93L417.92,353.85L418.45,357.21L418.41,358.21L418.37,359.21L418.33,361.21L418.29,362.21L418.25,364.21L418.21,365.21L418.16,366.21L418.11,368.21L416.79,372.27L415.51,372.47L415.41,374.63L413.22,378.37L412.12,379.40L408.14,381.57L405.93,382.02L404.93,381.96L401.65,381.37L398.03,379.23L398.95,379.32L396.60,378.51L390.43,376.27L388.49,374.33L381.64,369.49L379.00,366.83L375.54,364.74L373.47,362.67L369.06,356.54L369.44,357.15L368.37,355.73L366.09,351.53L365.59,349.21L365.59,346.21L365.59,343.21L365.82,340.73L366.55,338.16L367.18,333.67L369.41,329.83L369.21,331.91L370.25,329.72L372.66,326.80L372.37,328.95L373.16,326.20L373.52,326.98L373.64,324.87L376.87,320.62L379.45,319.26L380.22,319.38L383.85,317.47L385.93,317.14L386.93,317.27L388.93,317.50L392.21,318.58L391.83,319.20L394.04,319.85L397.16,323.04L398.38,325.77L399.21,326.92L401.43,329.90L402.15,332.10L402.45,333.73L403.66,335.81L403.51,338.21L401.94,343.21Z" fill="white">

</path><path d="M445.92,340.21L444.46,336.21L444.31,335.13L445.14,332.32L445.65,329.33L446.99,327.34L448.02,323.75L449.58,319.56L449.92,316.18L451.90,311.24L452.29,307.27L453.22,303.64L453.98,299.94L456.30,294.90L456.92,292.63L457.75,287.57L457.32,284.21L457.32,280.21L457.25,279.21L457.18,277.21L457.10,275.21L457.04,274.21L456.98,272.21L456.92,271.21L456.87,270.21L457.05,268.76L457.57,267.39L458.39,266.19L459.49,265.22L460.78,264.55L462.20,264.20L463.66,264.20L465.07,264.55L466.36,265.22L467.46,266.19L468.29,267.39L468.80,268.76L468.98,270.21L466.73,274.24L467.86,272.78L465.17,278.02L465.45,280.46L463.30,284.44L462.36,286.61L462.96,287.21L463.02,289.21L463.04,292.21L462.99,296.21L463.03,297.25L461.80,302.63L462.08,304.21L462.10,307.21L462.12,310.21L462.17,312.21L462.10,316.23L460.80,322.36L460.66,328.21L460.71,331.21L460.78,333.21L460.76,337.21L460.74,341.21L460.81,343.21L460.88,345.21L460.91,348.21L460.98,350.21L461.00,353.21L460.96,357.21L461.01,358.21L461.06,360.21L461.01,364.21L461.06,365.21L461.00,369.21L461.03,372.21L461.08,373.21L461.10,376.21L461.15,378.21L461.19,379.21L461.24,381.21L461.28,382.21L461.32,383.21L461.36,384.21L461.40,386.21L461.39,389.21L461.43,391.21L461.24,392.76L460.68,394.23L459.79,395.52L458.62,396.56L457.23,397.29L455.71,397.66L454.14,397.66L452.62,397.29L451.23,396.56L450.06,395.52L449.17,394.23L448.61,392.76L448.42,391.21L448.42,390.21L448.52,386.21L448.60,382.21L448.80,377.21L448.85,373.21L448.79,371.21L448.77,368.21L448.75,365.21L448.70,363.21L448.65,361.21L448.61,360.21L448.57,359.21L448.53,358.21L448.49,356.21L448.45,354.21L448.46,351.18L449.81,344.98L451.01,341.22L452.29,338.45L454.22,333.37L456.31,332.75L455.27,331.92L459.55,325.97L460.38,323.43L463.10,319.50L467.06,316.70L467.45,315.73L470.76,313.18L474.82,311.84L476.01,311.15L479.93,310.80L480.93,310.76L481.93,310.72L482.93,310.68L491.48,317.21L490.95,316.84L490.62,314.52L494.03,319.36L494.64,319.92L497.01,325.17L497.77,326.62L498.42,330.21L498.20,335.21L498.13,339.21L498.18,341.21L498.22,343.25L496.91,348.83L493.99,353.73L488.72,357.79L487.22,360.73L481.82,363.85L480.70,364.53L478.95,366.01L474.21,367.25L470.93,368.41L469.93,368.46L468.93,368.50L466.93,368.55L465.93,368.59L463.93,368.63L461.62,368.60L457.33,367.08L458.93,367.74L456.57,367.21L451.69,363.51L456.93,352.57L458.93,352.54L459.97,352.52L465.55,353.85L468.87,355.31L470.87,356.29L473.01,356.97L475.88,358.30L477.88,359.28L480.02,359.96L484.80,362.45L486.90,363.49L490.23,366.47L491.23,366.25L495.48,369.64L498.67,372.22L500.79,373.87L502.24,374.19L506.79,378.48L506.43,377.54L510.40,379.73L507.93,378.82L511.03,378.90L515.79,380.29L514.93,379.98L515.93,379.98L517.93,380.04L519.93,380.11L520.93,380.13L521.93,380.17L519.68,381.09L519.96,379.08L522.13,375.53L522.35,373.99L524.06,370.50L525.59,367.73L526.13,365.57L527.96,363.30L528.98,362.23L530.51,360.58L531.93,358.23L533.93,358.20L533.93,358.21L533.93,358.22L531.93,360.18L533.20,360.21L533.34,361.83L532.87,364.18L532.20,367.21L532.26,370.68L531.99,371.40L531.50,374.42L531.68,375.21L531.48,379.22L529.72,382.88L529.89,381.33L530.13,385.51L528.17,389.32L524.17,391.69L521.93,392.25L520.93,392.28L519.93,392.30L517.93,392.38L515.93,392.43L514.93,392.43L512.06,392.12L510.82,391.51L507.93,391.59L503.75,390.25L501.45,388.68L503.62,388.96L501.42,388.87L497.07,385.93L497.61,384.22L495.06,384.55L491.18,382.20L486.37,378.77L486.62,378.16L481.62,375.94L480.95,374.92L479.05,373.96L475.83,372.45L471.97,371.13L469.97,370.11L468.84,369.44L464.98,368.12L462.98,367.10L462.30,366.56L459.88,365.90L458.93,365.87L456.93,365.84L462.16,356.90L459.29,355.20L458.93,354.68L462.23,355.82L463.93,355.78L465.93,355.82L466.93,355.86L468.93,355.91L469.93,355.95L470.93,356.00L469.46,356.63L473.64,355.16L472.90,356.41L475.16,353.88L478.04,352.56L478.63,353.69L481.13,348.62L483.86,346.69L484.94,345.59L485.63,343.16L485.67,341.21L485.72,339.21L485.65,335.21L485.43,330.21L486.08,331.79L484.84,329.25L485.21,328.49L483.82,327.05L481.23,323.89L478.90,319.57L478.37,317.21L482.93,323.73L481.93,323.69L480.93,323.66L479.84,323.27L475.03,324.57L477.09,323.23L476.40,324.68L475.36,325.64L472.79,327.71L472.75,326.91L471.47,328.99L470.43,330.96L468.30,334.44L466.58,334.49L465.54,337.66L463.64,339.04L463.56,343.96L462.84,345.19L462.04,347.44L461.39,351.23L461.40,354.21L461.36,356.21L461.33,358.21L461.28,359.21L461.24,360.21L461.20,361.21L461.15,363.21L461.10,365.21L461.08,368.21L461.06,371.21L461.00,373.21L461.05,377.21L461.25,382.21L461.33,386.21L461.43,390.21L461.43,391.21L461.24,392.76L460.68,394.23L459.79,395.52L458.62,396.56L457.23,397.29L455.71,397.66L454.14,397.66L452.62,397.29L451.23,396.56L450.06,395.52L449.17,394.23L448.61,392.76L448.42,391.21L448.46,389.21L448.45,386.21L448.49,384.21L448.53,383.21L448.57,382.21L448.61,381.21L448.66,379.21L448.70,378.21L448.76,376.21L448.77,373.21L448.82,372.21L448.85,369.21L448.79,365.21L448.84,364.21L448.79,360.21L448.84,358.21L448.90,357.21L448.85,353.21L448.87,350.21L448.94,348.21L448.97,345.21L449.04,343.21L449.11,341.21L449.09,337.21L449.07,333.21L449.14,331.21L449.19,328.21L448.89,322.21L449.05,320.05L449.75,316.18L449.68,312.21L449.73,310.21L449.75,307.21L449.77,304.21L449.82,302.21L450.05,299.78L450.82,297.16L450.86,296.21L450.81,292.21L450.83,289.21L450.89,287.21L451.49,281.80L454.55,275.97L454.40,277.95L454.68,272.39L455.99,271.64L457.12,268.18L456.87,270.21L457.05,268.76L457.57,267.39L458.39,266.19L459.49,265.22L460.78,264.55L462.20,264.20L463.65,264.20L465.07,264.55L466.36,265.22L467.46,266.19L468.29,267.39L468.80,268.76L468.98,270.21L468.93,271.21L468.88,272.21L468.81,274.21L468.75,275.21L468.68,277.21L468.60,279.21L468.53,280.21L468.53,284.21L468.46,287.21L468.10,290.84L467.27,292.29L466.93,295.78L465.55,299.51L463.87,302.47L462.63,306.77L461.56,309.14L459.95,315.17L457.93,318.23L456.27,322.86L453.83,326.66L450.86,331.08L450.20,331.09L448.71,334.09L447.54,335.28L447.39,336.21L445.94,340.21Z" fill="white">

</path><path d="M271.92,526.20L285.74,513.59L290.38,509.28L297.25,502.53L305.62,496.51L307.93,492.67L312.19,488.94L315.55,484.30L318.56,480.86L322.16,475.37L324.90,469.69L325.70,467.59L327.43,462.81L329.39,458.44L330.22,456.36L330.81,453.91L330.47,451.13L331.53,446.75L332.36,442.28L334.58,436.60L334.04,432.21L333.92,430.21L333.84,429.21L333.76,428.21L333.69,427.21L338.93,431.52L337.84,431.57L333.29,430.40L331.93,430.74L330.93,430.81L327.93,430.87L329.05,429.80L329.71,431.39L328.08,434.48L327.45,438.95L327.61,442.21L327.67,443.21L327.41,449.21L327.33,454.21L327.41,457.20L327.90,463.34L330.19,466.68L331.74,470.60L333.57,475.35L336.18,481.09L337.56,484.65L339.36,488.04L340.76,494.24L341.71,496.61L342.88,501.01L342.88,508.21L342.96,509.21L343.02,513.21L343.03,517.45L341.63,521.58L336.84,527.36L329.66,532.80L324.37,534.56L322.08,537.57L315.52,540.53L310.93,540.99L307.93,541.12L306.93,541.20L305.93,541.28L302.78,540.14L297.52,533.42L296.94,529.68L295.55,529.00L293.83,523.44L293.60,521.21L293.57,517.21L293.47,515.21L293.40,514.21L293.81,510.05L297.09,505.71L302.93,504.48L304.93,504.40L305.93,504.35L309.93,504.39L313.93,504.45L314.93,504.41L318.93,504.51L320.93,504.50L322.20,504.55L326.47,506.12L329.46,508.48L328.18,507.79L332.32,509.39L334.46,510.33L335.39,510.37L340.37,513.38L343.14,514.53L345.26,516.38L348.47,517.52L354.31,521.00L354.93,521.16L355.93,521.40L358.93,522.20L358.93,522.21L358.93,522.22L355.93,523.01L354.93,523.25L353.54,523.41L347.38,522.90L340.71,521.88L335.48,521.03L334.46,520.04L331.39,520.08L327.67,518.63L324.39,517.93L321.66,515.86L320.93,515.91L318.93,515.90L314.93,516.00L313.93,515.96L309.93,516.02L305.93,516.06L304.93,516.01L302.93,515.93L302.76,514.70L304.04,512.36L304.45,514.21L304.38,515.21L304.28,517.21L304.02,520.97L304.30,523.41L306.91,528.73L306.33,528.99L307.07,532.27L305.93,531.13L306.93,531.21L307.93,531.29L310.93,531.43L312.33,531.88L315.77,530.85L321.48,525.85L324.19,525.61L329.02,521.05L332.82,516.96L332.83,513.21L332.90,509.21L332.98,508.21L332.97,503.41L332.14,499.80L331.10,496.18L330.49,492.37L328.29,487.76L327.67,485.33L324.28,479.07L322.12,473.81L321.67,471.73L317.95,465.07L316.44,457.21L316.52,454.21L316.44,449.21L316.18,443.21L316.24,442.21L316.40,435.46L317.17,434.11L317.77,429.93L320.14,425.02L324.80,420.62L327.93,419.54L330.93,419.61L331.93,419.67L336.56,420.01L338.01,420.84L338.93,420.89L344.16,427.21L344.09,428.21L344.01,429.21L343.94,430.21L343.81,432.21L343.72,436.21L343.27,439.81L341.49,444.13L340.32,449.67L339.39,451.28L339.04,456.50L337.63,460.05L336.46,461.97L334.42,465.60L332.15,470.82L330.96,472.72L327.69,479.05L323.29,485.55L320.30,488.11L315.66,493.48L311.93,495.74L308.23,499.90L300.60,505.88L293.47,513.14L288.11,516.82L271.93,526.21Z" fill="white">

</path><path d="M397.92,490.21L390.81,486.54L386.81,484.16L384.80,484.91L381.57,483.94L377.84,483.47L376.07,482.15L376.99,483.05L377.21,481.46L377.40,482.81L374.41,485.34L375.38,487.22L373.60,490.55L372.61,494.77L371.80,498.39L372.00,499.45L369.55,505.47L368.94,509.19L369.15,510.21L369.11,515.21L369.07,520.21L369.18,522.21L369.28,524.21L369.38,526.21L369.38,526.95L372.76,529.37L374.75,531.26L377.45,532.35L380.67,535.86L379.44,534.82L384.50,537.40L383.93,536.54L379.20,542.21L384.93,534.40L382.12,537.08L381.48,535.10L383.71,531.99L384.51,531.20L384.35,530.05L387.63,525.91L388.48,525.03L389.44,522.01L391.61,517.08L392.44,514.48L392.17,512.21L392.12,509.21L392.06,507.11L393.30,502.43L392.97,501.21L392.91,499.21L392.88,496.21L392.83,495.21L392.78,494.21L392.73,493.21L392.68,491.21L392.64,489.21L392.59,488.21L392.55,486.21L392.73,484.68L393.28,483.24L394.15,481.98L395.30,480.96L396.66,480.24L398.16,479.88L399.69,479.88L401.19,480.24L402.55,480.96L403.70,481.98L404.57,483.24L405.12,484.68L405.30,486.21L405.30,487.21L405.34,488.21L405.34,491.21L405.38,493.21L405.37,496.21L405.41,497.21L405.32,501.21L405.36,502.21L405.39,504.21L405.42,506.21L405.44,508.21L405.40,508.90L406.59,510.38L407.51,512.30L407.93,513.05L402.93,511.92L410.21,518.21L412.03,522.21L405.93,517.13L412.97,523.21L406.93,518.21L409.16,518.77L413.12,521.15L415.04,524.95L415.02,527.05L414.76,525.37L415.71,526.55L417.33,529.91L417.72,530.81L418.57,534.21L418.42,535.21L413.93,531.88L419.09,536.21L418.54,535.59L419.62,537.50L416.93,537.02L417.93,537.25L421.64,540.21L418.93,538.75L419.93,539.01L420.93,539.29L421.93,539.58L422.93,539.88L425.93,540.20L425.93,540.21L425.93,540.22L422.93,542.54L421.93,542.84L420.93,543.13L419.93,543.40L418.93,543.67L416.21,540.21L417.93,543.16L416.93,543.39L414.23,540.91L413.31,540.82L411.29,538.03L410.76,536.21L413.93,540.54L409.43,535.21L409.28,534.21L410.13,535.60L408.52,534.50L408.14,533.87L407.09,533.05L404.73,529.27L406.93,530.20L400.88,523.21L405.93,529.28L399.82,522.21L401.06,524.27L398.19,520.51L397.64,518.21L402.93,524.49L397.92,519.37L396.34,518.11L395.27,516.04L392.45,509.52L392.41,508.21L392.43,506.21L392.46,504.21L392.50,502.21L392.54,501.21L392.44,497.21L392.48,496.21L392.47,493.21L392.51,491.21L392.51,488.21L392.55,487.21L392.55,486.21L392.73,484.68L393.28,483.24L394.15,481.98L395.30,480.96L396.66,480.24L398.16,479.88L399.69,479.88L401.19,480.24L402.55,480.96L403.70,481.98L404.57,483.24L405.12,484.68L405.30,486.21L405.26,488.21L405.22,489.21L405.17,491.21L405.12,493.21L405.07,494.21L405.02,495.21L404.97,496.21L404.94,499.21L404.88,501.21L404.55,505.98L403.79,507.30L403.73,509.21L403.68,512.21L403.41,517.94L402.24,521.33L400.42,526.40L397.38,533.38L396.23,534.51L395.51,534.37L393.34,539.22L392.14,540.42L392.37,539.31L389.73,543.33L384.93,546.01L390.66,542.21L383.93,547.88L379.35,547.01L378.41,545.60L375.18,544.55L372.40,542.06L367.10,539.15L365.09,537.04L359.96,531.79L358.47,527.47L358.47,526.21L358.57,524.21L358.67,522.21L358.78,520.21L358.75,515.21L358.70,510.21L358.91,507.22L360.30,500.95L361.85,498.96L362.05,496.03L363.24,491.65L366.25,483.87L366.47,485.20L367.44,481.07L370.45,479.60L370.64,478.95L376.86,475.36L379.78,476.27L380.01,476.94L384.28,478.47L385.05,479.50L389.04,480.25L393.04,483.87L397.93,490.20Z" fill="white">

</path><path d="M443.94,493.21L445.51,496.21L445.13,501.64L445.79,507.21L446.08,509.21L446.55,514.21L446.82,516.21L446.96,517.21L447.28,520.21L447.51,522.21L447.64,523.21L447.76,524.21L447.94,526.21L447.98,527.21L447.99,529.21L448.00,530.21L448.56,532.16L448.54,530.71L450.29,533.94L451.30,534.83L452.17,535.86L452.98,536.26L454.08,537.79L456.85,538.51L457.35,540.53L457.93,539.99L458.93,540.17L462.93,541.06L463.93,541.28L465.93,541.77L470.93,543.20L470.93,543.21L470.93,543.22L465.93,544.64L463.93,545.13L462.93,545.35L458.93,546.24L457.93,546.42L454.51,545.88L453.00,543.91L449.77,544.63L448.87,544.15L445.68,542.56L444.55,541.58L443.49,540.64L441.56,538.48L441.31,537.70L439.29,534.26L439.90,534.75L438.27,532.26L437.85,530.21L437.86,529.21L437.87,527.21L437.91,526.21L438.09,524.21L438.22,523.21L438.34,522.21L438.57,520.21L438.89,517.21L439.03,516.21L439.30,514.21L439.77,509.21L440.07,507.21L440.72,500.77L442.34,496.20L443.92,493.21Z" fill="white">

</path><path d="M451.92,469.21L450.62,465.53L448.95,465.55L446.19,466.05L444.99,465.91L441.93,467.21L441.93,467.21L441.92,467.20L444.86,464.50L445.66,464.36L448.90,462.86L451.23,462.89L451.94,469.20Z" fill="white">

</path><path d="M471.92,496.20L476.63,493.70L477.93,493.51L480.93,493.06L482.14,492.95L486.50,494.86L489.24,496.97L491.10,499.62L493.26,502.08L495.15,507.15L496.47,511.07L497.72,515.04L498.06,520.21L498.22,522.21L498.22,527.21L498.26,531.21L498.36,533.21L498.45,535.21L498.51,536.21L498.58,537.21L498.15,539.39L496.51,542.10L497.78,541.21L497.79,543.49L496.22,547.96L495.34,548.91L494.53,550.13L493.46,551.12L492.18,551.82L490.77,552.20L489.31,552.23L487.89,551.90L486.59,551.25L485.48,550.31L484.62,549.12L484.08,547.77L483.88,546.32L484.02,544.87L484.51,543.50L483.87,544.21L483.82,542.21L483.98,537.21L484.12,532.21L484.08,529.21L484.16,524.93L486.71,518.90L488.67,512.10L489.73,509.91L490.72,505.50L493.22,503.24L492.00,503.92L494.54,498.61L499.75,495.60L499.69,494.83L503.09,492.76L503.82,492.28L501.67,497.21L507.93,489.91L508.93,489.86L510.93,489.82L511.93,489.78L512.93,489.74L513.93,489.70L517.28,490.23L521.58,492.56L522.60,493.53L524.20,495.88L525.04,498.82L524.67,496.46L526.28,498.83L527.69,504.21L527.72,505.21L527.69,508.21L527.66,511.21L527.67,513.21L527.69,515.21L527.63,518.21L527.63,520.21L527.05,523.59L525.24,526.56L526.39,527.21L526.25,530.21L526.18,532.21L525.97,535.21L525.85,537.21L525.80,538.21L525.75,539.21L525.58,541.21L525.50,542.21L519.93,537.72L526.32,543.21L520.93,538.92L527.10,544.21L521.93,540.15L522.93,540.28L524.92,540.82L527.21,542.58L529.01,543.90L527.93,543.22L528.93,543.41L532.57,544.37L534.77,546.18L536.53,547.40L539.22,549.28L541.93,550.20L541.93,550.21L541.93,550.22L538.63,551.13L535.32,551.02L531.28,550.04L528.93,551.00L527.93,551.19L525.01,550.24L522.93,550.14L521.93,550.26L516.75,544.21L520.93,549.49L515.53,543.21L519.93,548.69L514.35,542.21L514.28,541.21L514.11,539.21L514.05,538.21L514.00,537.21L513.88,535.21L513.68,532.21L513.60,530.21L513.46,527.21L514.61,519.86L514.80,520.82L514.22,520.21L514.22,518.21L514.16,515.21L514.18,513.21L514.20,511.21L514.16,508.21L514.13,505.21L514.16,504.21L515.18,505.96L512.82,501.59L513.25,502.88L512.28,501.86L514.57,502.18L513.93,502.71L512.93,502.67L511.93,502.63L510.93,502.59L508.93,502.55L507.93,502.51L514.18,497.21L510.03,502.13L508.16,503.58L504.10,506.81L503.32,505.80L503.86,504.49L502.63,509.17L500.67,510.48L500.12,514.50L499.18,516.31L497.73,519.36L497.14,523.51L495.69,525.48L495.78,529.21L495.73,532.21L495.87,537.21L496.04,542.21L495.98,544.21L495.34,548.91L494.53,550.13L493.46,551.12L492.18,551.82L490.77,552.20L489.31,552.23L487.89,551.90L486.59,551.25L485.48,550.31L484.62,549.12L484.08,547.77L483.88,546.33L484.02,544.87L484.51,543.50L485.63,542.45L486.06,542.93L486.07,541.21L487.34,536.31L487.27,537.21L487.34,536.21L487.40,535.21L487.49,533.21L487.59,531.21L487.63,527.21L487.63,522.21L487.79,520.21L488.13,517.37L487.38,513.34L486.70,509.26L486.59,506.33L484.75,502.80L484.61,501.44L483.35,499.55L481.71,497.46L480.93,497.36L477.93,496.90L477.22,496.71L471.93,496.22Z" fill="white">

</path><path d="M563.94,476.21L565.61,484.21L566.13,488.21L566.54,491.21L567.02,495.21L566.41,501.79L565.72,506.13L566.08,511.21L566.33,515.21L566.44,516.21L566.63,519.21L566.33,522.20L564.81,524.66L565.92,524.21L565.96,527.21L566.01,529.21L566.04,530.21L566.07,531.21L566.01,534.21L565.99,536.21L565.85,539.21L565.66,542.21L565.62,543.21L565.57,544.21L565.41,546.21L565.33,547.21L565.25,548.21L565.15,549.21L565.05,550.21L560.93,547.20L562.93,547.48L565.93,548.01L567.93,548.38L570.93,549.04L571.93,549.27L572.93,549.50L573.93,549.75L575.93,550.30L578.93,551.20L578.93,551.21L578.93,551.22L575.93,552.11L573.93,552.66L572.93,552.91L571.93,553.15L570.93,553.37L567.93,554.03L565.93,554.40L562.93,554.93L560.93,555.21L556.80,550.21L556.70,549.21L556.60,548.21L556.52,547.21L556.44,546.21L556.28,544.21L556.23,543.21L556.19,542.21L556.00,539.21L555.86,536.21L555.84,534.21L555.78,531.21L555.81,530.21L555.84,529.21L555.89,527.21L555.93,524.21L557.04,519.75L557.52,520.21L557.22,519.21L557.41,516.21L557.52,515.21L557.77,511.21L558.13,504.29L559.44,500.62L560.84,495.20L561.31,491.21L561.73,488.21L562.24,484.21L563.92,476.21Z" fill="white">

</path><path d="M566.93,440.21L566.30,444.81L566.92,447.21L567.03,448.00L569.11,449.69L572.85,451.62L574.50,452.03L580.70,454.51L582.98,455.82L580.38,458.21L580.75,455.21L580.88,454.21L581.19,452.21L581.36,451.21L582.93,451.59L581.93,451.40L580.93,451.19L576.93,450.22L576.93,450.21L576.93,450.20L580.93,449.22L581.93,449.01L582.93,448.82L584.49,451.21L584.66,452.21L584.97,454.21L585.10,455.21L585.47,458.21L580.87,460.59L579.15,459.90L571.35,458.38L569.00,456.79L564.74,452.72L562.82,448.41L562.93,447.21L563.24,445.21L563.55,443.60L566.92,440.20Z" fill="white">

</path><path d="M450.92,463.20L450.74,457.15L454.11,455.09L454.67,454.21L456.80,453.55L457.90,452.89L461.93,453.03L463.93,453.31L465.93,453.65L468.93,454.25L472.93,455.20L472.93,455.21L472.93,455.22L468.93,456.16L465.93,456.77L463.93,457.10L461.93,457.38L459.95,457.52L457.05,458.86L457.19,458.20L455.74,459.32L453.11,459.26L450.94,463.21Z" fill="white">

</path>
</mask>
</svg>