<svg width="800" height="600" viewBox="0 0 800 600" xmlns="http://www.w3.org/2000/svg" xmlns:xlink="http://www.w3.org/1999/xlink" data-cache="1714886334731">
<style>
path.line-0 {
  stroke-dasharray: 320 325;
  stroke-dashoffset: 320;
  animation: draw-0 8387.05084723439ms linear forwards infinite;
}
@keyframes draw-0 {
  0% { stroke-dashoffset: 320; }
  7.62% { stroke-dashoffset: 0; }
  98.37% { stroke-dashoffset: 0; }
  98.92% { stroke-dashoffset: 320; }
  100% { stroke-dashoffset: 320; }
}
path.line-1 {
  stroke-dasharray: 238 243;
  stroke-dashoffset: 238;
  animation: draw-1 8387.05084723439ms linear forwards infinite;
}
@keyframes draw-1 {
  0% { stroke-dashoffset: 238; }
  7.619187718431992% { stroke-dashoffset: 238; }
  13.31% { stroke-dashoffset: 0; }
  98.03% { stroke-dashoffset: 0; }
  98.45% { stroke-dashoffset: 238; }
  100% { stroke-dashoffset: 238; }
}
path.line-2 {
  stroke-dasharray: 97 102;
  stroke-dashoffset: 97;
  animation: draw-2 8387.05084723439ms linear forwards infinite;
}
@keyframes draw-2 {
  0% { stroke-dashoffset: 97; }
  13.305538200744707% { stroke-dashoffset: 97; }
  15.61% { stroke-dashoffset: 0; }
  97.90% { stroke-dashoffset: 0; }
  98.07% { stroke-dashoffset: 97; }
  100% { stroke-dashoffset: 97; }
}
path.line-3 {
  stroke-dasharray: 17 22;
  stroke-dashoffset: 17;
  animation: draw-3 8387.05084723439ms linear forwards infinite;
}
@keyframes draw-3 {
  0% { stroke-dashoffset: 17; }
  15.6089897229915% { stroke-dashoffset: 17; }
  16.01% { stroke-dashoffset: 0; }
  97.88% { stroke-dashoffset: 0; }
  97.91% { stroke-dashoffset: 17; }
  100% { stroke-dashoffset: 17; }
}
path.line-4 {
  stroke-dasharray: 38 43;
  stroke-dashoffset: 38;
  animation: draw-4 8387.05084723439ms linear forwards infinite;
}
@keyframes draw-4 {
  0% { stroke-dashoffset: 38; }
  16.01415490189386% { stroke-dashoffset: 38; }
  16.93% { stroke-dashoffset: 0; }
  97.82% { stroke-dashoffset: 0; }
  97.89% { stroke-dashoffset: 38; }
  100% { stroke-dashoffset: 38; }
}
path.line-5 {
  stroke-dasharray: 96 101;
  stroke-dashoffset: 96;
  animation: draw-5 8387.05084723439ms linear forwards infinite;
}
@keyframes draw-5 {
  0% { stroke-dashoffset: 96; }
  16.92650258434213% { stroke-dashoffset: 96; }
  19.21% { stroke-dashoffset: 0; }
  97.69% { stroke-dashoffset: 0; }
  97.86% { stroke-dashoffset: 96; }
  100% { stroke-dashoffset: 96; }
}
path.line-6 {
  stroke-dasharray: 96 101;
  stroke-dashoffset: 96;
  animation: draw-6 8387.05084723439ms linear forwards infinite;
}
@keyframes draw-6 {
  0% { stroke-dashoffset: 96; }
  19.2146913135812% { stroke-dashoffset: 96; }
  21.50% { stroke-dashoffset: 0; }
  97.56% { stroke-dashoffset: 0; }
  97.72% { stroke-dashoffset: 96; }
  100% { stroke-dashoffset: 96; }
}
path.line-7 {
  stroke-dasharray: 69 74;
  stroke-dashoffset: 69;
  animation: draw-7 8387.05084723439ms linear forwards infinite;
}
@keyframes draw-7 {
  0% { stroke-dashoffset: 69; }
  21.496564668982145% { stroke-dashoffset: 69; }
  23.15% { stroke-dashoffset: 0; }
  97.46% { stroke-dashoffset: 0; }
  97.58% { stroke-dashoffset: 69; }
  100% { stroke-dashoffset: 69; }
}
path.line-8 {
  stroke-dasharray: 24 29;
  stroke-dashoffset: 24;
  animation: draw-8 8387.05084723439ms linear forwards infinite;
}
@keyframes draw-8 {
  0% { stroke-dashoffset: 24; }
  23.1475101212092% { stroke-dashoffset: 24; }
  23.72% { stroke-dashoffset: 0; }
  97.43% { stroke-dashoffset: 0; }
  97.47% { stroke-dashoffset: 24; }
  100% { stroke-dashoffset: 24; }
}
path.line-9 {
  stroke-dasharray: 500 505;
  stroke-dashoffset: 500;
  animation: draw-9 8387.05084723439ms linear forwards infinite;
}
@keyframes draw-9 {
  0% { stroke-dashoffset: 500; }
  23.72275655920051% { stroke-dashoffset: 500; }
  35.64% { stroke-dashoffset: 0; }
  96.74% { stroke-dashoffset: 0; }
  97.60% { stroke-dashoffset: 500; }
  100% { stroke-dashoffset: 500; }
}
path.line-10 {
  stroke-dasharray: 424 429;
  stroke-dashoffset: 424;
  animation: draw-10 8387.05084723439ms linear forwards infinite;
}
@keyframes draw-10 {
  0% { stroke-dashoffset: 424; }
  35.63887950900618% { stroke-dashoffset: 424; }
  45.75% { stroke-dashoffset: 0; }
  96.15% { stroke-dashoffset: 0; }
  96.88% { stroke-dashoffset: 424; }
  100% { stroke-dashoffset: 424; }
}
path.line-11 {
  stroke-dasharray: 217 222;
  stroke-dashoffset: 217;
  animation: draw-11 8387.05084723439ms linear forwards infinite;
}
@keyframes draw-11 {
  0% { stroke-dashoffset: 217; }
  45.74523598869709% { stroke-dashoffset: 217; }
  50.92% { stroke-dashoffset: 0; }
  95.85% { stroke-dashoffset: 0; }
  96.23% { stroke-dashoffset: 217; }
  100% { stroke-dashoffset: 217; }
}
path.line-12 {
  stroke-dasharray: 2 7;
  stroke-dashoffset: 2;
  animation: draw-12 8387.05084723439ms linear forwards infinite;
}
@keyframes draw-12 {
  0% { stroke-dashoffset: 2; }
  50.922938589468934% { stroke-dashoffset: 2; }
  50.97% { stroke-dashoffset: 0; }
  95.85% { stroke-dashoffset: 0; }
  95.85% { stroke-dashoffset: 2; }
  100% { stroke-dashoffset: 2; }
}
path.line-13 {
  stroke-dasharray: 47 52;
  stroke-dashoffset: 47;
  animation: draw-13 8387.05084723439ms linear forwards infinite;
}
@keyframes draw-13 {
  0% { stroke-dashoffset: 47; }
  50.9706311583213% { stroke-dashoffset: 47; }
  52.09% { stroke-dashoffset: 0; }
  95.78% { stroke-dashoffset: 0; }
  95.86% { stroke-dashoffset: 47; }
  100% { stroke-dashoffset: 47; }
}
path.line-14 {
  stroke-dasharray: 1259 1264;
  stroke-dashoffset: 1259;
  animation: draw-14 8387.05084723439ms linear forwards infinite;
}
@keyframes draw-14 {
  0% { stroke-dashoffset: 1259; }
  52.08849378397288% { stroke-dashoffset: 1259; }
  82.12% { stroke-dashoffset: 0; }
  94.04% { stroke-dashoffset: 0; }
  96.22% { stroke-dashoffset: 1259; }
  100% { stroke-dashoffset: 1259; }
}
</style><rect x="0" y="0" width="800" height="600" fill="#fff">

</rect><g mask="url(#brush)">
<path d="M88.925,112.206L89.592,111.206C90.259,110.206,91.592,108.206,93.592,106.539C95.592,104.873,98.259,103.539,101.259,102.206C104.259,100.873,107.592,99.539,110.425,98.206C113.259,96.873,115.592,95.539,117.425,93.873C119.259,92.206,120.592,90.206,121.925,88.039C123.259,85.873,124.592,83.539,126.092,80.373C127.592,77.206,129.259,73.206,130.425,69.373C131.592,65.539,132.259,61.873,132.925,58.873C133.592,55.873,134.259,53.539,133.925,53.706C133.592,53.873,132.259,56.539,131.259,59.039C130.259,61.539,129.592,63.873,128.592,67.206C127.592,70.539,126.259,74.873,125.259,79.039C124.259,83.206,123.592,87.206,123.092,90.706C122.592,94.206,122.259,97.206,121.925,100.873C121.592,104.539,121.259,108.873,121.092,112.539C120.925,116.206,120.925,119.206,120.592,122.706C120.259,126.206,119.592,130.206,118.925,133.706C118.259,137.206,117.592,140.206,116.925,142.873C116.259,145.539,115.592,147.873,114.925,150.373C114.259,152.873,113.592,155.539,112.592,158.373C111.592,161.206,110.259,164.206,109.259,166.873C108.259,169.539,107.592,171.873,107.092,174.706C106.592,177.539,106.259,180.873,106.092,183.706C105.925,186.539,105.925,188.873,105.925,191.206C105.925,193.539,105.925,195.873,105.925,195.706C105.925,195.539,105.925,192.873,105.925,190.206C105.925,187.539,105.925,184.873,106.259,182.206C106.592,179.539,107.259,176.873,108.259,174.373C109.259,171.873,110.592,169.539,111.592,167.039C112.592,164.539,113.259,161.873,113.925,159.373C114.592,156.873,115.259,154.539,115.592,152.206C115.925,149.873,115.925,147.539,115.925,145.206C115.925,142.873,115.925,140.539,115.925,138.706C115.925,136.873,115.925,135.539,115.925,134.873L115.925,134.206" stroke-width="9.904596074066864" stroke-linecap="round" stroke-linejoin="round" stroke="#000" fill="none" class="line-0">

</path><path d="M115.925,133.206L117.592,132.706C119.259,132.206,122.592,131.206,125.925,130.206C129.259,129.206,132.592,128.206,135.592,127.206C138.592,126.206,141.259,125.206,144.092,124.206C146.925,123.206,149.925,122.206,152.425,121.039C154.925,119.873,156.925,118.539,158.759,117.039C160.592,115.539,162.259,113.873,163.759,112.039C165.259,110.206,166.592,108.206,168.092,105.873C169.592,103.539,171.259,100.873,172.759,98.039C174.259,95.206,175.592,92.206,176.425,89.373C177.259,86.539,177.592,83.873,178.092,81.373C178.592,78.873,179.259,76.539,179.592,76.539C179.925,76.539,179.925,78.873,179.759,81.206C179.592,83.539,179.259,85.873,178.925,88.206C178.592,90.539,178.259,92.873,178.092,95.539C177.925,98.206,177.925,101.206,177.925,104.039C177.925,106.873,177.925,109.539,177.592,112.373C177.259,115.206,176.592,118.206,175.925,121.206C175.259,124.206,174.592,127.206,173.925,130.206C173.259,133.206,172.592,136.206,172.092,139.039C171.592,141.873,171.259,144.539,170.759,147.039C170.259,149.539,169.592,151.873,168.925,154.873C168.259,157.873,167.592,161.539,167.092,164.873C166.592,168.206,166.259,171.206,166.092,174.039C165.925,176.873,165.925,179.539,165.759,182.039C165.592,184.539,165.259,186.873,165.592,189.039C165.925,191.206,166.925,193.206,168.592,194.373C170.259,195.539,172.592,195.873,174.592,195.539C176.592,195.206,178.259,194.206,179.092,193.706L179.925,193.206" stroke-width="9.904596074066864" stroke-linecap="round" stroke-linejoin="round" stroke="#000" fill="none" class="line-1">

</path><path d="M205.925,143.206L206.259,142.039C206.592,140.873,207.259,138.539,207.592,138.539C207.925,138.539,207.925,140.873,207.425,143.373C206.925,145.873,205.925,148.539,204.925,151.039C203.925,153.539,202.925,155.873,201.925,158.373C200.925,160.873,199.925,163.539,199.425,166.039C198.925,168.539,198.925,170.873,198.759,173.539C198.592,176.206,198.259,179.206,198.092,181.873C197.925,184.539,197.925,186.873,198.425,189.039C198.925,191.206,199.925,193.206,202.092,194.706C204.259,196.206,207.592,197.206,210.592,197.873C213.592,198.539,216.259,198.873,217.925,198.873C219.592,198.873,220.259,198.539,220.592,198.373L220.925,198.206" stroke-width="9.904596074066864" stroke-linecap="round" stroke-linejoin="round" stroke="#000" fill="none" class="line-2">

</path><path d="M219.925,108.206L214.925,112.206" stroke-width="9.904596074066864" stroke-linecap="round" stroke-linejoin="round" stroke="#000" fill="none" class="line-3">

</path><path d="M264.925,195.206L264.759,196.706C264.592,198.206,264.259,201.206,262.925,203.539C261.592,205.873,259.259,207.539,256.759,209.039C254.259,210.539,251.592,211.873,248.759,212.873C245.925,213.873,242.925,214.539,241.425,214.873L239.925,215.206" stroke-width="9.904596074066864" stroke-linecap="round" stroke-linejoin="round" stroke="#000" fill="none" class="line-4">

</path><path d="M294.925,118.206L296.259,117.873C297.592,117.539,300.259,116.873,303.425,116.539C306.592,116.206,310.259,116.206,313.592,116.206C316.925,116.206,319.925,116.206,322.925,116.206C325.925,116.206,328.925,116.206,331.925,116.206C334.925,116.206,337.925,116.206,340.759,116.539C343.592,116.873,346.259,117.539,348.759,118.539C351.259,119.539,353.592,120.873,355.925,122.206C358.259,123.539,360.592,124.873,362.925,126.039C365.259,127.206,367.592,128.206,369.925,127.873C372.259,127.539,374.592,125.873,376.759,124.539C378.925,123.206,380.925,122.206,381.925,121.706L382.925,121.206" stroke-width="9.904596074066864" stroke-linecap="round" stroke-linejoin="round" stroke="#000" fill="none" class="line-5">

</path><path d="M342.925,119.206L342.759,120.873C342.592,122.539,342.259,125.873,341.925,128.873C341.592,131.873,341.259,134.539,340.759,137.039C340.259,139.539,339.592,141.873,339.092,144.539C338.592,147.206,338.259,150.206,337.759,153.039C337.259,155.873,336.592,158.539,336.092,161.539C335.592,164.539,335.259,167.873,334.925,170.873C334.592,173.873,334.259,176.539,333.592,178.873C332.925,181.206,331.925,183.206,331.259,185.539C330.592,187.873,330.259,190.539,329.925,193.206C329.592,195.873,329.259,198.539,329.092,201.206C328.925,203.873,328.925,206.539,328.592,208.039C328.259,209.539,327.592,209.873,327.259,210.039L326.925,210.206" stroke-width="9.904596074066864" stroke-linecap="round" stroke-linejoin="round" stroke="#000" fill="none" class="line-6">

</path><path d="M310.925,206.206L311.925,206.873C312.925,207.539,314.925,208.873,316.925,210.206C318.925,211.539,320.925,212.873,323.092,213.706C325.259,214.539,327.592,214.873,330.259,215.039C332.925,215.206,335.925,215.206,338.592,215.206C341.259,215.206,343.592,215.206,346.425,214.539C349.259,213.873,352.592,212.539,355.425,211.706C358.259,210.873,360.592,210.539,362.925,210.873C365.259,211.206,367.592,212.206,369.425,213.039C371.259,213.873,372.592,214.539,373.259,214.873L373.925,215.206" stroke-width="9.904596074066864" stroke-linecap="round" stroke-linejoin="round" stroke="#000" fill="none" class="line-7">

</path><path d="M415.925,112.206L415.925,113.873C415.925,115.539,415.925,118.873,415.759,122.206C415.592,125.539,415.259,128.873,415.092,131.206C414.925,133.539,414.925,134.873,414.925,135.539L414.925,136.206" stroke-width="9.904596074066864" stroke-linecap="round" stroke-linejoin="round" stroke="#000" fill="none" class="line-8">

</path><path d="M431.925,194.206L431.592,193.039C431.259,191.873,430.592,189.539,430.259,186.873C429.925,184.206,429.925,181.206,430.592,178.039C431.259,174.873,432.592,171.539,433.925,168.873C435.259,166.206,436.592,164.206,438.259,162.706C439.925,161.206,441.925,160.206,444.425,159.706C446.925,159.206,449.925,159.206,452.759,159.039C455.592,158.873,458.259,158.539,461.259,159.539C464.259,160.539,467.592,162.873,470.425,166.039C473.259,169.206,475.592,173.206,477.092,176.373C478.592,179.539,479.259,181.873,480.259,185.039C481.259,188.206,482.592,192.206,483.425,195.373C484.259,198.539,484.592,200.873,484.759,204.539C484.925,208.206,484.925,213.206,484.925,217.206C484.925,221.206,484.925,224.206,484.759,227.039C484.592,229.873,484.259,232.539,483.425,232.873C482.592,233.206,481.259,231.206,481.092,227.539C480.925,223.873,481.925,218.539,483.259,213.373C484.592,208.206,486.259,203.206,487.759,199.206C489.259,195.206,490.592,192.206,491.925,189.206C493.259,186.206,494.592,183.206,495.925,180.706C497.259,178.206,498.592,176.206,500.425,175.039C502.259,173.873,504.592,173.539,506.425,174.373C508.259,175.206,509.592,177.206,510.759,179.373C511.925,181.539,512.925,183.873,513.759,186.706C514.592,189.539,515.259,192.873,515.592,196.039C515.925,199.206,515.925,202.206,515.925,204.873C515.925,207.539,515.925,209.873,515.925,212.706C515.925,215.539,515.925,218.873,515.592,218.873C515.259,218.873,514.592,215.539,514.259,212.539C513.925,209.539,513.925,206.873,514.425,203.706C514.925,200.539,515.925,196.873,517.092,193.706C518.259,190.539,519.592,187.873,520.759,185.539C521.925,183.206,522.925,181.206,524.592,179.539C526.259,177.873,528.592,176.539,530.925,176.039C533.259,175.539,535.592,175.873,537.425,177.706C539.259,179.539,540.592,182.873,541.925,186.206C543.259,189.539,544.592,192.873,545.425,195.873C546.259,198.873,546.592,201.539,546.925,204.873C547.259,208.206,547.592,212.206,547.759,215.873C547.925,219.539,547.925,222.873,547.925,226.206C547.925,229.539,547.925,232.873,547.925,236.373C547.925,239.873,547.925,243.539,548.092,246.706C548.259,249.873,548.592,252.539,549.925,254.706C551.259,256.873,553.592,258.539,556.092,259.539C558.592,260.539,561.259,260.873,563.759,260.039C566.259,259.206,568.592,257.206,570.592,254.206C572.592,251.206,574.259,247.206,575.592,243.873C576.925,240.539,577.925,237.873,578.925,234.706C579.925,231.539,580.925,227.873,581.425,225.539C581.925,223.206,581.925,222.206,581.925,221.706L581.925,221.206" stroke-width="9.904596074066864" stroke-linecap="round" stroke-linejoin="round" stroke="#000" fill="none" class="line-9">

</path><path d="M69.925,392.206L69.925,391.039C69.925,389.873,69.925,387.539,69.925,384.873C69.925,382.206,69.925,379.206,70.425,376.039C70.925,372.873,71.925,369.539,73.092,366.873C74.259,364.206,75.592,362.206,77.092,360.206C78.592,358.206,80.259,356.206,82.925,353.373C85.592,350.539,89.259,346.873,92.592,343.706C95.925,340.539,98.925,337.873,101.425,335.373C103.925,332.873,105.925,330.539,108.259,328.039C110.592,325.539,113.259,322.873,115.259,320.706C117.259,318.539,118.592,316.873,119.925,315.206C121.259,313.539,122.592,311.873,123.925,309.873C125.259,307.873,126.592,305.539,127.259,306.206C127.925,306.873,127.925,310.539,127.259,313.373C126.592,316.206,125.259,318.206,124.259,320.873C123.259,323.539,122.592,326.873,122.092,330.039C121.592,333.206,121.259,336.206,120.925,339.373C120.592,342.539,120.259,345.873,120.092,349.039C119.925,352.206,119.925,355.206,121.259,356.873C122.592,358.539,125.259,358.873,128.592,357.706C131.925,356.539,135.925,353.873,139.425,351.206C142.925,348.539,145.925,345.873,148.259,343.873C150.592,341.873,152.259,340.539,154.259,338.706C156.259,336.873,158.592,334.539,160.425,332.373C162.259,330.206,163.592,328.206,165.092,326.039C166.592,323.873,168.259,321.539,169.259,318.873C170.259,316.206,170.592,313.206,171.092,310.373C171.592,307.539,172.259,304.873,171.925,305.539C171.592,306.206,170.259,310.206,169.092,314.039C167.925,317.873,166.925,321.539,165.925,325.039C164.925,328.539,163.925,331.873,162.592,335.373C161.259,338.873,159.592,342.539,158.592,345.539C157.592,348.539,157.259,350.873,156.759,353.206C156.259,355.539,155.592,357.873,154.759,361.039C153.925,364.206,152.925,368.206,152.425,371.539C151.925,374.873,151.925,377.539,151.592,380.706C151.259,383.873,150.592,387.539,149.925,391.039C149.259,394.539,148.592,397.873,148.259,400.706C147.925,403.539,147.925,405.873,147.925,408.373C147.925,410.873,147.925,413.539,148.759,415.539C149.592,417.539,151.259,418.873,153.259,418.873C155.259,418.873,157.592,417.539,159.425,416.039C161.259,414.539,162.592,412.873,164.259,410.706C165.925,408.539,167.925,405.873,169.092,404.373C170.259,402.873,170.592,402.539,170.759,402.373L170.925,402.206" stroke-width="9.904596074066864" stroke-linecap="round" stroke-linejoin="round" stroke="#000" fill="none" class="line-10">

</path><path d="M210.925,368.206L209.759,368.039C208.592,367.873,206.259,367.539,203.759,367.373C201.259,367.206,198.592,367.206,195.925,368.039C193.259,368.873,190.592,370.539,188.759,372.706C186.925,374.873,185.925,377.539,185.425,380.206C184.925,382.873,184.925,385.539,184.925,388.373C184.925,391.206,184.925,394.206,184.925,396.873C184.925,399.539,184.925,401.873,186.092,404.039C187.259,406.206,189.592,408.206,191.925,409.539C194.259,410.873,196.592,411.539,198.925,411.206C201.259,410.873,203.592,409.539,205.425,407.873C207.259,406.206,208.592,404.206,209.759,401.539C210.925,398.873,211.925,395.539,212.592,392.539C213.259,389.539,213.592,386.873,213.759,384.373C213.925,381.873,213.925,379.539,213.092,377.539C212.259,375.539,210.592,373.873,210.925,373.706C211.259,373.539,213.592,374.873,215.092,377.039C216.592,379.206,217.259,382.206,217.759,384.873C218.259,387.539,218.592,389.873,218.759,392.373C218.925,394.873,218.925,397.539,218.925,400.206C218.925,402.873,218.925,405.539,218.925,408.039C218.925,410.539,218.925,412.873,218.925,415.206C218.925,417.539,218.925,419.873,219.425,422.039C219.925,424.206,220.925,426.206,222.592,427.206C224.259,428.206,226.592,428.206,228.759,427.706C230.925,427.206,232.925,426.206,234.259,425.706C235.592,425.206,236.259,425.206,236.592,425.206L236.925,425.206" stroke-width="9.904596074066864" stroke-linecap="round" stroke-linejoin="round" stroke="#000" fill="none" class="line-11">

</path><path d="M226.925,429.206L226.925,427.206" stroke-width="9.904596074066864" stroke-linecap="round" stroke-linejoin="round" stroke="#000" fill="none" class="line-12">

</path><path d="M226.925,427.206L227.425,425.873C227.925,424.539,228.925,421.873,230.259,419.206C231.592,416.539,233.259,413.873,234.759,411.706C236.259,409.539,237.592,407.873,239.425,405.539C241.259,403.206,243.592,400.206,245.425,397.706C247.259,395.206,248.592,393.206,249.592,391.706C250.592,390.206,251.259,389.206,251.592,388.706L251.925,388.206" stroke-width="9.904596074066864" stroke-linecap="round" stroke-linejoin="round" stroke="#000" fill="none" class="line-13">

</path><path d="M226.925,424.206L227.759,423.373C228.592,422.539,230.259,420.873,231.925,419.039C233.592,417.206,235.259,415.206,236.759,413.373C238.259,411.539,239.592,409.873,240.759,407.539C241.925,405.206,242.925,402.206,244.092,399.373C245.259,396.539,246.592,393.873,248.092,391.206C249.592,388.539,251.259,385.873,253.092,383.206C254.925,380.539,256.925,377.873,258.759,375.206C260.592,372.539,262.259,369.873,263.925,367.539C265.592,365.206,267.259,363.206,268.592,360.539C269.925,357.873,270.925,354.539,271.759,351.706C272.592,348.873,273.259,346.539,274.092,343.873C274.925,341.206,275.925,338.206,276.425,335.373C276.925,332.539,276.925,329.873,276.925,327.373C276.925,324.873,276.925,322.539,275.925,321.873C274.925,321.206,272.925,322.206,271.425,323.706C269.925,325.206,268.925,327.206,267.425,330.373C265.925,333.539,263.925,337.873,262.259,341.373C260.592,344.873,259.259,347.539,258.092,350.706C256.925,353.873,255.925,357.539,254.925,360.539C253.925,363.539,252.925,365.873,252.092,368.206C251.259,370.539,250.592,372.873,250.092,375.373C249.592,377.873,249.259,380.539,248.925,383.206C248.592,385.873,248.259,388.539,247.925,391.539C247.592,394.539,247.259,397.873,246.759,400.706C246.259,403.539,245.592,405.873,245.092,408.206C244.592,410.539,244.259,412.873,243.759,415.206C243.259,417.539,242.592,419.873,242.259,422.206C241.925,424.539,241.925,426.873,241.925,426.873C241.925,426.873,241.925,424.539,242.259,422.039C242.592,419.539,243.259,416.873,244.092,414.539C244.925,412.206,245.925,410.206,246.925,407.873C247.925,405.539,248.925,402.873,250.092,400.539C251.259,398.206,252.592,396.206,253.759,394.206C254.925,392.206,255.925,390.206,257.425,388.373C258.925,386.539,260.925,384.873,263.092,383.539C265.259,382.206,267.592,381.206,269.759,381.373C271.925,381.539,273.925,382.873,275.259,384.706C276.592,386.539,277.259,388.873,277.592,391.373C277.925,393.873,277.925,396.539,277.925,399.206C277.925,401.873,277.925,404.539,277.092,407.373C276.259,410.206,274.592,413.206,273.425,416.373C272.259,419.539,271.592,422.873,270.925,425.706C270.259,428.539,269.592,430.873,270.759,431.873C271.925,432.873,274.925,432.539,277.259,431.706C279.592,430.873,281.259,429.539,282.759,428.039C284.259,426.539,285.592,424.873,287.259,422.706C288.925,420.539,290.925,417.873,292.759,415.706C294.592,413.539,296.259,411.873,298.092,409.706C299.925,407.539,301.925,404.873,303.592,402.706C305.259,400.539,306.592,398.873,308.759,396.539C310.925,394.206,313.925,391.206,316.425,389.039C318.925,386.873,320.925,385.539,322.759,384.206C324.592,382.873,326.259,381.539,328.259,380.873C330.259,380.206,332.592,380.206,332.592,380.373C332.592,380.539,330.259,380.873,328.425,381.873C326.592,382.873,325.259,384.539,323.759,386.539C322.259,388.539,320.592,390.873,318.925,393.039C317.259,395.206,315.592,397.206,313.759,399.206C311.925,401.206,309.925,403.206,308.092,405.206C306.259,407.206,304.592,409.206,303.759,411.373C302.925,413.539,302.925,415.873,302.925,418.206C302.925,420.539,302.925,422.873,303.925,425.539C304.925,428.206,306.925,431.206,308.759,433.373C310.592,435.539,312.259,436.873,314.259,437.873C316.259,438.873,318.592,439.539,321.092,439.706C323.592,439.873,326.259,439.539,328.592,438.873C330.925,438.206,332.925,437.206,334.925,435.539C336.925,433.873,338.925,431.539,340.592,428.873C342.259,426.206,343.592,423.206,344.425,420.539C345.259,417.873,345.592,415.539,345.759,413.206C345.925,410.873,345.925,408.539,345.925,405.873C345.925,403.206,345.925,400.206,345.259,397.706C344.592,395.206,343.259,393.206,341.592,391.539C339.925,389.873,337.925,388.539,335.925,387.373C333.925,386.206,331.925,385.206,332.092,384.373C332.259,383.539,334.592,382.873,337.092,382.539C339.592,382.206,342.259,382.206,344.425,383.039C346.592,383.873,348.259,385.539,349.092,387.539C349.925,389.539,349.925,391.873,349.925,394.206C349.925,396.539,349.925,398.873,349.759,401.206C349.592,403.539,349.259,405.873,348.759,408.373C348.259,410.873,347.592,413.539,347.092,416.039C346.592,418.539,346.259,420.873,346.925,423.039C347.592,425.206,349.259,427.206,351.425,428.206C353.592,429.206,356.259,429.206,358.759,428.373C361.259,427.539,363.592,425.873,365.259,423.873C366.925,421.873,367.925,419.539,369.425,417.539C370.925,415.539,372.925,413.873,374.425,411.373C375.925,408.873,376.925,405.539,377.759,402.039C378.592,398.539,379.259,394.873,379.592,391.373C379.925,387.873,379.925,384.539,380.259,380.206C380.592,375.873,381.259,370.539,381.759,365.706C382.259,360.873,382.592,356.539,382.925,352.039C383.259,347.539,383.592,342.873,383.925,339.206C384.259,335.539,384.592,332.873,384.759,330.206C384.925,327.539,384.925,324.873,384.925,326.373C384.925,327.873,384.925,333.539,384.925,338.873C384.925,344.206,384.925,349.206,384.925,352.873C384.925,356.539,384.925,358.873,384.925,362.539C384.925,366.206,384.925,371.206,384.925,376.539C384.925,381.873,384.925,387.539,384.925,391.706C384.925,395.873,384.925,398.539,384.925,402.206C384.925,405.873,384.925,410.539,384.925,415.206C384.925,419.873,384.925,424.539,384.925,429.873C384.925,435.206,384.925,441.206,384.925,445.873C384.925,450.539,384.925,453.873,384.759,458.206C384.592,462.539,384.259,467.873,383.759,471.873C383.259,475.873,382.592,478.539,381.925,477.206C381.259,475.873,380.592,470.539,380.259,465.706C379.925,460.873,379.925,456.539,380.259,453.039C380.592,449.539,381.259,446.873,382.092,443.039C382.925,439.206,383.925,434.206,385.259,429.373C386.592,424.539,388.259,419.873,389.925,415.039C391.592,410.206,393.259,405.206,394.592,401.539C395.925,397.873,396.925,395.539,397.759,393.206C398.592,390.873,399.259,388.539,400.425,386.539C401.592,384.539,403.259,382.873,405.259,381.539C407.259,380.206,409.592,379.206,411.759,378.206C413.925,377.206,415.925,376.206,417.259,377.539C418.592,378.873,419.259,382.539,418.592,385.706C417.925,388.873,415.925,391.539,414.259,394.039C412.592,396.539,411.259,398.873,409.592,401.206C407.925,403.539,405.925,405.873,404.259,407.873C402.592,409.873,401.259,411.539,399.425,412.373C397.592,413.206,395.259,413.206,395.259,413.873C395.259,414.539,397.592,415.873,399.759,417.206C401.925,418.539,403.925,419.873,405.925,421.206C407.925,422.539,409.925,423.873,412.425,425.706C414.925,427.539,417.925,429.873,420.425,431.706C422.925,433.539,424.925,434.873,427.425,435.873C429.925,436.873,432.925,437.539,435.925,438.206C438.925,438.873,441.925,439.539,444.592,439.873C447.259,440.206,449.592,440.206,451.759,439.039C453.925,437.873,455.925,435.539,456.925,433.706C457.925,431.873,457.925,430.539,457.925,429.873L457.925,429.206" stroke-width="9.904596074066864" stroke-linecap="round" stroke-linejoin="round" stroke="#000" fill="none" class="line-14">

</path>
</g><mask id="brush">
<rect x="0" y="0" width="100%" height="100%" fill="black">

</rect><path d="M88.92,112.21L87.15,106.88L92.05,104.01L99.70,99.73L104.13,98.10L109.35,95.07L111.78,93.02L112.25,92.26L116.40,90.26L116.71,89.10L116.77,88.13L117.64,86.06L119.58,82.03L121.77,78.49L123.39,73.69L126.83,67.16L127.44,64.73L128.70,57.64L130.89,51.72L130.45,51.21L130.30,49.21L130.44,48.10L130.83,47.06L131.46,46.14L132.30,45.40L133.29,44.88L134.37,44.62L135.48,44.62L136.57,44.88L137.55,45.40L138.39,46.14L139.02,47.06L139.42,48.10L139.55,49.21L139.50,50.21L138.16,53.51L135.78,55.69L136.60,56.76L135.78,60.43L133.54,65.91L132.76,73.05L129.10,80.84L129.56,83.24L126.96,92.21L125.51,100.60L125.76,104.21L124.26,113.57L123.94,122.21L124.23,126.23L121.97,134.97L121.24,139.87L120.44,144.09L118.34,151.18L116.14,159.03L115.10,161.79L112.08,168.55L110.20,175.10L110.53,179.22L109.64,184.93L109.92,188.21L110.11,191.21L110.30,194.21L110.44,198.21L110.58,200.21L110.72,202.21L110.58,203.35L110.17,204.43L109.51,205.38L108.65,206.15L107.62,206.69L106.50,206.96L105.35,206.96L104.23,206.69L103.20,206.15L102.34,205.38L101.68,204.43L101.27,203.35L101.13,202.21L101.18,201.21L101.09,200.21L100.97,197.21L100.97,192.21L100.85,190.21L100.79,186.21L100.69,184.21L100.61,182.12L101.81,177.59L102.96,174.01L102.85,172.06L104.98,168.26L104.48,169.68L107.26,164.70L106.51,166.21L106.99,164.09L108.68,161.53L107.60,163.21L107.64,162.21L107.75,160.96L109.35,157.18L108.94,158.21L109.03,157.21L109.29,154.99L111.04,151.18L112.59,150.10L111.86,151.21L112.19,149.21L112.78,146.21L112.97,145.21L113.41,143.21L113.64,142.21L113.88,141.21L114.14,140.21L114.40,139.21L114.68,138.21L114.97,137.21L115.92,134.21L115.93,134.21L115.94,134.21L116.88,137.21L117.17,138.21L117.45,139.21L117.71,140.21L117.97,141.21L118.21,142.21L118.44,143.21L118.88,145.21L119.07,146.21L119.67,149.21L120.00,151.21L119.26,154.31L118.56,155.43L118.83,157.21L118.91,158.21L118.10,161.45L118.21,162.21L118.25,163.21L117.17,166.88L117.34,166.21L116.60,169.71L115.37,170.73L114.36,174.00L112.87,176.15L113.44,174.21L112.29,178.46L112.04,180.82L111.24,182.29L111.16,184.21L111.06,186.21L111.00,190.21L110.88,192.21L110.89,197.21L110.76,200.21L110.67,201.21L110.72,202.21L110.58,203.35L110.17,204.43L109.51,205.38L108.65,206.15L107.63,206.69L106.50,206.96L105.35,206.96L104.23,206.69L103.20,206.15L102.34,205.38L101.68,204.43L101.27,203.35L101.13,202.21L101.27,200.21L101.41,198.21L101.55,194.21L101.74,191.21L101.94,188.21L102.21,183.48L103.32,179.19L103.65,173.31L105.77,165.86L108.75,158.62L109.71,157.38L111.51,149.23L113.41,142.33L114.61,138.54L115.88,133.45L117.62,126.18L117.91,122.21L117.59,112.84L118.10,104.20L118.34,99.81L118.89,90.20L120.30,83.17L120.75,77.57L123.09,71.37L123.86,66.19L124.31,62.50L126.07,57.99L127.25,53.65L130.07,48.72L131.69,48.90L130.35,50.21L130.30,49.21L130.44,48.10L130.83,47.06L131.46,46.14L132.30,45.40L133.29,44.88L134.37,44.62L135.48,44.62L136.57,44.88L137.55,45.40L138.39,46.14L139.02,47.06L139.42,48.10L139.55,49.21L139.40,51.21L138.96,54.70L137.15,58.77L136.41,67.68L135.02,71.25L132.46,76.73L130.08,83.92L128.27,86.38L126.21,90.35L125.08,92.29L123.14,95.32L119.45,98.15L117.60,98.15L116.07,99.39L112.50,101.35L105.72,104.31L102.15,104.69L93.80,108.40L88.71,109.53L88.94,112.20Z" fill="white">

</path><path d="M115.92,133.20L120.43,130.57L120.65,129.73L125.33,127.74L127.79,127.39L130.44,125.19L134.93,123.54L136.72,121.68L143.00,119.81L146.03,117.91L148.89,117.35L151.70,116.33L151.87,118.65L155.93,113.95L154.10,114.38L155.05,113.30L158.73,110.71L159.28,109.11L159.87,107.66L163.47,102.87L166.33,98.45L168.41,95.22L170.00,91.24L172.18,86.84L172.80,84.59L173.06,80.10L175.63,76.50L174.45,78.21L174.36,76.21L174.27,74.21L174.21,73.21L174.38,71.84L174.86,70.55L175.65,69.42L176.68,68.50L177.90,67.86L179.24,67.53L180.61,67.53L181.95,67.86L183.17,68.50L184.20,69.42L184.99,70.55L185.48,71.84L185.64,73.21L185.64,74.21L185.63,78.21L185.69,81.21L185.74,84.25L184.54,89.61L183.47,94.29L183.66,95.21L183.40,101.21L183.48,104.21L183.54,105.21L183.60,108.21L183.60,112.21L183.62,114.48L182.16,118.76L181.24,122.81L179.49,125.09L180.67,126.25L179.47,131.62L178.13,134.77L177.53,137.56L177.75,139.21L177.79,142.23L176.54,148.33L175.46,152.59L174.38,156.03L172.12,161.13L172.19,165.21L172.25,167.24L171.00,172.44L171.11,174.21L171.02,177.21L170.89,180.21L170.76,182.44L169.23,186.11L169.47,187.21L169.40,188.21L169.31,189.21L169.22,190.21L169.11,191.21L169.00,192.21L164.93,189.26L166.72,189.72L169.47,191.66L169.61,192.54L168.93,192.01L169.93,192.20L171.06,192.43L173.85,194.12L174.93,194.38L175.93,194.64L176.66,195.02L179.92,193.20L179.93,193.21L179.93,193.21L177.19,197.39L175.93,197.77L174.93,198.03L173.93,198.28L172.00,198.29L170.79,197.98L169.93,198.21L168.93,198.40L166.24,197.88L164.38,196.75L164.93,197.16L160.85,192.21L160.74,191.21L160.63,190.21L160.54,189.21L160.45,188.21L160.38,187.21L160.31,186.21L161.09,181.98L160.96,180.21L160.83,177.21L160.74,174.21L160.85,169.98L161.60,167.17L161.66,165.21L161.73,157.29L163.47,152.39L164.39,149.82L165.31,146.08L166.06,142.18L166.10,139.21L166.32,134.85L167.73,129.64L168.38,128.79L169.18,126.16L170.61,119.60L172.24,113.93L172.25,112.21L172.25,108.21L172.31,105.21L172.37,104.21L172.45,101.21L172.19,95.21L172.38,92.12L173.31,86.80L174.12,84.16L174.16,81.21L174.22,78.21L174.21,74.21L174.21,73.21L174.38,71.84L174.86,70.55L175.65,69.42L176.68,68.50L177.90,67.86L179.24,67.53L180.61,67.53L181.95,67.86L183.17,68.50L184.20,69.42L184.99,70.55L185.48,71.84L185.64,73.21L185.58,74.21L185.50,76.21L185.41,78.21L184.22,81.91L182.79,82.31L183.05,87.82L181.67,91.57L179.85,95.18L177.44,101.19L175.52,103.96L172.38,109.54L169.98,112.75L168.57,115.30L165.12,119.70L162.80,121.11L161.75,122.04L158.03,124.08L155.93,124.46L159.98,121.76L154.15,126.09L148.96,127.06L149.82,126.50L144.85,128.60L141.13,128.73L136.92,130.87L133.41,131.22L128.06,133.02L126.52,132.67L123.20,132.68L121.42,133.85L115.93,133.22Z" fill="white">

</path><path d="M205.92,143.20L206.03,136.61L205.96,135.76L207.04,134.02L207.13,132.41L207.61,132.03L208.17,131.78L208.77,131.67L209.38,131.71L209.97,131.89L210.49,132.21L210.93,132.64L211.24,133.16L211.43,133.75L211.46,134.36L211.35,134.96L211.10,135.52L210.72,136.00L211.71,136.21L212.08,139.36L211.10,142.61L211.60,143.56L209.51,148.13L210.23,147.24L209.41,152.35L208.27,155.37L207.75,157.82L206.64,160.53L205.94,163.87L203.94,166.85L204.19,167.87L204.43,170.21L204.48,171.21L204.53,173.21L204.45,176.47L202.99,180.44L203.53,179.21L203.44,182.21L203.44,183.21L203.28,186.21L203.19,188.21L203.14,189.12L203.49,190.44L204.28,193.22L203.24,191.54L207.93,194.00L211.46,195.50L212.94,195.84L217.25,197.87L218.93,198.34L220.92,198.21L220.93,198.21L220.94,198.21L218.93,200.07L216.60,200.54L212.91,200.57L210.39,200.91L203.92,200.41L202.52,199.47L198.61,198.87L195.57,195.19L196.09,195.63L194.36,193.97L192.71,189.29L192.66,188.21L192.57,186.21L192.41,183.21L192.41,182.21L192.32,179.21L193.40,175.94L193.32,173.21L193.37,171.21L193.42,170.21L193.66,164.55L195.91,159.56L195.91,160.55L197.21,155.88L198.10,154.59L199.58,151.04L200.44,150.06L201.62,147.17L202.34,144.28L204.25,142.85L204.75,139.80L205.77,139.06L206.14,136.21L207.13,132.41L207.61,132.03L208.17,131.78L208.77,131.67L209.38,131.71L209.97,131.89L210.49,132.21L210.93,132.64L211.24,133.16L211.43,133.75L211.46,134.36L211.35,134.96L211.10,135.52L210.72,136.00L210.81,136.39L209.89,136.65L209.82,137.80L205.93,143.21Z" fill="white">

</path><path d="M219.93,108.22L218.57,110.49L218.24,110.61L217.90,110.64L217.55,110.60L217.23,110.47L216.95,110.26L216.73,110.00L216.57,109.69L216.49,109.35L216.50,109.00L216.59,108.67L216.76,108.37L216.99,108.11L217.28,107.92L216.40,108.21L216.24,107.21L216.47,105.21L216.52,104.86L216.64,104.53L216.84,104.24L217.10,104.01L217.41,103.85L217.75,103.76L218.10,103.76L218.44,103.85L218.75,104.01L219.01,104.24L219.21,104.53L219.34,104.86L219.38,105.21L219.20,106.21L218.96,107.44L216.41,109.64L214.93,112.21L214.93,112.21L214.92,112.20L215.45,108.77L216.89,106.97L216.65,106.21L216.47,105.21L216.52,104.86L216.64,104.53L216.84,104.24L217.10,104.01L217.41,103.85L217.75,103.76L218.10,103.76L218.44,103.85L218.75,104.01L219.01,104.24L219.21,104.53L219.34,104.86L219.38,105.21L219.61,107.21L219.45,108.21L218.57,110.49L218.24,110.61L217.90,110.64L217.55,110.60L217.23,110.47L216.95,110.26L216.73,110.00L216.57,109.69L216.49,109.35L216.50,109.00L216.59,108.67L216.76,108.37L216.99,108.11L217.28,107.92L219.92,108.20Z" fill="white">

</path><path d="M264.94,195.21L265.73,201.50L266.19,204.21L266.35,205.21L265.31,207.89L261.89,210.08L258.34,211.93L256.81,213.28L249.51,214.95L245.35,216.17L242.93,215.89L239.93,215.22L239.93,215.21L239.93,215.20L242.93,214.53L244.50,214.24L248.34,211.46L253.04,209.13L255.51,206.49L259.96,204.34L262.54,204.52L261.50,205.21L261.66,204.21L262.12,200.91L264.92,195.20Z" fill="white">

</path><path d="M294.92,118.20L298.47,115.84L299.08,114.86L300.93,114.35L302.93,114.03L305.93,113.58L306.93,113.42L313.93,112.88L319.93,112.46L322.93,112.13L327.93,111.84L331.93,111.59L333.93,111.41L334.93,111.31L335.93,111.21L337.93,111.08L340.93,111.00L344.02,111.38L346.60,112.97L347.18,111.90L352.98,116.05L352.35,116.19L357.72,118.03L364.67,123.15L366.46,124.14L369.37,126.51L370.79,126.37L371.73,125.91L373.39,124.67L375.78,123.02L378.37,122.15L379.49,121.51L382.92,121.20L382.93,121.21L382.93,121.21L380.36,122.90L379.48,124.26L378.07,125.39L376.46,127.74L374.12,130.51L371.06,132.04L369.93,132.17L366.48,131.90L363.39,130.28L361.18,129.27L354.13,126.38L345.50,122.22L344.87,120.36L346.67,122.51L341.25,121.45L341.83,121.04L340.93,121.41L337.93,121.33L335.93,121.20L334.93,121.10L333.93,121.00L331.93,120.82L327.93,120.57L322.93,120.28L319.93,119.95L313.93,119.53L306.93,119.00L305.93,118.83L302.93,118.39L300.77,117.55L299.38,118.57L294.93,118.22Z" fill="white">

</path><path d="M342.94,119.21L344.46,125.22L343.97,129.70L344.47,132.21L344.77,134.25L344.03,138.25L342.32,142.71L342.94,143.21L343.09,144.21L343.44,148.21L343.65,150.28L342.66,154.78L341.95,159.22L340.95,162.79L341.22,165.22L339.85,172.02L339.97,173.22L338.44,180.13L335.70,184.67L335.09,186.52L335.22,187.28L333.78,191.42L333.41,194.00L331.84,196.05L332.50,195.21L332.24,197.21L332.10,198.21L331.58,201.21L331.40,202.21L331.00,204.21L330.78,205.21L330.31,207.21L329.79,209.21L326.93,210.22L326.93,210.21L326.93,210.20L328.06,209.21L327.54,207.21L327.07,205.21L326.86,204.21L326.45,202.21L326.28,201.21L325.75,198.21L325.61,197.21L325.35,195.21L326.44,192.42L325.93,191.21L326.07,188.99L326.64,187.14L326.76,183.89L328.15,179.74L329.41,178.28L329.88,173.19L330.00,170.40L330.63,165.19L330.90,159.62L331.90,157.20L333.19,151.63L334.20,150.13L334.41,148.21L334.76,144.21L334.91,143.21L335.53,139.71L337.82,136.17L339.08,134.16L339.38,132.21L339.88,128.71L341.39,125.19L342.92,119.21Z" fill="white">

</path><path d="M310.93,206.20L315.95,207.84L317.75,208.34L318.39,208.17L321.79,210.34L322.92,211.15L324.21,211.30L327.70,210.77L329.91,212.06L329.93,210.97L331.93,210.71L333.93,210.47L334.93,210.34L338.93,210.07L339.93,209.97L341.93,209.99L342.93,209.99L345.84,210.14L347.46,209.57L349.70,209.43L354.40,207.76L356.87,207.49L358.93,207.05L360.93,207.00L361.93,207.13L362.93,207.27L363.93,207.43L366.22,207.88L370.69,212.20L373.93,215.20L373.93,215.21L373.93,215.22L369.17,214.22L365.64,212.53L363.93,212.98L362.93,213.14L361.93,213.28L360.92,213.37L357.45,214.65L350.39,218.84L346.01,220.27L342.93,220.42L341.93,220.42L339.93,220.44L338.93,220.34L334.93,220.07L333.93,219.94L331.93,219.70L329.93,219.44L325.94,218.35L326.15,217.64L323.93,217.57L321.64,217.11L318.93,215.26L318.06,214.07L317.47,212.24L316.10,212.07L313.90,210.58L310.92,206.21Z" fill="white">

</path><path d="M415.94,112.21L417.51,118.21L418.05,122.21L417.86,125.21L417.48,128.22L415.74,132.40L414.94,136.21L414.93,136.21L414.92,136.21L414.11,132.01L414.38,128.19L413.99,125.21L413.80,122.21L414.34,118.21L415.92,112.21Z" fill="white">

</path><path d="M431.92,194.21L428.60,187.57L428.12,184.21L427.47,178.20L427.99,172.63L427.90,171.83L431.02,166.10L433.74,162.11L434.41,161.92L434.48,159.56L437.79,157.10L442.43,154.45L448.93,154.15L452.91,154.08L456.95,153.22L460.93,153.01L462.93,152.90L464.43,152.99L469.99,155.74L475.00,162.08L476.89,166.50L481.43,174.95L483.76,183.11L484.97,187.19L487.42,194.91L488.56,202.69L488.77,208.21L488.08,218.21L487.79,227.21L488.02,229.21L487.15,235.74L487.15,238.94L484.77,242.13L481.14,242.68L477.79,240.18L476.88,237.27L475.88,235.48L475.50,231.21L475.35,229.21L475.42,223.15L479.44,212.16L481.41,206.80L484.94,197.31L489.51,188.14L490.06,184.45L493.20,178.55L495.49,175.77L496.06,175.40L495.45,174.42L497.13,171.41L500.93,168.01L502.93,167.85L503.93,167.75L504.93,167.66L506.89,167.96L510.29,169.85L513.75,174.35L515.27,176.94L516.61,177.85L518.82,182.66L519.18,186.19L520.02,190.19L520.97,195.22L521.17,199.21L521.00,205.21L520.68,212.21L520.82,215.21L520.54,222.21L520.28,226.19L518.82,227.21L518.68,228.38L518.26,229.48L517.59,230.45L516.71,231.24L515.66,231.79L514.52,232.07L513.33,232.07L512.19,231.78L511.14,231.24L510.26,230.45L509.59,229.48L509.17,228.38L509.03,227.21L509.03,225.21L508.91,222.21L508.80,219.21L509.12,212.21L509.58,204.21L509.43,201.11L513.19,191.79L516.45,186.14L516.90,183.87L517.83,179.85L520.70,175.98L521.62,174.85L524.67,171.87L525.43,171.24L530.93,170.09L531.93,170.02L534.93,169.92L535.93,169.85L538.05,170.24L541.84,172.33L544.53,176.11L545.20,176.79L547.23,185.31L548.10,187.48L549.16,190.45L550.86,193.80L552.23,200.17L552.41,204.19L553.22,208.17L552.94,216.21L553.01,220.21L552.86,226.21L552.74,232.21L552.83,236.21L552.71,242.21L552.68,246.98L553.40,247.23L553.98,252.21L554.03,254.96L554.65,254.36L555.36,254.32L560.26,258.55L555.93,255.62L559.93,255.64L562.78,256.17L561.01,256.26L564.87,253.66L566.99,251.82L567.03,249.96L572.70,241.59L576.75,234.39L578.13,230.76L581.37,224.05L581.92,221.21L581.93,221.21L581.94,221.21L582.48,224.36L581.72,231.65L581.10,236.02L579.15,244.82L576.82,252.46L574.86,258.60L570.98,262.76L568.84,264.15L565.07,266.24L559.93,266.77L555.93,266.79L551.59,261.86L550.49,264.09L547.20,262.05L545.26,259.64L543.82,255.45L543.87,252.21L544.45,251.18L543.17,247.43L543.14,242.21L543.02,236.21L543.11,232.21L542.99,226.21L542.84,220.21L542.91,216.21L542.63,210.24L541.44,204.23L541.62,202.25L540.99,198.62L538.69,193.96L537.75,190.93L536.62,187.10L536.65,183.62L535.32,182.30L534.01,180.09L535.93,180.57L534.93,180.50L531.93,180.40L530.93,180.32L530.43,179.17L529.18,180.54L528.23,179.56L528.63,180.54L527.15,182.43L526.02,182.56L524.95,186.55L523.40,190.27L520.66,194.62L518.42,201.31L518.27,204.21L518.73,212.21L519.05,219.21L518.94,222.21L518.82,225.21L518.82,227.21L518.68,228.38L518.26,229.48L517.59,230.45L516.71,231.24L515.66,231.78L514.52,232.07L513.34,232.07L512.19,231.79L511.14,231.24L510.26,230.45L509.59,229.48L509.17,228.38L509.03,227.21L511.57,224.22L511.31,222.21L511.03,215.21L511.17,212.21L510.85,205.21L510.68,199.21L510.88,197.20L509.83,192.22L509.03,185.75L509.24,184.56L506.58,181.47L506.10,180.06L503.56,176.56L504.93,176.75L503.93,176.66L502.93,176.56L500.93,176.40L504.17,175.25L502.72,177.00L502.40,175.99L501.79,179.01L500.37,180.65L498.65,181.87L495.80,185.96L494.34,190.27L490.91,199.10L488.44,209.61L486.41,214.25L484.43,223.26L484.50,229.21L484.35,231.21L483.97,232.93L484.97,237.14L484.06,236.23L482.71,235.73L481.08,236.28L480.70,237.47L480.70,234.68L481.83,229.20L482.06,227.21L481.77,218.21L481.08,208.21L481.29,203.72L480.43,197.50L476.88,189.22L476.09,185.30L474.43,179.47L466.96,169.91L466.85,168.33L463.86,164.67L462.93,163.51L460.93,163.40L458.90,163.20L452.94,164.33L448.93,164.26L445.43,163.96L444.12,163.72L442.06,165.31L441.37,164.85L437.44,168.49L436.11,168.30L436.84,170.32L433.95,172.58L433.86,173.78L432.38,178.22L431.73,184.21L431.25,186.84L431.94,194.20Z" fill="white">

</path><path d="M69.92,392.21L68.54,386.21L68.37,385.21L68.06,383.21L67.89,382.21L67.44,379.21L67.02,376.16L67.75,372.20L67.18,370.03L69.20,364.27L70.79,362.12L72.95,357.78L76.45,353.76L77.85,351.24L84.23,346.99L89.87,340.67L94.95,337.56L98.94,332.72L105.40,325.99L108.89,323.22L113.27,317.99L117.17,313.00L118.31,311.60L120.84,307.89L122.55,304.94L123.84,303.41L123.88,301.64L125.61,299.77L126.08,298.77L126.77,297.92L127.65,297.26L128.66,296.83L129.74,296.66L130.83,296.75L131.88,297.09L132.80,297.68L133.56,298.47L134.11,299.42L134.42,300.47L134.46,301.57L134.24,302.65L134.45,305.21L134.59,308.28L132.23,315.68L127.52,322.56L127.17,324.61L126.15,330.81L124.59,339.61L124.83,343.21L123.81,349.85L123.91,355.21L124.11,358.21L124.29,361.21L124.46,364.21L124.33,365.29L123.94,366.31L123.32,367.21L122.50,367.94L121.53,368.44L120.47,368.70L119.38,368.70L118.32,368.44L117.35,367.94L116.53,367.21L115.91,366.31L115.53,365.29L115.39,364.21L117.79,360.01L125.90,355.66L128.56,353.65L138.00,348.33L147.01,341.05L152.01,336.82L159.09,330.38L162.65,324.69L164.39,321.51L167.25,317.27L167.53,315.14L167.05,313.21L166.84,310.21L166.78,309.01L169.01,303.47L168.81,301.27L170.26,298.90L170.60,296.88L171.49,296.18L172.53,295.71L173.64,295.51L174.77,295.58L175.86,295.91L176.83,296.50L177.63,297.30L178.22,298.27L178.56,299.36L178.62,300.49L178.42,301.61L177.95,302.64L177.25,303.54L178.23,302.18L175.58,306.22L175.68,309.16L173.39,315.61L172.62,321.16L170.37,326.85L170.68,327.66L168.14,332.84L167.81,336.16L165.48,342.48L162.29,348.14L162.87,349.24L161.80,354.42L160.81,359.23L159.51,362.49L157.59,367.75L156.64,372.98L156.84,375.21L156.84,380.22L155.74,386.15L154.79,392.18L153.76,395.73L152.94,402.19L152.95,406.21L153.03,408.21L152.69,414.21L152.71,416.21L152.74,417.21L152.75,418.21L152.76,419.21L147.93,415.37L148.93,415.38L150.93,415.45L152.93,415.54L153.71,415.64L155.04,414.23L158.13,412.76L160.91,411.75L161.32,410.20L163.11,408.41L165.48,406.24L170.92,402.20L170.93,402.21L170.93,402.21L168.37,408.17L166.53,412.21L164.94,416.67L163.51,417.88L161.72,419.65L160.81,420.18L157.97,423.14L154.14,424.77L152.93,424.87L150.93,424.97L148.93,425.04L147.93,425.04L143.09,419.21L143.10,418.21L143.11,417.21L143.14,416.21L143.16,414.21L142.83,408.21L142.90,406.21L142.91,400.22L143.74,396.19L144.09,392.68L145.06,390.23L145.94,386.19L146.11,384.26L147.01,380.19L147.01,375.21L147.21,371.43L148.26,364.66L150.35,357.92L151.04,357.18L152.05,351.99L152.98,349.17L153.56,344.28L156.38,337.93L157.93,335.97L158.04,334.25L159.71,327.57L161.17,326.75L161.48,323.56L163.24,319.25L164.15,315.19L164.46,312.80L166.17,307.25L168.27,300.19L169.62,300.23L170.60,296.88L171.49,296.18L172.52,295.71L173.64,295.51L174.77,295.58L175.86,295.91L176.83,296.50L177.63,297.30L178.22,298.27L178.56,299.36L178.62,300.49L178.42,301.61L177.95,302.64L177.25,303.53L177.59,303.52L177.04,303.14L176.84,306.94L175.07,309.40L175.01,310.21L174.80,313.21L174.61,315.21L174.32,317.28L172.60,321.14L169.46,324.90L167.20,327.72L162.76,334.03L155.84,341.59L150.84,345.36L141.85,354.08L133.29,360.76L129.95,362.75L124.07,366.41L124.46,364.21L124.33,365.29L123.94,366.31L123.32,367.21L122.50,367.94L121.53,368.44L120.47,368.70L119.38,368.70L118.32,368.44L117.35,367.94L116.53,367.21L115.91,366.31L115.53,365.29L115.39,364.21L115.56,361.21L115.74,358.21L115.94,355.21L116.04,348.57L117.02,343.20L117.26,338.80L117.70,329.60L118.68,321.80L120.33,317.86L123.63,312.73L125.26,308.13L125.40,305.21L125.61,299.77L126.08,298.78L126.77,297.92L127.65,297.27L128.66,296.83L129.74,296.66L130.83,296.75L131.87,297.09L132.80,297.68L133.56,298.47L134.11,299.42L134.42,300.47L134.46,301.57L134.24,302.65L131.97,304.77L130.01,309.01L129.30,309.48L127.02,312.52L123.54,316.81L122.68,317.42L118.58,322.42L112.97,329.19L110.45,330.42L104.91,337.70L98.90,344.85L95.99,345.74L89.62,355.42L86.00,357.18L83.40,360.65L80.90,362.63L76.65,368.15L74.67,370.39L74.43,372.21L74.11,374.21L72.83,376.25L72.41,379.21L71.96,382.21L71.79,383.21L71.48,385.21L71.31,386.21L69.94,392.21Z" fill="white">

</path><path d="M210.92,368.22L203.67,369.05L199.93,369.59L198.93,369.75L195.93,370.16L193.62,370.27L194.48,370.68L194.21,372.13L190.62,375.27L191.12,376.83L188.74,379.61L189.97,380.21L190.16,383.21L190.31,385.21L190.43,388.21L190.46,392.21L190.52,393.21L190.53,397.21L190.43,402.21L190.51,404.12L189.86,403.99L190.78,402.82L195.10,405.44L196.60,406.07L197.86,407.55L198.93,406.36L199.70,406.80L198.73,405.97L202.54,403.33L204.26,400.73L204.66,399.58L206.63,395.11L207.46,391.11L208.56,387.51L208.39,384.21L208.32,381.21L208.26,380.21L208.20,379.21L208.14,378.21L208.08,377.21L209.82,378.13L209.25,379.55L207.14,378.55L205.88,377.04L206.93,378.36L204.64,377.87L200.50,366.79L202.77,365.21L206.93,363.86L207.93,363.82L208.93,363.78L209.93,363.74L210.93,363.70L219.46,370.21L212.93,364.63L220.53,371.21L220.49,371.89L220.88,371.23L221.97,373.53L222.55,377.89L222.95,377.26L224.25,383.97L224.40,386.10L225.08,387.27L225.38,392.21L225.41,393.21L225.43,395.21L225.15,400.21L225.17,401.21L224.99,405.21L224.88,408.21L224.75,411.21L224.43,415.21L224.20,418.21L224.14,419.21L223.79,421.97L223.99,425.29L220.93,424.07L221.93,424.21L223.93,424.54L224.93,424.71L227.93,425.34L228.93,425.55L230.47,426.20L233.43,425.09L233.98,426.21L236.93,425.20L236.93,425.21L236.93,425.22L235.87,426.21L234.42,427.32L233.20,428.52L231.38,430.21L228.93,430.86L227.93,431.07L224.93,431.70L223.93,431.87L221.93,432.20L220.93,432.34L217.54,429.34L215.86,427.13L215.69,426.08L214.06,422.44L213.71,419.21L213.65,418.21L213.42,415.21L213.11,411.21L212.97,408.21L212.86,405.21L212.68,401.21L212.70,400.21L212.42,395.21L212.44,393.21L212.47,392.21L212.77,391.15L211.60,386.45L210.90,383.15L209.30,378.52L209.88,378.88L208.97,377.19L207.36,372.52L207.32,371.21L212.93,377.78L206.39,370.21L210.93,376.71L209.93,376.67L208.93,376.63L207.93,376.59L206.93,376.55L209.35,375.63L206.93,366.05L211.97,367.37L212.71,367.86L214.60,368.86L218.03,372.28L219.77,377.21L219.71,378.21L219.66,379.21L219.59,380.21L219.53,381.21L219.46,384.21L219.29,390.90L218.39,393.31L217.22,399.31L215.19,404.84L213.59,407.68L209.32,413.09L207.12,414.44L202.15,417.62L198.93,418.05L191.99,416.86L191.25,416.34L188.75,414.98L187.07,413.60L181.99,410.42L179.34,404.30L179.42,402.21L179.32,397.21L179.33,393.21L179.39,392.21L179.42,388.21L179.54,385.21L179.69,383.21L179.89,380.21L181.11,374.80L182.73,373.58L185.23,369.14L187.64,368.28L189.37,365.73L192.23,364.14L195.93,364.25L198.93,364.66L199.93,364.83L204.19,365.37L210.93,368.20Z" fill="white">

</path><path d="M226.92,429.21L226.92,427.21L226.93,427.21L226.94,427.21L226.94,429.21Z" fill="white">

</path><path d="M226.92,427.20L228.29,418.58L230.08,414.98L232.57,409.79L236.78,404.48L240.12,401.42L244.53,396.27L249.41,390.86L251.92,388.20L251.93,388.21L251.93,388.21L250.44,391.55L247.32,398.14L243.73,405.00L241.07,407.93L237.28,412.62L233.77,417.44L231.57,419.83L226.93,427.21Z" fill="white">

</path><path d="M226.92,424.20L230.96,418.25L233.34,414.01L235.23,411.51L238.58,406.41L239.69,401.13L240.36,398.00L243.45,392.14L243.83,389.84L244.72,386.58L247.56,382.87L248.88,380.49L251.26,377.87L251.20,376.38L255.28,371.56L256.20,370.51L257.50,368.26L259.22,364.76L262.09,361.39L264.65,358.00L266.28,355.71L265.45,355.17L266.61,349.85L268.97,345.02L268.41,344.06L270.90,337.20L271.66,333.93L271.42,332.21L271.50,327.21L271.57,322.21L271.48,320.21L271.38,318.21L271.32,317.21L271.48,315.86L271.96,314.60L272.73,313.49L273.74,312.59L274.94,311.96L276.25,311.64L277.60,311.64L278.91,311.96L280.11,312.59L281.12,313.49L281.89,314.60L282.37,315.87L282.53,317.21L277.52,323.19L275.41,326.55L272.61,331.55L270.70,336.12L265.84,344.16L261.32,351.90L260.73,354.47L258.49,362.10L255.20,369.49L255.64,370.31L253.52,376.63L252.86,380.98L253.13,383.21L253.29,387.24L252.28,392.32L251.14,395.07L251.69,397.21L251.77,401.29L250.65,405.78L249.82,409.43L248.85,414.17L248.92,415.68L246.41,420.61L247.19,422.21L247.28,425.21L247.31,429.21L247.38,430.21L247.47,432.21L247.54,433.21L241.93,439.88L235.19,434.21L235.12,432.21L235.13,428.21L235.07,426.16L236.27,420.79L237.48,415.23L238.89,411.69L242.22,405.85L244.12,401.29L244.95,398.50L249.86,391.52L251.52,387.28L253.42,384.73L254.99,382.18L258.62,379.59L260.10,378.96L261.78,377.16L264.79,376.21L264.15,375.80L267.93,374.59L269.93,374.51L270.93,374.45L271.93,374.39L274.14,374.84L278.18,377.09L280.23,380.44L282.33,383.39L282.82,384.12L284.14,388.21L284.15,391.21L284.17,394.21L284.21,396.21L284.22,399.21L284.27,401.21L284.31,403.21L284.05,407.79L281.14,413.68L280.57,415.03L278.47,418.94L277.84,421.72L276.51,424.67L277.01,426.31L275.57,431.39L273.82,433.29L275.15,431.21L275.19,433.21L275.24,434.21L275.28,435.21L268.93,429.81L269.93,429.77L270.93,429.73L271.62,429.77L270.98,429.37L273.94,427.39L279.95,422.80L282.57,419.43L285.88,417.34L288.47,412.61L294.52,406.80L296.41,404.72L300.08,399.64L304.42,394.40L307.67,390.95L314.05,385.31L320.78,380.92L324.17,379.63L325.94,376.96L330.93,375.72L332.93,375.58L333.93,375.49L334.93,375.40L335.93,375.32L337.10,375.46L338.20,375.88L339.17,376.55L339.95,377.43L340.50,378.47L340.78,379.62L340.78,380.80L340.50,381.94L339.95,382.98L339.17,383.87L338.20,384.53L337.09,384.95L335.92,385.09L334.93,385.09L331.93,385.22L331.17,385.24L331.01,385.92L330.54,384.87L331.69,385.68L328.79,389.07L327.85,390.13L324.90,393.05L323.36,396.16L319.79,398.88L318.52,402.01L313.63,406.91L311.70,408.98L308.73,411.98L307.58,413.70L308.43,413.21L308.52,415.21L308.61,417.21L308.67,418.21L308.72,421.21L308.79,423.21L308.74,424.77L310.79,427.29L313.39,430.88L314.48,433.17L316.43,433.19L318.95,433.98L320.80,435.66L320.93,434.41L324.88,434.43L327.50,433.64L328.32,433.00L332.27,431.11L334.82,428.13L336.05,426.09L336.33,423.78L337.70,420.59L339.89,417.50L339.03,417.16L340.24,411.83L340.20,408.21L340.12,406.21L340.07,403.21L340.03,400.21L339.99,397.21L339.94,396.21L341.72,397.20L341.11,398.61L338.57,396.56L337.53,395.60L336.51,394.65L334.47,393.40L333.03,392.76L330.54,390.74L330.93,391.61L323.48,385.21L325.42,381.00L331.39,376.47L334.93,375.83L336.93,375.79L339.93,375.79L341.93,375.75L345.23,375.83L349.91,377.47L352.54,379.60L354.13,381.93L354.96,384.84L355.18,383.89L356.58,389.21L356.61,391.21L356.58,394.21L356.34,399.21L356.38,401.23L355.03,407.40L354.66,409.51L352.69,413.14L352.92,415.38L353.10,416.21L353.13,417.31L351.84,422.07L352.19,421.21L352.23,422.21L352.28,423.21L352.32,424.21L352.36,425.21L352.40,426.21L345.93,420.70L347.23,420.73L351.86,422.33L353.56,423.24L355.93,422.85L356.93,422.80L358.93,422.77L359.93,422.73L360.58,423.25L359.30,422.62L360.57,420.61L361.77,419.96L360.95,419.85L363.75,415.94L368.93,410.64L368.56,411.17L366.23,411.52L368.59,409.92L371.54,409.08L369.10,409.53L369.57,407.09L372.14,400.62L371.89,399.16L374.84,389.97L375.76,381.20L376.82,374.52L378.56,364.87L380.11,351.99L379.79,348.20L381.30,337.94L382.07,331.74L381.80,330.21L381.53,327.21L381.28,324.21L381.09,322.21L380.98,321.21L381.09,320.26L381.43,319.37L381.97,318.59L382.68,317.96L383.53,317.51L384.45,317.29L385.40,317.29L386.33,317.51L387.17,317.96L387.88,318.59L388.42,319.37L388.76,320.26L388.87,321.21L388.94,323.21L389.12,327.21L388.34,339.21L387.77,354.21L387.89,361.21L387.44,376.21L387.12,393.21L387.24,401.21L386.97,415.21L386.77,429.21L387.16,435.21L386.92,447.21L386.74,457.21L387.17,462.21L385.91,473.40L384.15,479.91L384.53,481.21L384.81,484.34L382.19,488.59L376.63,486.21L376.48,480.21L376.24,476.21L376.88,465.21L377.35,452.19L379.43,443.58L382.74,428.77L388.06,414.54L389.72,408.47L392.89,399.53L395.78,392.29L396.39,389.36L397.02,385.46L398.05,382.71L399.51,380.79L400.44,379.64L403.18,377.86L406.10,375.51L410.60,374.21L412.99,373.08L413.59,371.51L416.93,370.45L421.06,372.63L423.51,376.43L425.10,381.21L424.63,387.27L421.65,391.90L417.97,396.90L413.70,403.41L410.11,407.38L407.57,410.95L404.63,413.54L405.27,413.19L402.36,417.06L398.93,418.15L396.93,418.27L395.93,418.35L394.93,418.42L393.93,418.50L392.93,418.57L391.64,418.41L390.43,417.95L389.37,417.22L388.51,416.25L387.91,415.11L387.60,413.85L387.60,412.56L387.91,411.30L388.51,410.16L389.37,409.19L390.43,408.46L391.64,408.00L392.93,407.84L394.18,407.90L398.37,409.32L400.48,410.29L403.83,413.17L404.49,413.11L409.28,416.73L414.88,421.04L418.08,425.14L423.21,428.22L428.86,432.60L428.04,431.97L434.33,434.40L436.12,434.18L439.72,435.58L442.82,436.52L444.93,436.61L445.93,436.66L448.93,436.96L449.93,437.05L451.88,437.30L453.03,438.48L454.28,435.38L457.03,432.73L457.92,429.21L457.93,429.21L457.94,429.21L458.82,433.69L457.58,437.03L457.16,438.31L456.82,439.93L451.97,443.11L449.93,443.36L448.93,443.45L445.93,443.75L444.93,443.80L441.03,443.89L436.14,442.83L435.73,442.23L431.52,442.02L427.81,440.44L424.99,439.82L418.65,436.19L409.77,431.27L408.97,429.37L402.57,425.68L399.36,423.30L396.02,421.24L395.37,420.12L393.67,418.51L392.93,418.57L391.64,418.41L390.43,417.95L389.37,417.22L388.51,416.25L387.91,415.11L387.60,413.85L387.60,412.56L387.91,411.31L388.51,410.16L389.37,409.19L390.43,408.46L391.64,408.00L392.93,407.84L393.93,407.92L394.93,407.99L395.93,408.06L396.93,408.14L398.93,408.26L397.49,409.35L396.58,411.22L397.23,408.87L400.28,405.47L403.74,401.03L406.15,399.00L409.88,391.51L414.20,384.51L415.23,385.14L414.75,381.21L415.91,381.74L414.34,379.98L414.79,377.78L416.93,379.96L418.26,378.90L414.86,381.33L415.13,380.71L413.25,382.20L409.75,382.90L408.66,383.03L406.67,384.56L405.41,384.77L403.80,385.70L402.84,386.95L401.46,391.05L400.07,394.12L396.96,400.89L394.14,409.94L391.79,415.87L387.11,429.65L384.42,444.83L382.50,452.22L382.97,465.21L383.61,476.21L383.37,480.21L383.22,486.21L379.66,483.82L379.04,484.07L379.32,481.21L379.70,478.51L381.94,473.01L382.68,462.21L383.11,457.21L382.94,447.21L382.69,435.21L383.08,429.21L382.88,415.21L382.62,401.21L382.73,393.21L382.41,376.21L381.96,361.21L382.08,354.21L381.51,339.21L380.73,327.21L380.91,323.21L380.98,321.21L381.09,320.26L381.43,319.37L381.97,318.59L382.68,317.96L383.53,317.51L384.45,317.29L385.40,317.29L386.33,317.51L387.17,317.96L387.88,318.59L388.42,319.37L388.76,320.26L388.87,321.21L388.76,322.21L388.57,324.21L388.32,327.21L388.05,330.21L387.78,332.67L386.55,338.47L386.06,348.21L385.74,352.42L385.29,365.54L385.03,375.89L384.09,381.22L385.01,392.44L383.96,399.25L383.71,403.79L382.29,411.33L380.96,415.21L378.75,418.88L374.31,421.33L375.62,420.90L371.29,423.24L368.93,423.77L374.10,422.47L372.90,422.56L372.08,426.46L371.28,427.81L368.55,431.79L363.27,435.16L359.93,435.69L358.93,435.65L356.93,435.61L355.93,435.57L348.29,435.18L345.99,434.08L346.62,433.68L345.93,433.72L339.45,426.21L339.49,425.21L339.53,424.21L339.57,423.21L339.62,422.21L339.66,421.21L340.01,418.34L340.72,417.11L340.75,416.21L340.93,413.03L343.16,405.28L343.19,406.91L342.82,405.01L343.47,401.18L343.51,399.21L343.27,394.21L343.24,391.21L343.27,389.21L344.67,390.52L342.90,387.57L343.31,388.82L343.94,388.94L344.62,388.58L341.93,388.66L339.93,388.62L336.93,388.63L334.93,388.59L336.46,387.95L334.43,387.41L336.37,385.21L330.93,378.80L335.47,379.44L338.82,381.65L341.38,383.02L345.34,385.76L346.32,386.81L346.74,387.80L350.13,391.21L351.92,396.21L351.86,397.21L351.82,400.21L351.78,403.21L351.73,406.21L351.65,408.21L351.62,414.58L350.82,417.25L349.96,422.91L348.15,425.83L347.52,426.63L345.80,432.32L343.03,436.28L340.05,439.33L337.58,441.30L333.53,443.42L330.35,444.78L324.97,445.98L320.93,446.00L314.90,444.44L311.42,443.23L305.38,439.24L304.46,437.53L301.06,433.13L297.11,425.64L297.06,423.21L297.13,421.21L297.18,418.21L297.24,417.21L297.33,415.21L297.42,413.21L298.27,408.71L301.13,404.43L304.15,401.43L306.22,399.50L309.33,396.40L314.06,389.53L314.49,390.25L316.95,385.36L320.00,382.28L321.06,381.34L322.16,380.73L325.32,377.54L326.84,376.49L330.69,375.17L331.93,375.19L334.93,375.32L335.92,375.32L337.09,375.46L338.20,375.88L339.17,376.55L339.95,377.43L340.50,378.47L340.78,379.62L340.78,380.80L340.50,381.94L339.95,382.98L339.17,383.87L338.20,384.53L337.10,384.95L335.93,385.09L334.93,385.01L333.93,384.92L332.93,384.83L330.93,384.69L329.91,383.45L327.68,386.78L325.07,387.49L319.80,391.10L314.18,397.46L311.43,400.01L307.77,404.77L303.44,411.69L301.33,413.61L297.38,417.81L291.97,427.07L291.28,426.98L285.90,433.62L284.04,433.62L281.91,437.02L276.87,441.05L272.23,442.65L270.93,442.68L269.93,442.64L268.93,442.60L262.57,435.21L262.61,434.21L262.66,433.21L262.71,431.21L264.28,427.02L264.84,426.11L265.35,419.74L266.01,418.69L267.38,413.47L269.28,409.39L270.71,406.74L271.80,406.62L271.54,403.21L271.58,401.21L271.63,399.21L271.64,396.21L271.68,394.21L271.70,391.21L271.71,388.21L273.03,390.29L271.58,388.41L269.62,385.97L269.67,385.32L271.93,386.02L270.93,385.96L269.93,385.90L267.93,385.82L269.70,384.61L267.06,386.21L266.07,385.25L265.75,387.45L263.23,388.82L262.87,388.23L260.33,391.13L257.99,396.89L254.90,401.92L253.73,405.13L251.63,410.56L248.96,416.72L248.37,417.19L247.58,423.62L246.79,426.25L246.72,428.21L246.74,432.21L246.66,434.21L241.93,428.53L236.31,433.21L236.38,432.21L236.47,430.21L236.54,429.21L236.57,425.21L236.66,422.21L237.44,415.80L238.93,414.73L239.00,412.24L240.03,406.98L241.20,402.63L242.08,401.13L242.16,397.21L242.71,391.35L243.57,390.09L244.57,387.17L244.72,383.21L245.00,379.44L246.33,373.78L248.21,370.11L248.65,366.93L251.36,360.31L253.12,351.94L254.53,348.51L258.01,340.25L261.15,332.29L263.24,326.87L266.44,319.86L269.89,315.18L272.33,313.23L271.32,317.21L271.48,315.87L271.96,314.60L272.73,313.49L273.74,312.59L274.94,311.96L276.25,311.64L277.60,311.64L278.91,311.96L280.11,312.59L281.12,313.49L281.89,314.60L282.37,315.86L282.53,317.21L282.47,318.21L282.38,320.21L282.28,322.21L282.35,327.21L282.43,332.21L282.19,336.48L280.95,341.21L279.44,344.35L278.88,349.39L277.24,352.56L276.40,355.25L275.57,360.70L273.20,364.41L269.76,369.03L268.63,369.66L266.35,374.15L263.65,377.90L262.57,378.85L260.65,380.04L258.59,384.54L256.97,385.93L254.29,389.55L253.13,389.83L252.02,392.57L250.40,396.27L247.49,400.41L246.16,403.28L243.27,410.00L238.62,414.90L236.51,416.40L232.89,420.17L226.93,424.21Z" fill="white">

</path>
</mask>
</svg>