<svg width="800" height="600" viewBox="0 0 800 600" xmlns="http://www.w3.org/2000/svg" xmlns:xlink="http://www.w3.org/1999/xlink" data-cache="1716614222527">
<style>
path.line-0 {
  stroke-dasharray: 521 526;
  stroke-dashoffset: 521;
  animation: draw-0 9226.031072534404ms ease forwards infinite;
}
@keyframes draw-0 {
  0% { stroke-dashoffset: 521; }
  11.30% { stroke-dashoffset: 0; }
  98.33% { stroke-dashoffset: 0; }
  99.06% { stroke-dashoffset: 521; }
  100% { stroke-dashoffset: 521; }
}
path.line-1 {
  stroke-dasharray: 219 224;
  stroke-dashoffset: 219;
  animation: draw-1 9226.031072534404ms ease forwards infinite;
}
@keyframes draw-1 {
  0% { stroke-dashoffset: 219; }
  11.301987960763755% { stroke-dashoffset: 219; }
  16.06% { stroke-dashoffset: 0; }
  98.08% { stroke-dashoffset: 0; }
  98.39% { stroke-dashoffset: 219; }
  100% { stroke-dashoffset: 219; }
}
path.line-2 {
  stroke-dasharray: 370 375;
  stroke-dashoffset: 370;
  animation: draw-2 9226.031072534404ms ease forwards infinite;
}
@keyframes draw-2 {
  0% { stroke-dashoffset: 370; }
  16.056337747557933% { stroke-dashoffset: 370; }
  24.08% { stroke-dashoffset: 0; }
  97.67% { stroke-dashoffset: 0; }
  98.19% { stroke-dashoffset: 370; }
  100% { stroke-dashoffset: 370; }
}
path.line-3 {
  stroke-dasharray: 220 225;
  stroke-dashoffset: 220;
  animation: draw-3 9226.031072534404ms ease forwards infinite;
}
@keyframes draw-3 {
  0% { stroke-dashoffset: 220; }
  24.077109130951513% { stroke-dashoffset: 220; }
  28.85% { stroke-dashoffset: 0; }
  97.42% { stroke-dashoffset: 0; }
  97.73% { stroke-dashoffset: 220; }
  100% { stroke-dashoffset: 220; }
}
path.line-4 {
  stroke-dasharray: 2532 2537;
  stroke-dashoffset: 2532;
  animation: draw-4 9226.031072534404ms ease forwards infinite;
}
@keyframes draw-4 {
  0% { stroke-dashoffset: 2532; }
  28.845207468389923% { stroke-dashoffset: 2532; }
  83.74% { stroke-dashoffset: 0; }
  94.58% { stroke-dashoffset: 0; }
  98.13% { stroke-dashoffset: 2532; }
  100% { stroke-dashoffset: 2532; }
}
</style><rect x="0" y="0" width="800" height="600" fill="#fff">

</rect><g mask="url(#brush)">
<path d="M102.382,348.732L102.382,347.899C102.382,347.066,102.382,345.399,102.382,343.899C102.382,342.399,102.382,341.066,102.548,339.232C102.715,337.399,103.048,335.066,103.715,333.066C104.382,331.066,105.382,329.399,106.882,327.232C108.382,325.066,110.382,322.399,112.048,320.066C113.715,317.732,115.048,315.732,116.382,314.232C117.715,312.732,119.048,311.732,120.882,310.066C122.715,308.399,125.048,306.066,127.215,303.732C129.382,301.399,131.382,299.066,133.048,297.566C134.715,296.066,136.048,295.399,137.882,294.399C139.715,293.399,142.048,292.066,144.048,290.732C146.048,289.399,147.715,288.066,149.548,286.399C151.382,284.732,153.382,282.732,154.882,280.899C156.382,279.066,157.382,277.399,158.548,276.066C159.715,274.732,161.048,273.732,162.548,272.399C164.048,271.066,165.715,269.399,167.215,267.566C168.715,265.732,170.048,263.732,171.215,262.232C172.382,260.732,173.382,259.732,174.548,258.399C175.715,257.066,177.048,255.399,178.382,253.399C179.715,251.399,181.048,249.066,182.382,246.732C183.715,244.399,185.048,242.066,186.215,240.066C187.382,238.066,188.382,236.399,188.382,236.399C188.382,236.399,187.382,238.066,186.382,240.732C185.382,243.399,184.382,247.066,183.382,250.232C182.382,253.399,181.382,256.066,180.548,259.232C179.715,262.399,179.048,266.066,178.715,269.066C178.382,272.066,178.382,274.399,178.382,276.232C178.382,278.066,178.382,279.399,178.382,281.066C178.382,282.732,178.382,284.732,178.382,286.399C178.382,288.066,178.382,289.399,178.382,290.899C178.382,292.399,178.382,294.066,178.382,295.566C178.382,297.066,178.382,298.399,178.382,299.732C178.382,301.066,178.382,302.399,178.882,303.566C179.382,304.732,180.382,305.732,182.215,305.399C184.048,305.066,186.715,303.399,189.382,301.566C192.048,299.732,194.715,297.732,197.548,295.399C200.382,293.066,203.382,290.399,205.715,288.399C208.048,286.399,209.715,285.066,211.548,283.232C213.382,281.399,215.382,279.066,217.048,276.899C218.715,274.732,220.048,272.732,222.048,270.566C224.048,268.399,226.715,266.066,229.048,264.066C231.382,262.066,233.382,260.399,235.548,258.066C237.715,255.732,240.048,252.732,242.048,250.232C244.048,247.732,245.715,245.732,246.715,244.066C247.715,242.399,248.048,241.066,248.715,239.566C249.382,238.066,250.382,236.399,249.715,237.232C249.048,238.066,246.715,241.399,244.215,244.732C241.715,248.066,239.048,251.399,237.048,254.066C235.048,256.732,233.715,258.732,232.048,261.399C230.382,264.066,228.382,267.399,226.548,270.566C224.715,273.732,223.048,276.732,221.882,278.899C220.715,281.066,220.048,282.399,219.215,284.232C218.382,286.066,217.382,288.399,216.382,290.566C215.382,292.732,214.382,294.732,213.715,296.732C213.048,298.732,212.715,300.732,212.382,302.399C212.048,304.066,211.715,305.399,211.048,307.232C210.382,309.066,209.382,311.399,208.548,313.732C207.715,316.066,207.048,318.399,206.215,320.732C205.382,323.066,204.382,325.399,203.715,327.232C203.048,329.066,202.715,330.399,202.382,332.066C202.048,333.732,201.715,335.732,201.548,337.566C201.382,339.399,201.382,341.066,201.382,343.232C201.382,345.399,201.382,348.066,201.382,350.232C201.382,352.399,201.382,354.066,201.382,355.732C201.382,357.399,201.382,359.066,202.215,360.566C203.048,362.066,204.715,363.399,206.715,364.566C208.715,365.732,211.048,366.732,213.382,367.399C215.715,368.066,218.048,368.399,220.048,368.899C222.048,369.399,223.715,370.066,226.382,370.399C229.048,370.732,232.715,370.732,235.382,370.732C238.048,370.732,239.715,370.732,240.882,370.732C242.048,370.732,242.715,370.732,243.048,370.732L243.382,370.732" stroke-width="10" stroke-linecap="round" stroke-linejoin="round" stroke="#000" fill="none" class="line-0">

</path><path d="M287.382,318.732L286.715,318.566C286.048,318.399,284.715,318.066,283.215,317.899C281.715,317.732,280.048,317.732,278.382,317.899C276.715,318.066,275.048,318.399,273.548,318.899C272.048,319.399,270.715,320.066,269.215,320.899C267.715,321.732,266.048,322.732,264.548,323.732C263.048,324.732,261.715,325.732,260.382,326.732C259.048,327.732,257.715,328.732,256.882,329.899C256.048,331.066,255.715,332.399,255.382,334.066C255.048,335.732,254.715,337.732,254.548,339.399C254.382,341.066,254.382,342.399,254.382,343.732C254.382,345.066,254.382,346.399,254.548,347.732C254.715,349.066,255.048,350.399,255.715,351.566C256.382,352.732,257.382,353.732,258.548,354.399C259.715,355.066,261.048,355.399,262.382,355.566C263.715,355.732,265.048,355.732,266.382,355.732C267.715,355.732,269.048,355.732,270.382,355.566C271.715,355.399,273.048,355.066,274.382,354.899C275.715,354.732,277.048,354.732,278.382,354.399C279.715,354.066,281.048,353.399,282.215,352.566C283.382,351.732,284.382,350.732,285.215,349.566C286.048,348.399,286.715,347.066,287.382,345.399C288.048,343.732,288.715,341.732,289.215,340.066C289.715,338.399,290.048,337.066,290.382,335.732C290.715,334.399,291.048,333.066,291.215,331.566C291.382,330.066,291.382,328.399,291.382,326.899C291.382,325.399,291.382,324.066,290.715,323.066C290.048,322.066,288.715,321.399,287.382,320.899C286.048,320.399,284.715,320.066,284.715,319.899C284.715,319.732,286.048,319.732,287.215,320.232C288.382,320.732,289.382,321.732,289.882,323.066C290.382,324.399,290.382,326.066,290.382,327.732C290.382,329.399,290.382,331.066,290.382,332.566C290.382,334.066,290.382,335.399,290.382,336.732C290.382,338.066,290.382,339.399,290.048,340.899C289.715,342.399,289.048,344.066,288.382,345.566C287.715,347.066,287.048,348.399,286.715,349.732C286.382,351.066,286.382,352.399,286.382,353.899C286.382,355.399,286.382,357.066,286.882,358.399C287.382,359.732,288.382,360.732,289.548,361.232C290.715,361.732,292.048,361.732,293.382,361.732C294.715,361.732,296.048,361.732,297.382,361.732C298.715,361.732,300.048,361.732,301.382,361.566C302.715,361.399,304.048,361.066,305.048,360.232C306.048,359.399,306.715,358.066,307.548,356.899C308.382,355.732,309.382,354.732,310.382,353.899C311.382,353.066,312.382,352.399,312.882,352.066L313.382,351.732" stroke-width="10" stroke-linecap="round" stroke-linejoin="round" stroke="#000" fill="none" class="line-1">

</path><path d="M314.382,332.732L314.882,331.899C315.382,331.066,316.382,329.399,317.548,328.232C318.715,327.066,320.048,326.399,322.382,325.232C324.715,324.066,328.048,322.399,330.548,321.066C333.048,319.732,334.715,318.732,336.215,318.066C337.715,317.399,339.048,317.066,340.548,316.232C342.048,315.399,343.715,314.066,345.715,313.066C347.715,312.066,350.048,311.399,351.882,310.566C353.715,309.732,355.048,308.732,356.382,307.566C357.715,306.399,359.048,305.066,360.548,303.732C362.048,302.399,363.715,301.066,365.382,299.899C367.048,298.732,368.715,297.732,369.715,296.566C370.715,295.399,371.048,294.066,371.882,292.566C372.715,291.066,374.048,289.399,374.882,287.899C375.715,286.399,376.048,285.066,376.382,283.566C376.715,282.066,377.048,280.399,377.215,278.732C377.382,277.066,377.382,275.399,377.382,273.899C377.382,272.399,377.382,271.066,376.382,270.399C375.382,269.732,373.382,269.732,371.715,270.232C370.048,270.732,368.715,271.732,367.382,272.566C366.048,273.399,364.715,274.066,363.048,275.232C361.382,276.399,359.382,278.066,357.715,279.399C356.048,280.732,354.715,281.732,353.215,283.232C351.715,284.732,350.048,286.732,348.548,288.566C347.048,290.399,345.715,292.066,344.548,293.732C343.382,295.399,342.382,297.066,341.715,298.732C341.048,300.399,340.715,302.066,340.215,303.732C339.715,305.399,339.048,307.066,338.215,309.066C337.382,311.066,336.382,313.399,335.215,315.899C334.048,318.399,332.715,321.066,331.548,323.566C330.382,326.066,329.382,328.399,328.882,330.232C328.382,332.066,328.382,333.399,328.048,334.899C327.715,336.399,327.048,338.066,326.215,339.899C325.382,341.732,324.382,343.732,323.548,345.566C322.715,347.399,322.048,349.066,321.548,350.566C321.048,352.066,320.715,353.399,320.382,354.899C320.048,356.399,319.715,358.066,319.382,359.566C319.048,361.066,318.715,362.399,318.215,363.732C317.715,365.066,317.048,366.399,316.215,367.899C315.382,369.399,314.382,371.066,314.215,371.232C314.048,371.399,314.715,370.066,315.548,368.232C316.382,366.399,317.382,364.066,318.882,361.732C320.382,359.399,322.382,357.066,323.882,355.232C325.382,353.399,326.382,352.066,327.882,350.066C329.382,348.066,331.382,345.399,333.215,343.232C335.048,341.066,336.715,339.399,338.715,337.732C340.715,336.066,343.048,334.399,344.882,333.399C346.715,332.399,348.048,332.066,349.382,331.899C350.715,331.732,352.048,331.732,353.048,332.732C354.048,333.732,354.715,335.732,355.048,337.899C355.382,340.066,355.382,342.399,355.382,344.399C355.382,346.399,355.382,348.066,355.382,349.899C355.382,351.732,355.382,353.732,355.048,355.399C354.715,357.066,354.048,358.399,353.548,359.732C353.048,361.066,352.715,362.399,352.382,363.732C352.048,365.066,351.715,366.399,351.548,367.732C351.382,369.066,351.382,370.399,351.882,371.566C352.382,372.732,353.382,373.732,355.048,373.399C356.715,373.066,359.048,371.399,360.882,370.066C362.715,368.732,364.048,367.732,365.715,366.232C367.382,364.732,369.382,362.732,370.882,361.066C372.382,359.399,373.382,358.066,374.215,356.899C375.048,355.732,375.715,354.732,376.048,354.232L376.382,353.732" stroke-width="10" stroke-linecap="round" stroke-linejoin="round" stroke="#000" fill="none" class="line-2">

</path><path d="M414.382,343.732L414.382,343.066C414.382,342.399,414.382,341.066,413.715,340.066C413.048,339.066,411.715,338.399,410.382,338.232C409.048,338.066,407.715,338.399,406.382,338.899C405.048,339.399,403.715,340.066,402.548,341.232C401.382,342.399,400.382,344.066,399.382,345.399C398.382,346.732,397.382,347.732,396.382,348.732C395.382,349.732,394.382,350.732,393.382,352.066C392.382,353.399,391.382,355.066,390.548,356.732C389.715,358.399,389.048,360.066,388.215,361.566C387.382,363.066,386.382,364.399,385.715,365.899C385.048,367.399,384.715,369.066,384.548,370.566C384.382,372.066,384.382,373.399,384.382,374.899C384.382,376.399,384.382,378.066,384.382,379.566C384.382,381.066,384.382,382.399,385.548,383.399C386.715,384.399,389.048,385.066,391.215,384.899C393.382,384.732,395.382,383.732,397.048,382.899C398.715,382.066,400.048,381.399,401.215,380.566C402.382,379.732,403.382,378.732,404.215,377.566C405.048,376.399,405.715,375.066,406.382,373.732C407.048,372.399,407.715,371.066,408.382,369.566C409.048,368.066,409.715,366.399,410.548,364.899C411.382,363.399,412.382,362.066,413.048,360.732C413.715,359.399,414.048,358.066,414.715,356.232C415.382,354.399,416.382,352.066,417.215,350.232C418.048,348.399,418.715,347.066,419.215,345.732C419.715,344.399,420.048,343.066,419.715,343.232C419.382,343.399,418.382,345.066,417.382,346.732C416.382,348.399,415.382,350.066,414.715,351.566C414.048,353.066,413.715,354.399,413.048,356.399C412.382,358.399,411.382,361.066,410.215,363.399C409.048,365.732,407.715,367.732,407.048,369.399C406.382,371.066,406.382,372.399,406.382,373.899C406.382,375.399,406.382,377.066,407.382,378.232C408.382,379.399,410.382,380.066,412.215,380.399C414.048,380.732,415.715,380.732,417.215,380.732C418.715,380.732,420.048,380.732,421.382,380.566C422.715,380.399,424.048,380.066,425.382,379.566C426.715,379.066,428.048,378.399,429.215,377.566C430.382,376.732,431.382,375.732,432.382,374.399C433.382,373.066,434.382,371.399,435.382,369.566C436.382,367.732,437.382,365.732,437.882,364.732L438.382,363.732" stroke-width="10" stroke-linecap="round" stroke-linejoin="round" stroke="#000" fill="none" class="line-3">

</path><path d="M442.382,353.732L443.382,353.066C444.382,352.399,446.382,351.066,448.715,349.899C451.048,348.732,453.715,347.732,456.548,346.732C459.382,345.732,462.382,344.732,464.715,343.899C467.048,343.066,468.715,342.399,470.715,341.566C472.715,340.732,475.048,339.732,477.048,338.732C479.048,337.732,480.715,336.732,483.048,335.232C485.382,333.732,488.382,331.732,490.715,330.066C493.048,328.399,494.715,327.066,497.048,325.399C499.382,323.732,502.382,321.732,504.382,320.066C506.382,318.399,507.382,317.066,509.048,315.066C510.715,313.066,513.048,310.399,515.048,308.066C517.048,305.732,518.715,303.732,519.715,302.066C520.715,300.399,521.048,299.066,521.548,297.566C522.048,296.066,522.715,294.399,523.382,292.899C524.048,291.399,524.715,290.066,525.048,288.732C525.382,287.399,525.382,286.066,525.382,284.732C525.382,283.399,525.382,282.066,524.715,280.732C524.048,279.399,522.715,278.066,521.382,277.232C520.048,276.399,518.715,276.066,516.548,275.899C514.382,275.732,511.382,275.732,508.882,275.732C506.382,275.732,504.382,275.732,502.715,276.232C501.048,276.732,499.715,277.732,498.548,278.899C497.382,280.066,496.382,281.399,495.048,282.899C493.715,284.399,492.048,286.066,490.715,287.732C489.382,289.399,488.382,291.066,487.548,292.732C486.715,294.399,486.048,296.066,485.215,298.066C484.382,300.066,483.382,302.399,482.215,305.232C481.048,308.066,479.715,311.399,478.548,314.399C477.382,317.399,476.382,320.066,475.215,323.066C474.048,326.066,472.715,329.399,471.382,332.399C470.048,335.399,468.715,338.066,467.382,340.899C466.048,343.732,464.715,346.732,463.715,349.066C462.715,351.399,462.048,353.066,461.215,355.232C460.382,357.399,459.382,360.066,458.548,362.399C457.715,364.732,457.048,366.732,456.215,369.232C455.382,371.732,454.382,374.732,453.382,377.066C452.382,379.399,451.382,381.066,450.882,382.732C450.382,384.399,450.382,386.066,450.048,387.566C449.715,389.066,449.048,390.399,448.215,392.066C447.382,393.732,446.382,395.732,445.382,398.232C444.382,400.732,443.382,403.732,442.548,406.066C441.715,408.399,441.048,410.066,440.548,411.566C440.048,413.066,439.715,414.399,439.548,413.566C439.382,412.732,439.382,409.732,440.215,406.066C441.048,402.399,442.715,398.066,444.215,394.399C445.715,390.732,447.048,387.732,448.048,385.566C449.048,383.399,449.715,382.066,450.715,380.066C451.715,378.066,453.048,375.399,454.548,373.066C456.048,370.732,457.715,368.732,459.048,367.232C460.382,365.732,461.382,364.732,462.548,363.232C463.715,361.732,465.048,359.732,466.382,358.066C467.715,356.399,469.048,355.066,470.215,353.566C471.382,352.066,472.382,350.399,473.715,349.066C475.048,347.732,476.715,346.732,478.215,345.732C479.715,344.732,481.048,343.732,482.548,342.732C484.048,341.732,485.715,340.732,487.215,339.899C488.715,339.066,490.048,338.399,490.882,338.732C491.715,339.066,492.048,340.399,492.215,341.899C492.382,343.399,492.382,345.066,492.382,347.066C492.382,349.066,492.382,351.399,491.882,353.732C491.382,356.066,490.382,358.399,489.382,360.066C488.382,361.732,487.382,362.732,486.048,364.399C484.715,366.066,483.048,368.399,481.215,370.399C479.382,372.399,477.382,374.066,475.548,375.732C473.715,377.399,472.048,379.066,470.382,380.399C468.715,381.732,467.048,382.732,465.382,383.566C463.715,384.399,462.048,385.066,460.048,385.399C458.048,385.732,455.715,385.732,453.882,385.732C452.048,385.732,450.715,385.732,449.382,385.732C448.048,385.732,446.715,385.732,445.382,385.732C444.048,385.732,442.715,385.732,442.882,385.899C443.048,386.066,444.715,386.399,446.548,387.066C448.382,387.732,450.382,388.732,452.048,389.899C453.715,391.066,455.048,392.399,456.215,393.566C457.382,394.732,458.382,395.732,459.548,396.732C460.715,397.732,462.048,398.732,463.548,399.566C465.048,400.399,466.715,401.066,468.215,401.732C469.715,402.399,471.048,403.066,472.548,403.399C474.048,403.732,475.715,403.732,477.382,403.732C479.048,403.732,480.715,403.732,482.882,403.399C485.048,403.066,487.715,402.399,490.548,401.899C493.382,401.399,496.382,401.066,498.715,400.732C501.048,400.399,502.715,400.066,505.048,399.399C507.382,398.732,510.382,397.732,513.215,397.066C516.048,396.399,518.715,396.066,520.882,395.399C523.048,394.732,524.715,393.732,526.215,392.732C527.715,391.732,529.048,390.732,530.882,389.566C532.715,388.399,535.048,387.066,536.882,385.732C538.715,384.399,540.048,383.066,542.048,380.899C544.048,378.732,546.715,375.732,548.882,373.066C551.048,370.399,552.715,368.066,554.048,366.232C555.382,364.399,556.382,363.066,558.048,361.066C559.715,359.066,562.048,356.399,564.382,353.399C566.715,350.399,569.048,347.066,570.882,344.566C572.715,342.066,574.048,340.399,575.548,337.732C577.048,335.066,578.715,331.399,580.048,328.732C581.382,326.066,582.382,324.399,583.548,321.732C584.715,319.066,586.048,315.399,587.382,312.732C588.715,310.066,590.048,308.399,591.048,306.732C592.048,305.066,592.715,303.399,593.548,301.566C594.382,299.732,595.382,297.732,596.215,295.732C597.048,293.732,597.715,291.732,598.215,289.732C598.715,287.732,599.048,285.732,599.382,283.899C599.715,282.066,600.048,280.399,600.548,278.232C601.048,276.066,601.715,273.399,602.215,271.232C602.715,269.066,603.048,267.399,603.215,265.566C603.382,263.732,603.382,261.732,603.382,259.732C603.382,257.732,603.382,255.732,603.382,253.566C603.382,251.399,603.382,249.066,603.048,247.066C602.715,245.066,602.048,243.399,601.382,241.399C600.715,239.399,600.048,237.066,599.382,235.232C598.715,233.399,598.048,232.066,597.215,230.566C596.382,229.066,595.382,227.399,594.548,225.566C593.715,223.732,593.048,221.732,592.382,219.899C591.715,218.066,591.048,216.399,590.215,215.066C589.382,213.732,588.382,212.732,585.215,209.899C582.048,207.066,576.715,202.399,571.548,198.732C566.382,195.066,561.382,192.399,557.882,190.732C554.382,189.066,552.382,188.399,550.215,187.399C548.048,186.399,545.715,185.066,543.215,184.066C540.715,183.066,538.048,182.399,536.048,181.732C534.048,181.066,532.715,180.399,531.048,179.566C529.382,178.732,527.382,177.732,525.548,176.899C523.715,176.066,522.048,175.399,520.382,174.732C518.715,174.066,517.048,173.399,514.715,172.566C512.382,171.732,509.382,170.732,506.548,169.732C503.715,168.732,501.048,167.732,498.715,166.899C496.382,166.066,494.382,165.399,492.048,164.566C489.715,163.732,487.048,162.732,484.382,161.732C481.715,160.732,479.048,159.732,476.882,158.899C474.715,158.066,473.048,157.399,471.215,156.899C469.382,156.399,467.382,156.066,465.382,155.566C463.382,155.066,461.382,154.399,458.382,153.566C455.382,152.732,451.382,151.732,448.382,151.066C445.382,150.399,443.382,150.066,441.715,149.899C440.048,149.732,438.715,149.732,436.715,149.399C434.715,149.066,432.048,148.399,429.215,147.899C426.382,147.399,423.382,147.066,420.882,146.899C418.382,146.732,416.382,146.732,413.548,146.399C410.715,146.066,407.048,145.399,402.715,144.732C398.382,144.066,393.382,143.399,389.548,142.732C385.715,142.066,383.048,141.399,379.382,140.899C375.715,140.399,371.048,140.066,366.715,139.732C362.382,139.399,358.382,139.066,355.382,138.732C352.382,138.399,350.382,138.066,347.215,137.399C344.048,136.732,339.715,135.732,335.382,134.899C331.048,134.066,326.715,133.399,323.382,133.066C320.048,132.732,317.715,132.732,314.215,132.566C310.715,132.399,306.048,132.066,302.715,131.732C299.382,131.399,297.382,131.066,294.715,130.732C292.048,130.399,288.715,130.066,285.548,129.899C282.382,129.732,279.382,129.732,276.548,129.566C273.715,129.399,271.048,129.066,269.048,128.899C267.048,128.732,265.715,128.732,263.548,128.732C261.382,128.732,258.382,128.732,254.882,128.732C251.382,128.732,247.382,128.732,244.382,128.566C241.382,128.399,239.382,128.066,236.548,127.899C233.715,127.732,230.048,127.732,226.048,127.732C222.048,127.732,217.715,127.732,214.548,127.732C211.382,127.732,209.382,127.732,207.048,127.732C204.715,127.732,202.048,127.732,199.715,127.732C197.382,127.732,195.382,127.732,193.382,127.732C191.382,127.732,189.382,127.732,187.548,127.732C185.715,127.732,184.048,127.732,182.382,127.732C180.715,127.732,179.048,127.732,177.215,128.066C175.382,128.399,173.382,129.066,171.715,129.566C170.048,130.066,168.715,130.399,166.548,130.899C164.382,131.399,161.382,132.066,158.382,132.899C155.382,133.732,152.382,134.732,150.048,135.399C147.715,136.066,146.048,136.399,143.715,137.066C141.382,137.732,138.382,138.732,135.382,139.732C132.382,140.732,129.382,141.732,126.548,142.732C123.715,143.732,121.048,144.732,119.048,145.399C117.048,146.066,115.715,146.399,114.215,146.899C112.715,147.399,111.048,148.066,109.548,149.066C108.048,150.066,106.715,151.399,105.048,152.566C103.382,153.732,101.382,154.732,99.715,155.732C98.048,156.732,96.715,157.732,95.548,158.732C94.382,159.732,93.382,160.732,92.215,161.732C91.048,162.732,89.715,163.732,88.048,165.066C86.382,166.399,84.382,168.066,82.715,169.399C81.048,170.732,79.715,171.732,78.048,172.899C76.382,174.066,74.382,175.399,72.715,176.899C71.048,178.399,69.715,180.066,67.382,182.232C65.048,184.399,61.715,187.066,59.215,189.399C56.715,191.732,55.048,193.732,53.215,195.732C51.382,197.732,49.382,199.732,47.548,201.566C45.715,203.399,44.048,205.066,42.382,206.732C40.715,208.399,39.048,210.066,37.882,211.732C36.715,213.399,36.048,215.066,35.048,216.899C34.048,218.732,32.715,220.732,31.548,222.566C30.382,224.399,29.382,226.066,27.882,228.399C26.382,230.732,24.382,233.732,23.048,236.399C21.715,239.066,21.048,241.399,19.882,244.232C18.715,247.066,17.048,250.399,15.882,252.899C14.715,255.399,14.048,257.066,13.548,258.566C13.048,260.066,12.715,261.399,12.048,263.566C11.382,265.732,10.382,268.732,9.382,271.899C8.382,275.066,7.382,278.399,6.715,281.066C6.048,283.732,5.715,285.732,5.548,288.732C5.382,291.732,5.382,295.732,5.215,299.732C5.048,303.732,4.715,307.732,4.548,310.566C4.382,313.399,4.382,315.066,4.382,316.732C4.382,318.399,4.382,320.066,4.382,321.566C4.382,323.066,4.382,324.399,4.382,326.066C4.382,327.732,4.382,329.732,4.382,331.566C4.382,333.399,4.382,335.066,4.382,336.566C4.382,338.066,4.382,339.399,4.382,341.066C4.382,342.732,4.382,344.732,4.715,346.399C5.048,348.066,5.715,349.399,6.215,350.899C6.715,352.399,7.048,354.066,7.548,355.732C8.048,357.399,8.715,359.066,9.548,361.066C10.382,363.066,11.382,365.399,12.382,367.399C13.382,369.399,14.382,371.066,15.882,373.399C17.382,375.732,19.382,378.732,20.882,381.232C22.382,383.732,23.382,385.732,25.382,388.732C27.382,391.732,30.382,395.732,33.715,399.732C37.048,403.732,40.715,407.732,43.382,410.899C46.048,414.066,47.715,416.399,50.715,419.566C53.715,422.732,58.048,426.732,62.048,430.566C66.048,434.399,69.715,438.066,72.215,440.732C74.715,443.399,76.048,445.066,78.048,447.066C80.048,449.066,82.715,451.399,85.048,453.566C87.382,455.732,89.382,457.732,92.548,460.232C95.715,462.732,100.048,465.732,103.715,468.399C107.382,471.066,110.382,473.399,112.548,475.066C114.715,476.732,116.048,477.732,118.382,479.066C120.715,480.399,124.048,482.066,126.882,483.899C129.715,485.732,132.048,487.732,133.882,489.399C135.715,491.066,137.048,492.399,139.548,494.066C142.048,495.732,145.715,497.732,149.715,499.899C153.715,502.066,158.048,504.399,161.548,506.399C165.048,508.399,167.715,510.066,171.548,512.066C175.382,514.066,180.382,516.399,185.382,518.732C190.382,521.066,195.382,523.399,199.382,525.232C203.382,527.066,206.382,528.399,211.215,530.399C216.048,532.399,222.715,535.066,230.215,537.732C237.715,540.399,246.048,543.066,252.048,544.899C258.048,546.732,261.715,547.732,266.548,549.232C271.382,550.732,277.382,552.732,283.048,554.566C288.715,556.399,294.048,558.066,299.715,559.566C305.382,561.066,311.382,562.399,315.548,563.232C319.715,564.066,322.048,564.399,324.382,564.732C326.715,565.066,329.048,565.399,331.548,565.732C334.048,566.066,336.715,566.399,341.215,566.899C345.715,567.399,352.048,568.066,359.382,568.732C366.715,569.399,375.048,570.066,381.382,570.566C387.715,571.066,392.048,571.399,397.715,571.732C403.382,572.066,410.382,572.399,416.048,572.566C421.715,572.732,426.048,572.732,429.048,572.732C432.048,572.732,433.715,572.732,436.715,572.399C439.715,572.066,444.048,571.399,448.382,570.732C452.715,570.066,457.048,569.399,460.382,568.899C463.715,568.399,466.048,568.066,470.215,567.399C474.382,566.732,480.382,565.732,486.048,564.232C491.715,562.732,497.048,560.732,500.882,559.232C504.715,557.732,507.048,556.732,510.715,555.732C514.382,554.732,519.382,553.732,524.548,552.232C529.715,550.732,535.048,548.732,539.215,547.232C543.382,545.732,546.382,544.732,550.715,543.066C555.048,541.399,560.715,539.066,567.548,536.232C574.382,533.399,582.382,530.066,588.548,527.566C594.715,525.066,599.048,523.399,604.715,520.399C610.382,517.399,617.382,513.066,624.382,507.732C631.382,502.399,638.382,496.066,643.382,491.399C648.382,486.732,651.382,483.732,655.715,479.566C660.048,475.399,665.715,470.066,670.882,465.066C676.048,460.066,680.715,455.399,684.215,451.732C687.715,448.066,690.048,445.399,693.382,441.566C696.715,437.732,701.048,432.732,704.715,428.066C708.382,423.399,711.382,419.066,713.548,415.899C715.715,412.732,717.048,410.732,718.548,407.566C720.048,404.399,721.715,400.066,723.382,395.732C725.048,391.399,726.715,387.066,727.715,383.732C728.715,380.399,729.048,378.066,730.215,374.232C731.382,370.399,733.382,365.066,735.215,359.232C737.048,353.399,738.715,347.066,739.882,342.899C741.048,338.732,741.715,336.732,742.715,334.399C743.715,332.066,745.048,329.399,746.048,327.066C747.048,324.732,747.715,322.732,748.382,320.399C749.048,318.066,749.715,315.399,750.215,313.232C750.715,311.066,751.048,309.399,751.382,307.232C751.715,305.066,752.048,302.399,752.215,300.232C752.382,298.066,752.382,296.399,752.548,294.899C752.715,293.399,753.048,292.066,753.215,290.232C753.382,288.399,753.382,286.066,753.548,283.566C753.715,281.066,754.048,278.399,754.215,276.232C754.382,274.066,754.382,272.399,754.382,270.899C754.382,269.399,754.382,268.066,753.715,267.232C753.048,266.399,751.715,266.066,751.048,265.899L750.382,265.732" stroke-width="10" stroke-linecap="round" stroke-linejoin="round" stroke="#000" fill="none" class="line-4">

</path>
</g><mask id="brush">
<rect x="0" y="0" width="100%" height="100%" fill="black">

</rect><path d="M102.37,348.73L101.43,339.73L101.24,337.73L101.89,332.40L104.72,326.75L105.32,323.93L110.57,317.94L114.09,312.14L118.49,308.22L125.37,301.72L131.40,294.93L136.02,292.00L142.88,288.11L147.30,284.33L147.39,283.09L153.12,278.03L155.31,273.77L160.07,269.66L164.71,265.08L168.32,259.68L171.62,255.97L175.32,251.29L179.24,244.90L181.57,242.10L182.68,238.23L184.88,234.40L185.46,232.77L186.27,230.91L186.23,229.66L186.85,228.72L187.67,227.97L188.65,227.43L189.73,227.14L190.85,227.12L191.94,227.36L192.94,227.86L193.79,228.59L194.45,229.50L194.86,230.53L195.02,231.64L194.91,232.75L194.53,233.81L192.80,235.84L192.95,237.26L190.76,241.90L187.13,251.76L183.68,259.97L182.96,262.91L181.89,270.17L181.91,276.73L182.15,280.73L182.23,286.73L182.44,290.73L182.62,292.73L182.80,295.73L182.90,296.73L183.00,297.73L183.14,299.73L183.28,301.73L183.41,303.73L183.49,304.73L183.57,305.73L178.38,301.47L179.38,301.39L181.29,301.30L182.53,300.55L186.10,297.63L194.89,292.41L197.96,290.13L203.64,284.99L208.95,280.69L210.48,278.83L214.20,274.19L218.19,268.47L222.07,265.30L226.55,260.90L232.97,255.84L234.55,253.92L239.46,247.65L244.67,241.67L244.81,238.82L245.90,235.99L247.84,232.83L247.87,231.39L248.53,230.62L249.36,230.03L250.31,229.65L251.31,229.51L252.33,229.62L253.28,229.97L254.13,230.53L254.81,231.28L255.30,232.17L255.56,233.16L255.58,234.17L255.35,235.17L254.89,236.07L253.50,237.56L253.56,239.19L247.58,247.02L238.88,256.73L235.06,262.52L228.68,272.11L223.38,280.84L221.77,284.93L218.91,291.81L216.03,297.90L216.54,298.76L215.72,303.59L214.70,306.20L215.14,307.09L212.81,311.92L212.36,315.05L209.91,317.96L210.87,320.88L207.25,329.38L206.60,332.79L205.61,338.43L205.70,342.73L205.82,345.73L205.77,350.73L205.68,355.73L205.74,357.73L205.74,360.73L204.43,359.56L205.35,358.80L208.74,361.17L214.73,364.58L216.72,365.69L220.46,365.80L226.21,368.49L228.38,368.61L236.38,369.75L243.38,370.72L243.38,370.73L243.38,370.74L236.38,371.71L228.38,372.86L224.55,372.97L220.30,371.66L214.04,371.77L212.03,370.88L204.02,368.29L201.41,366.66L198.33,363.90L197.02,360.73L197.03,357.73L197.09,355.73L196.99,350.73L196.95,345.73L197.07,342.73L197.16,337.04L198.16,330.68L199.52,326.09L201.89,320.59L202.86,313.51L204.41,312.42L205.95,307.54L207.62,306.37L208.06,303.26L209.04,301.88L210.22,298.71L210.73,295.56L213.86,289.65L216.99,282.54L219.38,278.62L224.08,269.35L229.70,258.94L233.89,252.74L241.18,242.45L245.20,236.28L247.27,231.90L247.87,231.39L248.53,230.62L249.36,230.03L250.31,229.65L251.31,229.51L252.32,229.62L253.28,229.97L254.13,230.53L254.81,231.28L255.30,232.17L255.56,233.16L255.58,234.17L255.35,235.16L254.89,236.07L254.92,236.63L252.87,239.48L251.96,240.65L250.09,245.80L245.30,251.82L240.21,259.55L237.79,261.63L232.21,266.57L226.69,272.17L224.57,273.00L220.57,279.28L216.29,284.63L213.82,286.77L209.12,290.48L202.80,297.33L199.87,299.05L192.66,305.83L186.23,310.92L181.47,312.16L179.38,312.07L178.38,312.00L173.19,305.73L173.27,304.73L173.35,303.73L173.48,301.73L173.62,299.73L173.76,297.73L173.86,296.73L173.96,295.73L174.15,292.73L174.32,290.73L174.53,286.73L174.61,280.73L174.85,276.73L174.87,269.30L175.80,260.55L177.08,257.50L179.63,249.71L182.00,237.56L183.81,234.20L186.23,229.66L186.85,228.72L187.67,227.97L188.65,227.43L189.73,227.14L190.85,227.12L191.94,227.36L192.94,227.86L193.79,228.59L194.45,229.50L194.86,230.53L195.02,231.64L194.91,232.75L194.53,233.81L194.50,234.55L193.30,236.69L191.88,239.06L190.09,241.23L187.19,247.37L185.53,248.57L181.44,256.17L177.15,261.49L174.44,263.79L170.06,270.39L164.70,275.81L161.46,277.70L157.64,283.43L153.37,286.38L151.46,289.14L145.89,293.36L138.75,297.46L135.36,298.54L129.39,305.74L122.27,313.24L118.68,315.33L114.19,321.53L109.45,325.53L108.04,328.72L104.87,333.06L103.52,337.74L103.33,339.73L102.39,348.73Z" fill="white">

</path><path d="M287.38,318.74L282.18,318.75L281.38,318.88L280.38,318.98L278.38,319.20L277.38,319.31L275.47,319.51L274.20,320.58L272.38,320.89L271.85,320.81L272.11,321.46L271.19,322.60L268.66,324.28L266.15,326.36L265.73,327.10L262.39,329.76L260.16,331.14L259.64,331.78L260.31,332.62L258.91,334.96L259.94,333.73L259.71,336.71L258.25,339.17L259.46,339.73L259.63,343.73L259.73,344.73L259.89,347.73L259.97,349.47L260.63,349.42L255.38,346.86L262.33,352.73L261.89,352.48L260.44,349.88L264.58,354.73L258.38,349.47L259.38,349.40L260.38,349.34L262.38,349.25L263.38,349.19L264.38,349.14L266.38,349.07L267.38,349.02L268.38,348.97L269.38,348.93L270.38,348.89L272.38,348.85L271.95,349.40L270.90,349.22L277.38,347.81L278.05,347.86L277.60,347.43L279.93,347.34L277.42,347.77L279.86,346.15L280.89,346.83L279.06,346.57L279.98,344.91L281.74,342.17L280.87,342.26L283.15,337.97L282.85,337.20L284.75,335.18L283.25,337.73L283.23,336.73L283.82,334.25L285.68,331.14L284.18,332.73L284.16,331.73L284.16,329.73L284.14,328.73L284.14,326.73L284.12,325.73L284.10,324.73L284.08,323.73L284.14,323.08L287.46,326.23L289.38,328.06L288.38,328.08L287.38,328.10L286.38,328.11L285.03,328.05L280.43,326.41L279.07,326.35L277.59,325.36L276.38,324.05L275.52,322.49L275.06,320.77L275.03,318.99L275.42,317.25L276.22,315.65L277.37,314.30L278.82,313.25L280.47,312.59L282.24,312.34L284.01,312.52L285.69,313.12L283.38,312.34L284.38,312.32L285.38,312.31L286.38,312.30L287.38,312.28L296.81,319.73L296.74,320.38L297.09,319.77L297.79,323.73L297.80,324.73L297.80,325.73L297.77,327.73L297.73,329.73L297.60,332.73L297.55,334.73L297.50,336.73L297.44,338.73L290.38,347.72L296.35,340.73L296.10,344.05L294.29,348.81L292.64,350.05L293.97,347.73L293.37,350.09L291.53,352.98L292.82,350.73L292.78,351.73L292.63,353.73L292.48,355.73L292.42,356.73L292.25,358.73L292.17,359.73L292.10,360.73L286.38,356.10L288.38,356.31L289.38,356.40L290.38,356.50L291.38,356.60L292.38,356.71L293.38,356.82L295.38,357.08L296.38,357.21L297.38,357.33L298.38,357.47L299.38,357.61L301.38,357.92L302.38,358.07L303.38,358.23L303.69,358.68L303.19,358.54L304.13,358.31L305.49,356.54L307.38,354.54L307.97,354.91L308.17,354.56L309.90,352.83L311.38,352.76L311.65,353.73L313.37,351.73L313.38,351.73L313.39,351.73L313.12,353.73L311.38,354.70L310.86,354.63L310.59,356.91L308.79,358.55L307.38,358.92L309.27,358.93L308.81,359.28L308.63,361.15L307.57,362.92L305.07,364.79L303.38,365.23L302.38,365.39L301.38,365.54L299.38,365.86L298.38,366.00L297.38,366.13L296.38,366.26L295.38,366.38L293.38,366.65L292.38,366.76L291.38,366.86L290.38,366.97L289.38,367.06L288.38,367.16L286.38,367.36L280.67,360.73L280.59,359.73L280.52,358.73L280.34,356.73L280.28,355.73L280.13,353.73L279.99,351.73L279.94,350.73L281.24,346.49L281.39,347.37L280.79,347.73L282.13,343.42L282.47,342.66L282.67,343.41L282.41,340.73L290.38,333.74L283.32,338.73L283.26,336.73L283.21,334.73L283.16,332.73L283.03,329.73L282.99,327.73L282.96,325.73L282.96,324.73L282.97,323.73L283.68,325.69L282.02,321.08L281.95,319.73L287.38,327.18L286.38,327.17L285.38,327.16L284.38,327.14L283.38,327.13L279.08,326.35L277.59,325.36L276.38,324.05L275.52,322.49L275.06,320.77L275.03,318.99L275.42,317.25L276.21,315.65L277.37,314.30L278.82,313.25L280.47,312.59L282.24,312.34L284.01,312.52L285.69,313.12L286.33,313.05L285.73,313.42L286.38,313.35L287.38,313.37L288.38,313.39L289.38,313.41L293.30,315.23L298.62,322.39L298.69,323.73L298.67,324.73L298.65,325.73L298.62,326.73L298.62,328.73L298.60,329.73L298.60,331.73L298.58,332.73L297.09,338.33L296.94,337.22L297.53,336.73L297.51,337.73L295.92,342.26L293.62,347.49L293.89,345.21L293.02,349.29L292.87,348.20L292.78,350.56L291.70,352.89L287.88,356.64L286.90,357.31L287.34,357.69L283.16,360.03L278.71,361.61L277.38,361.65L277.86,360.25L274.82,362.06L272.38,362.62L270.38,362.58L269.38,362.54L268.38,362.49L267.38,362.44L266.38,362.39L264.38,362.33L263.38,362.27L262.38,362.21L260.38,362.13L259.38,362.06L258.38,362.00L252.19,354.73L254.32,359.59L250.87,354.98L250.43,352.73L255.38,358.60L250.14,354.05L248.79,350.00L248.87,347.73L249.03,344.73L249.13,343.73L249.31,339.73L250.52,334.30L251.05,334.75L250.83,333.73L251.86,330.51L252.45,330.84L253.13,327.68L256.61,324.32L258.37,323.71L261.04,322.37L262.61,321.10L266.11,319.19L267.58,318.87L268.66,318.01L270.91,316.65L272.57,316.89L275.30,315.96L277.38,316.16L278.38,316.27L280.38,316.48L281.38,316.59L282.58,316.72L287.38,318.72Z" fill="white">

</path><path d="M314.37,332.73L320.58,324.93L323.58,322.52L330.66,319.06L335.27,315.83L339.67,314.29L343.65,310.46L347.38,308.72L351.44,307.40L354.07,304.78L355.23,302.31L358.48,299.94L360.88,298.02L362.07,296.42L364.14,294.16L367.26,293.60L366.57,291.14L368.60,288.08L368.60,287.25L371.01,284.98L369.82,286.64L371.02,281.95L371.95,279.02L371.58,278.73L371.53,275.73L371.45,273.73L371.38,271.73L371.32,270.73L377.38,275.85L375.38,275.91L374.38,275.96L372.13,275.73L371.01,277.60L366.09,280.07L360.79,283.82L356.47,287.00L353.25,287.73L352.94,291.12L348.80,294.61L349.52,295.50L346.96,299.78L346.45,300.97L347.06,300.82L345.81,305.60L343.35,309.40L344.08,309.28L341.32,314.89L341.06,317.15L339.97,320.63L336.24,326.62L335.80,328.55L333.52,333.00L334.04,334.88L331.43,341.94L329.46,344.56L328.48,347.77L327.66,350.50L326.45,353.24L325.88,356.06L326.05,358.00L324.58,362.33L323.71,364.09L323.83,364.97L321.80,368.75L322.13,369.66L320.93,372.18L319.59,372.73L319.41,374.22L318.88,375.62L318.03,376.85L316.91,377.84L315.58,378.54L314.13,378.90L312.63,378.90L311.18,378.54L309.85,377.84L308.73,376.85L307.88,375.62L307.35,374.22L307.17,372.73L307.68,369.44L310.86,364.44L313.29,359.47L320.86,351.71L323.63,347.92L330.39,340.48L335.79,335.12L339.21,332.47L343.43,329.32L347.38,328.49L350.38,327.16L351.38,327.07L352.38,326.98L353.38,326.89L360.35,331.73L360.47,333.73L360.52,337.73L360.62,339.73L360.53,344.73L360.42,349.73L360.47,352.73L360.43,355.97L357.88,361.72L358.36,360.81L357.06,365.29L355.99,368.85L356.13,369.73L356.08,371.73L356.01,373.73L351.38,370.13L352.38,370.16L354.38,370.27L355.48,370.77L354.38,370.73L358.91,367.25L363.63,364.48L365.41,362.36L370.39,359.42L372.42,358.12L372.41,357.51L373.97,356.08L375.25,356.13L376.37,353.73L376.38,353.73L376.39,353.73L375.52,357.33L374.80,357.39L374.35,357.95L374.35,359.34L372.37,362.05L369.35,365.10L367.14,368.98L363.86,372.22L360.39,376.74L357.28,378.70L354.38,379.20L352.38,379.30L351.38,379.33L346.75,373.73L346.69,371.73L346.63,369.73L346.63,368.73L346.77,366.62L347.70,362.17L348.40,360.65L348.89,357.75L350.34,355.49L350.30,352.73L350.34,349.73L350.23,344.73L350.14,339.73L350.24,337.73L350.29,333.73L350.41,331.73L353.38,336.58L352.38,336.49L351.38,336.40L350.38,336.30L351.62,335.28L349.28,336.71L347.38,336.97L347.33,336.15L343.56,338.99L340.98,340.35L336.37,344.98L331.13,353.54L327.90,357.75L323.48,364.00L319.91,373.02L319.08,372.02L319.59,372.73L319.41,374.22L318.88,375.62L318.03,376.85L316.91,377.84L315.58,378.54L314.13,378.90L312.63,378.90L311.18,378.54L309.85,377.84L308.73,376.85L307.88,375.62L307.35,374.22L307.17,372.73L309.74,369.45L309.84,367.28L310.63,365.81L312.96,360.72L312.93,362.50L313.05,359.38L314.18,357.13L314.72,357.46L314.89,353.40L316.31,348.23L317.10,346.96L318.28,343.69L321.30,336.91L321.34,337.52L322.72,334.58L323.24,328.46L324.96,324.92L326.52,320.85L328.80,316.84L329.70,314.31L331.44,308.58L332.69,308.19L333.41,304.06L334.95,301.87L335.71,300.64L336.31,296.49L337.80,293.68L339.24,291.97L341.97,286.86L343.83,286.34L347.52,279.73L350.29,278.47L353.97,275.64L360.67,269.39L363.75,267.86L370.63,263.73L374.38,263.51L375.38,263.56L377.38,263.62L383.44,270.73L383.39,271.73L383.31,273.73L383.24,275.73L383.18,278.73L382.82,282.45L381.74,285.52L380.95,286.82L379.75,290.49L378.16,292.22L376.16,295.39L376.19,294.33L373.51,299.87L370.63,301.30L368.69,303.04L365.88,305.45L362.28,307.53L361.53,307.15L358.69,310.69L353.32,314.07L349.38,314.74L347.12,315.00L341.09,319.17L337.49,319.63L332.10,322.41L325.19,324.95L322.18,326.54L314.39,332.74Z" fill="white">

</path><path d="M414.37,343.73L412.47,339.95L412.83,339.41L409.98,339.02L409.38,339.20L408.38,339.31L409.08,337.73L407.38,340.55L406.78,340.50L406.78,341.27L403.41,342.82L402.67,345.25L402.02,347.11L398.73,351.08L395.99,354.26L395.83,355.46L393.83,359.01L392.34,363.46L390.57,365.90L389.44,367.91L390.25,368.96L389.00,372.77L389.64,374.73L389.73,375.73L389.82,376.73L389.97,379.73L390.10,382.73L390.18,383.73L389.75,383.52L388.37,381.00L386.38,379.69L387.38,379.62L391.38,379.61L391.93,379.68L394.34,377.66L396.70,376.37L398.59,375.37L400.12,373.51L401.22,371.96L400.39,373.45L403.04,367.05L405.23,363.97L404.85,363.48L408.01,358.50L407.19,359.63L408.48,354.76L413.51,348.84L411.76,351.05L411.35,348.22L412.63,344.51L414.78,341.55L414.39,340.84L414.04,341.73L414.00,340.73L414.18,339.20L414.73,337.76L415.60,336.50L416.75,335.48L418.12,334.76L419.61,334.39L421.15,334.39L422.65,334.76L424.01,335.48L425.16,336.50L426.04,337.77L426.58,339.20L426.77,340.73L426.64,342.20L422.57,349.85L419.35,354.63L418.92,357.12L414.87,365.45L410.12,371.74L410.73,373.73L410.76,376.73L410.79,378.73L410.82,379.73L406.38,376.27L407.38,376.26L408.38,376.25L409.38,376.24L412.38,376.35L413.38,376.36L415.38,376.43L417.38,376.52L419.38,376.62L420.38,376.67L421.38,376.72L422.38,376.78L423.38,376.85L423.59,377.25L423.53,376.80L426.38,376.12L423.86,379.73L424.25,378.02L426.75,375.14L428.73,374.85L428.89,374.37L428.53,376.73L431.38,373.01L429.80,375.73L430.15,374.23L431.79,372.20L434.13,369.18L434.20,368.68L435.70,366.39L438.37,363.73L438.38,363.73L438.39,363.74L437.06,367.07L436.56,368.79L436.63,370.28L434.61,375.24L434.96,375.73L431.38,378.45L434.24,376.73L431.87,379.10L430.02,380.32L430.51,379.44L430.90,379.73L426.38,383.34L427.23,382.66L425.17,384.22L423.38,384.62L422.38,384.68L421.38,384.74L420.38,384.79L419.38,384.84L417.38,384.95L415.38,385.04L413.38,385.11L412.38,385.12L409.38,385.23L408.38,385.22L407.38,385.21L406.38,385.19L401.94,379.73L401.97,378.73L402.01,376.73L402.03,373.73L402.64,367.72L405.89,362.02L407.84,354.34L409.41,348.84L412.19,343.62L414.13,341.26L414.00,340.73L414.18,339.20L414.73,337.77L415.60,336.50L416.75,335.48L418.12,334.76L419.61,334.39L421.15,334.39L422.65,334.76L424.01,335.48L425.16,336.50L426.04,337.76L426.58,339.20L426.77,340.73L426.72,341.73L426.37,344.62L423.99,349.92L424.13,348.96L423.41,351.24L421.00,356.41L417.25,358.62L420.29,358.70L419.58,359.83L418.96,363.20L416.75,366.96L415.92,365.99L415.53,369.49L413.73,372.41L412.37,374.02L411.55,377.50L408.64,381.96L404.17,386.09L402.06,387.09L400.43,387.81L392.83,391.79L391.38,391.85L387.38,391.84L386.38,391.77L382.40,390.46L379.01,385.95L378.58,383.73L378.66,382.73L378.79,379.73L378.94,376.73L379.03,375.73L379.12,374.73L379.76,368.69L380.51,368.50L381.32,363.55L384.19,359.57L384.42,360.00L386.93,354.46L388.93,352.00L390.77,349.21L394.03,346.38L396.74,344.36L398.09,342.21L401.36,338.65L403.99,338.20L405.98,336.97L407.38,336.92L405.69,337.73L408.38,336.15L409.38,336.27L410.79,336.45L413.94,338.05L414.29,339.51L414.39,343.73Z" fill="white">

</path><path d="M442.38,353.72L448.00,349.15L455.98,345.66L464.93,342.38L469.70,340.04L476.54,336.78L481.10,333.59L483.81,331.37L489.70,327.21L494.79,323.02L498.64,322.48L502.98,317.34L505.47,313.54L507.63,310.98L512.54,305.37L517.61,299.62L517.73,296.82L519.76,291.28L521.68,287.10L521.12,286.73L520.96,284.73L520.80,282.73L520.65,280.73L520.62,279.96L520.79,280.68L519.77,281.55L517.30,280.44L517.38,281.05L515.38,281.15L508.38,280.78L502.61,280.60L502.71,281.20L502.05,282.39L499.06,286.14L494.93,287.95L495.05,290.16L492.32,293.31L492.57,294.46L490.35,299.72L486.86,306.65L486.13,309.32L482.60,316.54L479.17,324.18L476.95,328.04L475.28,333.86L470.57,342.32L470.00,344.94L466.78,351.43L465.05,356.09L465.45,356.93L462.00,364.53L460.21,370.01L459.16,372.61L457.25,378.87L453.97,384.54L454.55,387.93L452.28,393.68L449.17,399.63L447.12,403.03L446.70,407.47L444.52,413.26L444.90,412.81L444.07,415.73L443.93,416.85L443.53,417.91L442.89,418.84L442.05,419.59L441.04,420.12L439.95,420.39L438.82,420.39L437.72,420.12L436.72,419.59L435.87,418.84L435.23,417.91L434.83,416.85L434.69,415.73L434.69,412.73L434.78,406.66L435.86,402.22L440.85,392.32L445.51,383.46L447.32,379.20L451.64,371.34L457.05,364.79L460.02,361.38L463.61,355.87L467.86,351.29L468.04,350.06L470.17,346.45L474.07,343.26L475.11,343.99L475.29,342.53L478.32,339.61L480.26,338.47L483.63,337.21L483.89,336.12L487.32,334.06L489.30,333.94L488.71,333.50L497.79,337.73L497.89,339.73L497.99,341.73L497.90,346.73L498.00,348.73L497.88,353.91L493.91,362.82L489.98,367.31L484.95,373.33L478.00,378.87L473.17,383.55L469.69,386.21L467.12,387.67L463.80,388.11L462.53,389.74L457.38,390.55L453.38,390.65L452.38,390.73L449.38,390.86L447.38,390.97L445.38,391.08L442.38,391.18L441.38,391.25L440.06,391.09L438.82,390.62L437.72,389.86L436.84,388.87L436.22,387.69L435.90,386.40L435.90,385.07L436.22,383.78L436.84,382.60L437.72,381.60L438.82,380.85L440.06,380.38L441.38,380.22L442.42,380.22L447.68,381.36L448.54,381.61L453.16,384.57L454.43,384.43L460.36,389.88L461.92,392.70L461.67,391.54L460.66,391.00L465.53,393.01L467.91,396.35L470.52,396.38L472.99,397.51L474.75,398.37L474.38,397.74L475.38,397.68L477.38,397.62L478.38,397.57L482.38,397.61L484.28,397.57L488.57,396.22L498.84,395.92L503.42,394.97L512.13,392.92L520.46,392.26L519.69,391.95L524.55,389.10L528.37,386.21L531.78,385.58L534.70,382.38L538.32,378.68L540.20,376.55L546.48,370.24L551.56,363.72L554.44,359.53L562.12,351.75L569.31,342.28L573.20,337.02L578.24,326.76L581.08,321.36L585.25,310.92L589.35,305.15L590.69,300.66L591.56,298.32L593.31,294.20L595.12,288.47L596.46,286.89L595.51,283.72L596.44,277.94L597.37,274.40L598.14,269.88L599.06,264.89L598.82,263.73L598.69,259.73L598.55,257.73L598.45,253.73L598.32,250.73L598.27,246.87L596.64,243.48L596.19,239.73L596.17,238.98L594.65,237.10L593.55,235.15L592.46,233.19L591.23,229.73L589.89,228.56L588.70,224.00L587.28,222.29L585.45,219.38L585.06,215.94L583.36,215.88L582.70,215.94L568.40,201.19L566.86,201.23L554.73,193.08L555.28,193.62L548.78,191.40L546.49,189.72L541.57,187.39L534.46,185.35L529.62,183.26L523.64,180.22L518.89,178.47L513.85,176.56L505.28,173.03L497.26,169.74L491.32,167.91L483.29,164.65L475.35,161.48L470.21,159.70L464.82,159.05L458.34,157.04L456.32,157.45L446.38,153.75L440.84,153.03L437.36,153.34L428.57,151.01L420.05,149.74L414.37,149.96L402.90,147.37L388.08,145.00L379.82,143.01L366.24,141.78L354.23,140.55L348.02,139.93L334.94,136.64L322.12,134.47L315.38,134.83L301.25,133.59L295.01,132.95L285.19,131.70L276.38,131.71L268.12,130.86L264.38,131.27L255.38,131.14L243.38,130.82L236.99,130.14L226.38,129.84L213.38,129.61L207.38,130.00L199.38,130.11L193.38,130.42L192.38,130.56L187.38,130.86L184.38,131.14L182.38,131.35L177.44,131.53L172.60,133.38L168.36,134.66L159.14,136.14L150.33,138.58L145.03,139.94L136.28,142.43L127.18,145.13L124.29,146.45L119.54,148.65L115.19,150.06L113.55,150.24L113.07,151.10L111.21,152.24L111.24,152.68L108.69,154.19L108.98,155.13L105.45,157.87L101.50,159.95L98.24,162.54L97.83,163.18L95.92,165.28L91.39,168.74L88.23,170.97L86.03,173.39L82.29,175.20L82.01,176.31L74.74,181.03L72.05,184.76L68.10,187.80L61.07,192.85L56.08,198.38L52.20,200.17L50.90,203.88L45.24,209.50L44.99,210.76L40.16,214.90L39.43,218.35L38.42,220.77L35.05,225.48L32.27,230.10L29.74,233.03L26.10,238.82L24.27,244.91L21.94,249.09L19.07,255.31L17.20,260.26L16.54,263.77L12.79,272.87L9.21,282.58L8.50,288.24L8.02,299.73L6.63,311.92L7.01,316.73L7.34,321.73L7.65,325.73L7.78,326.73L8.00,331.73L8.23,334.73L8.42,336.73L8.61,340.73L8.80,343.73L8.92,346.52L10.59,348.68L12.01,354.79L13.76,358.98L16.39,366.01L19.13,370.48L21.15,373.22L24.96,379.35L28.13,385.85L30.02,388.30L36.16,397.57L46.52,409.78L51.61,417.12L63.97,429.01L74.82,440.29L79.23,445.24L86.74,452.18L92.89,458.21L95.78,459.63L105.63,466.95L114.56,474.22L118.78,476.85L128.31,481.91L135.68,488.22L140.04,492.03L150.37,497.91L163.26,505.11L171.33,510.20L186.08,517.24L201.03,524.34L209.99,528.37L229.91,536.41L254.80,544.42L265.73,547.44L283.80,553.48L299.77,558.49L317.66,562.48L324.62,563.04L331.67,563.71L339.65,564.56L358.58,566.81L383.52,568.99L396.50,570.13L417.45,571.22L430.38,571.29L435.38,570.80L448.12,569.01L461.14,567.14L468.10,565.79L486.08,562.99L501.81,557.21L508.63,553.96L524.04,551.03L539.82,545.23L548.87,542.20L565.81,535.33L589.83,525.40L602.88,520.44L623.67,507.59L644.49,488.75L653.46,479.81L670.50,463.79L684.48,449.83L691.43,441.90L704.43,426.90L713.35,414.01L716.99,407.81L721.93,395.17L727.01,382.21L727.55,375.46L733.80,359.14L738.87,340.33L740.50,334.10L744.62,325.86L746.24,320.01L747.12,317.64L747.75,312.29L748.61,307.19L748.41,304.72L749.47,299.16L749.50,294.71L750.67,290.07L751.13,283.73L752.93,275.55L752.96,274.73L753.30,270.73L753.48,268.73L753.70,266.73L754.38,266.30L750.38,265.74L750.38,265.73L750.38,265.72L754.38,265.16L755.07,266.73L755.28,268.73L755.47,270.73L755.80,274.73L755.83,275.91L755.63,283.73L756.10,291.39L755.26,294.75L755.29,300.30L754.36,304.74L754.15,308.27L753.02,313.17L751.64,319.83L750.53,321.45L748.14,327.61L744.26,335.36L741.90,341.13L736.96,360.32L731.22,376.00L729.76,383.25L724.83,396.29L719.78,409.65L715.42,415.45L706.34,428.56L693.34,443.57L686.29,451.64L672.26,465.67L655.30,481.65L646.27,490.71L625.10,509.88L603.88,523.03L590.94,528.06L566.96,538.13L549.89,545.26L540.94,548.23L524.73,554.43L510.13,557.50L502.95,560.25L486.68,566.47L468.66,569.68L461.63,570.32L448.65,572.45L435.38,574.66L430.38,574.17L417.31,574.24L396.26,573.34L383.24,572.47L358.18,570.65L339.11,568.91L331.09,567.76L324.14,566.42L317.10,564.99L298.99,560.97L282.97,555.98L265.03,550.03L253.96,547.04L228.85,539.06L208.78,531.10L199.73,527.13L184.68,520.23L169.43,513.26L161.51,508.36L148.39,501.55L136.72,495.43L133.09,491.24L126.46,485.55L115.98,480.61L112.20,477.25L103.13,470.52L92.98,463.84L89.87,461.25L84.02,455.29L75.53,448.22L71.94,443.17L60.80,432.45L47.15,420.34L42.25,413.69L30.61,401.89L22.74,393.16L20.63,389.61L17.80,384.11L13.61,378.25L11.64,374.98L8.37,369.46L5.00,362.49L2.76,356.67L2.18,352.79L-0.15,346.95L-0.03,343.73L0.15,340.73L0.34,336.73L0.53,334.73L0.77,331.73L0.99,326.73L1.12,325.73L1.42,321.73L1.75,316.73L2.14,311.55L2.75,299.73L2.27,287.22L3.55,280.89L5.97,270.59L8.22,261.69L9.56,257.21L11.69,252.15L14.82,244.38L16.49,242.56L18.66,234.64L23.02,226.43L24.50,225.36L27.71,219.98L30.34,216.70L31.34,215.11L34.60,208.57L37.77,206.71L39.52,203.96L43.86,199.59L48.56,193.29L50.68,193.09L55.69,186.61L62.66,179.66L64.71,178.71L70.02,172.43L74.76,171.15L74.47,170.26L78.73,166.08L82.53,162.49L85.38,160.73L88.84,158.18L90.94,156.29L92.52,154.93L97.26,151.52L101.31,149.59L101.79,150.34L104.08,147.27L105.53,146.78L107.55,145.22L109.70,144.36L113.21,143.22L113.58,143.41L117.22,142.82L122.48,141.01L125.58,140.33L134.48,137.03L143.74,133.52L148.43,132.88L157.62,129.33L166.40,126.81L170.17,126.09L177.32,123.94L182.38,124.12L184.38,124.33L187.38,124.60L192.38,124.90L193.38,125.05L199.38,125.36L207.38,125.47L213.38,125.86L226.38,125.62L237.78,125.33L243.39,126.64L255.38,126.33L264.38,126.19L268.65,126.61L276.38,127.75L285.58,127.77L295.75,128.51L301.52,129.87L315.38,130.64L322.65,130.99L335.82,132.83L348.75,135.54L354.53,136.91L366.53,137.69L380.95,138.45L388.69,140.47L403.86,142.09L414.39,143.51L420.71,143.73L430.20,144.46L437.41,146.12L441.92,146.43L448.38,147.72L456.44,150.02L460.42,150.43L465.94,152.42L472.55,153.76L477.41,155.99L485.47,158.82L493.44,161.56L499.51,163.73L507.48,166.44L516.91,168.90L521.88,171.00L527.13,173.24L533.15,176.20L536.31,178.11L545.19,180.07L552.27,183.75L551.99,184.07L555.49,185.85L558.03,186.39L569.90,192.23L574.36,194.27L588.06,205.52L591.40,207.58L595.70,213.53L595.32,214.08L597.48,217.18L600.06,223.46L598.87,222.90L601.53,225.74L602.30,228.28L603.21,230.32L604.11,232.37L606.60,238.48L606.58,239.73L606.12,239.98L608.49,246.60L608.45,250.73L608.32,253.73L608.22,257.73L608.08,259.73L607.94,263.73L607.70,266.58L606.62,271.58L605.39,277.06L604.32,279.52L603.25,283.75L602.31,290.58L601.64,290.99L599.45,297.26L597.20,301.14L596.07,302.81L593.41,308.32L589.51,312.55L585.68,324.10L582.53,328.71L577.56,340.45L573.45,345.18L566.65,355.71L560.32,363.94L557.20,367.75L552.29,375.22L546.57,382.92L544.44,384.79L540.06,389.08L532.98,393.89L532.39,393.26L528.21,396.36L525.07,397.51L522.30,399.21L514.64,400.55L505.34,404.49L499.92,405.55L492.19,407.24L484.48,409.90L482.38,409.85L478.38,409.90L477.38,409.85L475.38,409.78L474.38,409.72L470.01,409.09L467.77,407.96L466.24,407.08L458.85,403.11L459.23,402.46L460.11,402.46L457.09,401.92L452.84,398.76L452.40,397.58L450.33,395.03L445.60,392.89L446.22,391.85L445.08,392.11L442.34,391.24L441.38,391.25L440.06,391.09L438.82,390.62L437.72,389.86L436.84,388.87L436.22,387.69L435.90,386.40L435.90,385.07L436.22,383.78L436.84,382.60L437.72,381.60L438.82,380.85L440.06,380.38L441.38,380.22L442.38,380.29L445.38,380.38L447.38,380.49L449.38,380.61L452.38,380.73L453.38,380.82L457.38,380.92L458.23,381.72L462.96,379.35L463.64,379.79L465.07,379.26L467.59,377.92L472.76,372.59L477.81,368.14L482.79,360.15L484.85,358.65L486.88,353.56L486.76,348.73L486.86,346.73L486.78,341.73L486.87,339.73L486.97,337.73L494.05,341.96L491.45,343.41L490.88,343.34L487.13,346.26L484.51,347.00L482.44,347.86L481.47,346.93L481.66,347.47L478.69,350.21L476.60,351.02L474.72,353.41L472.90,356.17L469.15,359.59L464.75,366.08L461.72,368.68L457.13,374.13L453.44,382.26L451.25,386.01L447.91,395.14L444.91,405.24L443.99,406.81L444.07,412.73L444.07,415.73L443.93,416.85L443.53,417.91L442.89,418.84L442.05,419.59L441.04,420.12L439.95,420.39L438.82,420.39L437.72,420.12L436.72,419.59L435.87,418.84L435.23,417.91L434.83,416.85L434.69,415.73L435.86,412.66L436.25,410.20L438.07,405.99L439.64,398.43L441.59,395.83L444.48,389.78L446.21,387.53L446.79,380.93L449.52,376.59L451.60,368.86L452.56,367.45L454.77,360.93L457.31,356.54L457.71,353.38L459.99,348.04L462.77,342.52L464.19,339.14L467.48,331.60L469.81,323.43L471.59,321.28L474.16,312.92L476.64,306.15L477.91,302.82L480.41,295.74L482.20,291.00L484.44,286.15L485.71,285.30L489.83,279.52L491.70,279.32L494.72,275.08L498.05,272.26L502.15,270.87L508.38,270.68L515.38,270.31L517.38,270.42L521.46,271.02L522.99,271.92L527.98,274.79L530.15,279.50L530.11,280.73L529.96,282.73L529.81,284.73L529.64,286.73L529.08,290.37L527.01,294.18L525.03,298.65L523.16,303.85L518.22,310.10L513.13,316.48L511.29,317.92L507.78,322.12L500.12,328.99L497.98,328.44L493.06,332.26L486.96,336.09L483.66,337.87L478.22,340.69L471.06,343.43L465.83,345.09L456.78,347.81L448.77,350.32L442.39,353.74Z" fill="white">

</path>
</mask>
</svg>