<svg width="800" height="600" viewBox="0 0 800 600" xmlns="http://www.w3.org/2000/svg" xmlns:xlink="http://www.w3.org/1999/xlink" data-cache="1714892949002">
<style>
path.line-0 {
  stroke-dasharray: 446 451;
  stroke-dashoffset: 446;
  animation: draw-0 5689.843652106743ms linear forwards infinite;
}
@keyframes draw-0 {
  0% { stroke-dashoffset: 446; }
  15.67% { stroke-dashoffset: 0; }
  96.75% { stroke-dashoffset: 0; }
  98.62% { stroke-dashoffset: 446; }
  100% { stroke-dashoffset: 446; }
}
path.line-1 {
  stroke-dasharray: 711 716;
  stroke-dashoffset: 711;
  animation: draw-1 5689.843652106743ms linear forwards infinite;
}
@keyframes draw-1 {
  0% { stroke-dashoffset: 711; }
  15.665334845579581% { stroke-dashoffset: 711; }
  40.67% { stroke-dashoffset: 0; }
  94.36% { stroke-dashoffset: 0; }
  97.34% { stroke-dashoffset: 711; }
  100% { stroke-dashoffset: 711; }
}
path.line-2 {
  stroke-dasharray: 289 294;
  stroke-dashoffset: 289;
  animation: draw-2 5689.843652106743ms linear forwards infinite;
}
@keyframes draw-2 {
  0% { stroke-dashoffset: 289; }
  40.66803585485677% { stroke-dashoffset: 289; }
  50.82% { stroke-dashoffset: 0; }
  93.39% { stroke-dashoffset: 0; }
  94.60% { stroke-dashoffset: 289; }
  100% { stroke-dashoffset: 289; }
}
path.line-3 {
  stroke-dasharray: 649 654;
  stroke-dashoffset: 649;
  animation: draw-3 5689.843652106743ms linear forwards infinite;
}
@keyframes draw-3 {
  0% { stroke-dashoffset: 649; }
  50.819737897946204% { stroke-dashoffset: 649; }
  73.64% { stroke-dashoffset: 0; }
  91.21% { stroke-dashoffset: 0; }
  93.94% { stroke-dashoffset: 649; }
  100% { stroke-dashoffset: 649; }
}
</style><rect x="0" y="0" width="800" height="600" fill="#000000">

</rect><g mask="url(#brush)">
<path d="M23.925,306.434L25.092,305.101C26.259,303.768,28.592,301.101,30.425,298.768C32.259,296.434,33.592,294.434,35.759,291.101C37.925,287.768,40.925,283.101,43.425,279.101C45.925,275.101,47.925,271.768,49.925,268.101C51.925,264.434,53.925,260.434,56.092,256.934C58.259,253.434,60.592,250.434,63.259,246.768C65.925,243.101,68.925,238.768,71.425,235.434C73.925,232.101,75.925,229.768,77.925,226.934C79.925,224.101,81.925,220.768,83.925,217.268C85.925,213.768,87.925,210.101,89.592,209.434C91.259,208.768,92.592,211.101,93.259,213.768C93.925,216.434,93.925,219.434,93.925,222.601C93.925,225.768,93.925,229.101,93.925,233.101C93.925,237.101,93.925,241.768,93.925,245.601C93.925,249.434,93.925,252.434,93.592,255.934C93.259,259.434,92.592,263.434,92.259,266.934C91.925,270.434,91.925,273.434,91.925,276.101C91.925,278.768,91.925,281.101,92.925,280.934C93.925,280.768,95.925,278.101,97.925,275.434C99.925,272.768,101.925,270.101,104.925,266.101C107.925,262.101,111.925,256.768,115.259,252.434C118.592,248.101,121.259,244.768,123.259,242.101C125.259,239.434,126.592,237.434,128.259,234.768C129.925,232.101,131.925,228.768,133.592,226.101C135.259,223.434,136.592,221.434,137.925,219.434C139.259,217.434,140.592,215.434,141.259,215.934C141.925,216.434,141.925,219.434,141.592,222.268C141.259,225.101,140.592,227.768,140.092,230.434C139.592,233.101,139.259,235.768,138.759,238.768C138.259,241.768,137.592,245.101,136.925,247.934C136.259,250.768,135.592,253.101,134.592,255.934C133.592,258.768,132.259,262.101,131.259,265.101C130.259,268.101,129.592,270.768,128.759,273.768C127.925,276.768,126.925,280.101,125.925,283.268C124.925,286.434,123.925,289.434,123.092,292.268C122.259,295.101,121.592,297.768,120.759,300.601C119.925,303.434,118.925,306.434,118.092,309.101C117.259,311.768,116.592,314.101,116.092,316.434C115.592,318.768,115.259,321.101,115.925,323.101C116.592,325.101,118.259,326.768,120.425,326.768C122.592,326.768,125.259,325.101,127.759,324.268C130.259,323.434,132.592,323.434,134.759,322.768C136.925,322.101,138.925,320.768,140.092,319.934C141.259,319.101,141.592,318.768,141.759,318.601L141.925,318.434" stroke-width="9.904596074066864" stroke-linecap="round" stroke-linejoin="round" stroke="#ffffff" fill="none" class="line-0">

</path><path d="M215.925,268.434L214.592,267.934C213.259,267.434,210.592,266.434,207.759,266.768C204.925,267.101,201.925,268.768,199.259,270.601C196.592,272.434,194.259,274.434,192.425,276.268C190.592,278.101,189.259,279.768,187.925,281.768C186.592,283.768,185.259,286.101,183.925,288.601C182.592,291.101,181.259,293.768,180.425,296.434C179.592,299.101,179.259,301.768,179.092,304.434C178.925,307.101,178.925,309.768,179.425,312.434C179.925,315.101,180.925,317.768,182.592,319.601C184.259,321.434,186.592,322.434,189.092,322.934C191.592,323.434,194.259,323.434,196.592,322.768C198.925,322.101,200.925,320.768,202.425,318.934C203.925,317.101,204.925,314.768,205.925,312.268C206.925,309.768,207.925,307.101,209.092,304.434C210.259,301.768,211.592,299.101,212.425,296.601C213.259,294.101,213.592,291.768,213.759,288.934C213.925,286.101,213.925,282.768,213.925,279.601C213.925,276.434,213.925,273.434,213.925,270.768C213.925,268.101,213.925,265.768,213.925,265.768C213.925,265.768,213.925,268.101,213.925,270.601C213.925,273.101,213.925,275.768,213.925,278.434C213.925,281.101,213.925,283.768,213.925,286.434C213.925,289.101,213.925,291.768,214.259,294.268C214.592,296.768,215.259,299.101,216.092,301.601C216.925,304.101,217.925,306.768,218.759,309.268C219.592,311.768,220.259,314.101,221.425,315.934C222.592,317.768,224.259,319.101,226.425,320.101C228.592,321.101,231.259,321.768,233.925,321.268C236.592,320.768,239.259,319.101,241.592,316.934C243.925,314.768,245.925,312.101,247.592,309.434C249.259,306.768,250.592,304.101,252.592,300.434C254.592,296.768,257.259,292.101,259.259,288.101C261.259,284.101,262.592,280.768,263.925,278.268C265.259,275.768,266.592,274.101,268.259,271.934C269.925,269.768,271.925,267.101,273.592,264.768C275.259,262.434,276.592,260.434,277.925,257.934C279.259,255.434,280.592,252.434,281.759,249.768C282.925,247.101,283.925,244.768,284.925,242.268C285.925,239.768,286.925,237.101,287.759,234.601C288.592,232.101,289.259,229.768,290.092,226.601C290.925,223.434,291.925,219.434,292.925,215.768C293.925,212.101,294.925,208.768,295.592,205.768C296.259,202.768,296.592,200.101,295.925,200.101C295.259,200.101,293.592,202.768,292.259,205.934C290.925,209.101,289.925,212.768,289.092,215.934C288.259,219.101,287.592,221.768,286.759,224.768C285.925,227.768,284.925,231.101,283.759,234.101C282.592,237.101,281.259,239.768,280.092,242.768C278.925,245.768,277.925,249.101,276.759,252.768C275.592,256.434,274.259,260.434,273.259,264.434C272.259,268.434,271.592,272.434,270.925,275.768C270.259,279.101,269.592,281.768,268.592,284.434C267.592,287.101,266.259,289.768,265.425,292.268C264.592,294.768,264.259,297.101,263.592,299.601C262.925,302.101,261.925,304.768,260.925,307.601C259.925,310.434,258.925,313.434,257.925,316.268C256.925,319.101,255.925,321.768,255.092,324.434C254.259,327.101,253.592,329.768,252.925,332.434C252.259,335.101,251.592,337.768,250.925,337.601C250.259,337.434,249.592,334.434,249.259,331.601C248.925,328.768,248.925,326.101,249.425,323.434C249.925,320.768,250.925,318.101,252.092,315.768C253.259,313.434,254.592,311.434,255.759,309.434C256.925,307.434,257.925,305.434,260.092,304.101C262.259,302.768,265.592,302.101,268.259,302.601C270.925,303.101,272.925,304.768,274.425,306.768C275.925,308.768,276.925,311.101,277.925,313.601C278.925,316.101,279.925,318.768,280.759,321.434C281.592,324.101,282.259,326.768,282.759,329.268C283.259,331.768,283.592,334.101,283.759,336.434C283.925,338.768,283.925,341.101,284.092,343.434C284.259,345.768,284.592,348.101,285.259,350.268C285.925,352.434,286.925,354.434,288.259,356.101C289.592,357.768,291.259,359.101,293.259,359.768C295.259,360.434,297.592,360.434,299.759,358.934C301.925,357.434,303.925,354.434,305.425,351.934C306.925,349.434,307.925,347.434,309.259,345.601C310.592,343.768,312.259,342.101,313.425,340.601C314.592,339.101,315.259,337.768,315.592,337.101L315.925,336.434" stroke-width="9.904596074066864" stroke-linecap="round" stroke-linejoin="round" stroke="#ffffff" fill="none" class="line-1">

</path><path d="M370.925,305.434L371.259,304.101C371.592,302.768,372.259,300.101,371.925,297.768C371.592,295.434,370.259,293.434,367.925,292.101C365.592,290.768,362.259,290.101,358.925,290.268C355.592,290.434,352.259,291.434,349.592,293.101C346.925,294.768,344.925,297.101,342.425,300.268C339.925,303.434,336.925,307.434,334.925,310.601C332.925,313.768,331.925,316.101,331.092,318.601C330.259,321.101,329.592,323.768,329.259,326.601C328.925,329.434,328.925,332.434,328.925,335.101C328.925,337.768,328.925,340.101,329.259,342.434C329.592,344.768,330.259,347.101,331.092,349.268C331.925,351.434,332.925,353.434,334.592,354.768C336.259,356.101,338.592,356.768,340.759,356.601C342.925,356.434,344.925,355.434,346.259,353.768C347.592,352.101,348.259,349.768,349.259,346.934C350.259,344.101,351.592,340.768,352.759,337.434C353.925,334.101,354.925,330.768,355.925,327.934C356.925,325.101,357.925,322.768,358.925,320.434C359.925,318.101,360.925,315.768,361.759,313.434C362.592,311.101,363.259,308.768,363.592,306.268C363.925,303.768,363.925,301.101,363.925,300.934C363.925,300.768,363.925,303.101,363.425,305.934C362.925,308.768,361.925,312.101,361.259,314.934C360.592,317.768,360.259,320.101,360.092,322.434C359.925,324.768,359.925,327.101,359.925,330.268C359.925,333.434,359.925,337.434,359.925,340.601C359.925,343.768,359.925,346.101,360.092,348.934C360.259,351.768,360.592,355.101,360.925,358.101C361.259,361.101,361.592,363.768,362.759,365.768C363.925,367.768,365.925,369.101,368.092,369.768C370.259,370.434,372.592,370.434,375.425,369.434C378.259,368.434,381.592,366.434,383.759,365.101C385.925,363.768,386.925,363.101,387.425,362.768L387.925,362.434" stroke-width="9.904596074066864" stroke-linecap="round" stroke-linejoin="round" stroke="#ffffff" fill="none" class="line-2">

</path><path d="M408.925,317.434L409.259,316.268C409.592,315.101,410.259,312.768,411.592,310.268C412.925,307.768,414.925,305.101,416.759,302.768C418.592,300.434,420.259,298.434,422.759,295.768C425.259,293.101,428.592,289.768,431.092,287.268C433.592,284.768,435.259,283.101,437.759,280.934C440.259,278.768,443.592,276.101,445.925,273.934C448.259,271.768,449.592,270.101,450.925,268.434C452.259,266.768,453.592,265.101,454.425,263.101C455.259,261.101,455.592,258.768,455.925,256.434C456.259,254.101,456.592,251.768,456.759,249.101C456.925,246.434,456.925,243.434,456.092,242.601C455.259,241.768,453.592,243.101,452.425,245.434C451.259,247.768,450.592,251.101,449.759,255.434C448.925,259.768,447.925,265.101,446.925,269.601C445.925,274.101,444.925,277.768,443.592,282.268C442.259,286.768,440.592,292.101,439.259,296.434C437.925,300.768,436.925,304.101,435.925,308.101C434.925,312.101,433.925,316.768,433.092,320.768C432.259,324.768,431.592,328.101,430.425,332.768C429.259,337.434,427.592,343.434,426.425,348.268C425.259,353.101,424.592,356.768,423.425,361.434C422.259,366.101,420.592,371.768,419.425,375.934C418.259,380.101,417.592,382.768,416.759,385.768C415.925,388.768,414.925,392.101,414.092,395.101C413.259,398.101,412.592,400.768,412.092,403.434C411.592,406.101,411.259,408.768,410.759,411.768C410.259,414.768,409.592,418.101,408.759,418.601C407.925,419.101,406.925,416.768,406.259,413.101C405.592,409.434,405.259,404.434,405.092,399.434C404.925,394.434,404.925,389.434,404.925,385.768C404.925,382.101,404.925,379.768,404.925,376.268C404.925,372.768,404.925,368.101,405.092,363.768C405.259,359.434,405.592,355.434,406.759,350.934C407.925,346.434,409.925,341.434,411.259,337.768C412.592,334.101,413.259,331.768,414.425,329.268C415.592,326.768,417.259,324.101,418.759,321.601C420.259,319.101,421.592,316.768,423.592,314.768C425.592,312.768,428.259,311.101,430.592,309.601C432.925,308.101,434.925,306.768,437.259,305.768C439.592,304.768,442.259,304.101,445.425,303.768C448.592,303.434,452.259,303.434,455.425,303.268C458.592,303.101,461.259,302.768,463.759,303.434C466.259,304.101,468.592,305.768,469.759,307.768C470.925,309.768,470.925,312.101,470.925,314.601C470.925,317.101,470.925,319.768,470.259,323.101C469.592,326.434,468.259,330.434,466.592,333.768C464.925,337.101,462.925,339.768,461.092,341.768C459.259,343.768,457.592,345.101,455.759,346.268C453.925,347.434,451.925,348.434,449.425,349.268C446.925,350.101,443.925,350.768,441.259,351.268C438.592,351.768,436.259,352.101,433.925,352.268C431.592,352.434,429.259,352.434,426.925,352.268C424.592,352.101,422.259,351.768,422.259,352.268C422.259,352.768,424.592,354.101,427.092,356.101C429.592,358.101,432.259,360.768,434.759,363.768C437.259,366.768,439.592,370.101,442.259,373.601C444.925,377.101,447.925,380.768,450.759,384.434C453.592,388.101,456.259,391.768,458.592,394.601C460.925,397.434,462.925,399.434,465.092,401.434C467.259,403.434,469.592,405.434,471.759,406.934C473.925,408.434,475.925,409.434,478.259,410.601C480.592,411.768,483.259,413.101,485.592,413.934C487.925,414.768,489.925,415.101,490.925,415.268L491.925,415.434" stroke-width="9.904596074066864" stroke-linecap="round" stroke-linejoin="round" stroke="#ffffff" fill="none" class="line-3">

</path>
</g><mask id="brush">
<rect x="0" y="0" width="100%" height="100%" fill="black">

</rect><path d="M23.92,306.43L29.95,297.58L33.41,291.42L35.93,286.24L42.00,277.15L48.11,267.34L50.80,262.16L53.56,255.40L61.15,246.06L63.83,241.87L70.04,233.18L76.29,226.03L77.82,223.03L81.69,216.19L82.63,212.07L85.23,209.89L86.98,205.13L89.15,201.62L95.59,204.43L95.74,206.25L97.58,208.82L98.16,213.43L97.60,222.43L96.96,232.43L97.25,236.43L96.70,246.43L96.51,255.43L96.84,259.46L94.68,268.10L94.99,273.43L95.26,276.43L95.52,280.43L95.75,283.43L95.86,284.43L95.97,285.43L95.85,286.40L95.51,287.31L94.95,288.12L94.22,288.76L93.36,289.22L92.41,289.45L91.44,289.45L90.49,289.22L89.63,288.76L88.90,288.12L88.34,287.31L88.00,286.40L87.88,285.43L88.17,282.58L90.87,278.41L94.51,273.16L101.25,265.43L103.93,260.63L113.68,249.60L121.99,239.89L125.73,233.97L131.97,224.26L135.86,218.06L138.66,213.75L139.46,211.59L139.98,211.05L140.60,210.65L141.31,210.42L142.05,210.36L142.78,210.48L143.46,210.77L144.06,211.21L144.53,211.79L144.84,212.46L144.99,213.18L144.96,213.93L144.76,214.64L144.39,215.28L145.06,217.43L145.30,222.49L144.38,226.58L143.66,231.18L142.80,236.19L143.08,238.44L142.02,245.12L141.10,249.50L139.94,252.40L139.36,256.33L138.38,259.84L138.64,260.79L135.02,267.78L134.58,271.37L133.56,274.97L132.70,279.40L130.42,285.23L129.38,287.64L127.37,293.70L125.21,299.79L125.55,300.56L123.24,307.15L122.50,310.60L121.27,313.56L120.60,317.37L119.52,321.55L119.66,323.43L119.68,325.43L119.69,326.43L119.70,327.43L114.93,323.66L115.93,323.67L116.93,323.68L117.93,323.70L118.97,324.20L117.77,324.17L123.13,321.85L126.29,320.39L130.93,320.35L131.93,320.49L132.93,320.65L133.93,320.82L132.49,323.43L133.37,321.33L136.15,319.87L138.39,319.36L141.92,318.43L141.93,318.43L141.94,318.43L139.46,321.50L137.71,322.99L136.48,323.54L137.36,323.43L133.93,326.05L132.93,326.22L131.93,326.37L130.93,326.52L129.56,326.47L126.72,329.02L124.08,330.70L120.88,332.67L117.93,333.16L116.93,333.19L115.93,333.20L114.93,333.21L110.15,327.43L110.16,326.43L110.18,325.43L110.19,323.43L110.33,319.32L111.26,315.50L112.58,309.31L113.35,308.26L114.61,303.72L116.30,300.31L116.64,297.08L118.48,291.16L120.47,283.23L121.43,281.64L123.15,277.46L124.29,271.90L125.27,269.50L126.83,263.09L129.21,260.08L129.47,257.03L130.49,254.54L131.91,248.47L132.75,247.37L133.83,243.75L134.77,238.42L135.05,234.67L136.19,229.69L137.47,224.29L138.55,222.38L138.79,217.43L139.46,211.59L139.98,211.05L140.60,210.65L141.31,210.42L142.05,210.36L142.78,210.48L143.46,210.77L144.06,211.21L144.53,211.79L144.84,212.46L144.99,213.18L144.96,213.93L144.76,214.64L144.39,215.28L143.19,217.12L139.99,220.81L135.88,226.61L130.12,236.90L125.86,242.98L118.17,253.27L109.92,264.24L106.60,269.44L101.34,277.71L96.98,284.46L95.69,284.29L95.97,285.43L95.85,286.40L95.51,287.31L94.95,288.12L94.22,288.76L93.36,289.22L92.41,289.45L91.44,289.45L90.49,289.22L89.63,288.76L88.90,288.12L88.34,287.31L88.00,286.40L87.88,285.43L87.99,284.43L88.10,283.43L88.33,280.43L88.59,276.43L88.86,273.43L89.17,266.77L91.01,259.41L91.34,255.43L91.15,246.43L90.60,236.43L90.90,232.43L90.25,222.43L89.70,213.43L90.27,212.05L88.11,206.62L88.26,204.43L92.70,207.24L93.02,206.13L92.87,207.74L88.62,214.98L87.22,214.80L86.16,218.68L82.03,225.84L79.56,228.84L73.81,235.69L68.02,245.00L64.70,248.81L58.29,257.47L55.05,264.71L51.74,269.53L45.85,279.72L39.92,288.63L36.44,293.45L31.90,299.29L23.93,306.44Z" fill="white">

</path><path d="M215.92,268.44L213.09,266.79L210.93,267.68L207.93,268.12L206.93,268.28L206.07,268.42L205.42,269.43L203.61,270.68L201.83,273.33L199.33,277.25L194.19,280.56L191.66,284.41L189.02,288.89L188.31,290.64L184.92,295.24L184.57,297.97L182.95,299.98L184.12,299.43L184.22,302.43L184.32,304.43L184.41,306.43L184.49,309.43L184.55,310.43L184.63,312.43L184.71,314.43L184.75,315.34L185.35,316.33L184.89,315.73L183.21,314.52L189.47,319.02L187.52,317.96L190.34,317.58L191.93,317.38L193.93,317.32L196.93,317.30L194.51,318.02L196.58,315.95L199.18,314.87L197.95,314.43L200.40,309.68L202.44,304.60L203.69,301.81L207.11,296.58L207.56,294.64L208.73,292.14L208.11,292.43L208.04,290.43L207.98,289.43L207.95,286.43L207.88,284.43L207.83,283.43L207.88,279.43L207.93,275.43L207.87,273.43L207.84,270.43L207.81,267.43L207.77,266.43L207.75,263.43L207.93,261.96L208.46,260.56L209.30,259.34L210.42,258.35L211.74,257.66L213.18,257.30L214.67,257.30L216.12,257.66L217.43,258.35L218.55,259.34L219.40,260.56L219.92,261.96L220.10,263.43L220.10,266.43L220.04,270.43L220.07,273.43L219.90,278.43L219.60,284.43L219.68,286.43L219.56,291.43L219.62,294.43L219.69,296.34L220.44,297.59L221.14,298.72L221.65,299.46L222.88,304.15L223.98,307.15L224.39,306.59L226.85,311.57L226.63,315.14L226.44,313.07L228.53,316.52L227.12,315.38L224.93,314.01L227.26,314.53L230.18,316.28L229.28,315.46L232.21,317.22L229.93,315.82L231.93,315.79L233.61,315.84L235.00,314.63L237.77,312.95L237.13,312.19L243.83,305.47L247.63,299.29L250.88,294.01L256.61,285.60L261.05,276.24L265.38,270.40L271.74,262.80L275.54,256.91L275.88,253.63L279.06,247.72L281.92,241.15L282.57,238.32L284.49,233.06L286.34,228.11L285.91,227.41L286.86,222.42L289.25,214.44L291.51,210.36L292.06,204.88L293.03,198.79L292.81,197.43L292.64,193.43L296.93,196.82L295.93,196.92L299.50,192.43L299.62,194.56L297.30,201.16L296.47,206.19L295.50,210.58L293.18,217.65L292.32,222.32L291.32,225.90L289.23,231.14L288.50,235.35L287.47,238.98L283.99,244.84L282.28,249.88L281.48,253.58L279.28,259.17L277.16,265.64L276.32,269.53L275.01,276.95L272.57,285.35L271.69,288.71L268.42,294.39L267.79,300.00L266.83,303.74L264.82,308.99L262.86,314.75L262.04,317.81L259.92,322.41L259.37,325.55L258.41,328.93L257.57,333.38L255.34,339.07L255.79,340.43L255.49,344.47L252.47,348.47L243.76,344.43L243.68,343.43L243.58,341.43L243.51,340.43L243.58,335.43L243.55,331.43L243.46,328.43L243.65,323.04L247.35,316.13L246.77,314.94L251.82,306.75L252.14,304.93L253.38,302.91L255.00,302.35L254.09,302.34L255.66,299.74L259.93,295.99L261.93,295.89L263.93,295.81L264.93,295.75L268.93,295.75L276.69,301.43L276.75,302.43L275.01,300.53L275.66,299.18L277.92,301.69L281.96,306.43L275.93,301.35L279.96,303.17L283.53,306.96L284.16,310.43L284.20,311.43L283.71,312.12L283.98,311.25L285.26,316.13L285.69,315.56L287.02,319.39L287.77,320.85L288.36,326.33L289.05,327.50L289.38,331.33L290.06,332.50L290.42,335.43L290.45,336.43L290.44,339.43L290.43,342.43L290.46,343.39L291.16,345.92L291.37,349.43L291.40,350.43L291.34,352.13L291.66,351.45L292.07,352.19L286.93,349.93L289.27,350.48L293.52,352.84L294.51,353.85L295.41,354.81L297.77,355.60L296.93,355.34L297.69,355.99L295.78,356.29L296.86,355.36L300.19,352.93L302.03,349.87L303.48,347.71L306.32,344.08L310.52,341.03L312.98,339.57L315.92,336.43L315.93,336.43L315.93,336.44L314.87,341.30L313.33,343.84L311.54,346.79L310.37,351.16L309.82,352.99L307.66,359.94L305.00,363.50L304.07,364.58L300.16,366.88L296.93,367.53L294.08,367.27L290.09,366.13L286.44,364.06L285.34,363.02L284.33,362.03L286.58,362.39L286.93,362.94L281.78,358.68L280.19,357.42L278.51,352.74L278.45,350.43L278.69,348.94L277.39,343.48L277.42,342.43L277.41,339.43L277.40,336.43L277.43,335.43L277.79,336.37L276.80,331.36L275.49,326.54L276.08,326.02L274.83,323.48L274.16,321.31L272.59,316.74L273.87,317.62L272.15,314.74L271.65,311.43L271.69,310.43L272.32,311.91L273.89,311.70L275.93,313.52L269.89,306.43L271.93,311.18L270.19,309.69L266.84,306.34L265.11,302.43L265.16,301.43L268.93,307.12L264.93,307.12L263.93,307.06L261.93,306.97L259.93,306.88L264.19,305.12L263.76,304.53L262.85,306.52L260.47,307.96L261.71,307.94L260.03,312.12L257.09,315.93L256.50,320.73L254.20,323.83L254.39,328.43L254.31,331.43L254.27,335.43L254.34,340.43L254.27,341.43L254.17,343.43L254.09,344.43L247.38,340.40L246.36,342.40L246.06,340.43L246.51,335.80L248.28,331.49L249.44,325.94L250.48,323.32L251.93,318.46L253.81,315.06L254.99,312.12L257.03,305.88L259.02,301.13L260.06,298.87L261.43,290.48L264.16,286.16L265.28,283.52L266.84,275.92L267.53,267.34L268.69,263.23L270.57,255.69L272.37,251.29L273.57,246.98L275.86,240.03L278.38,235.89L279.35,233.51L280.62,227.73L282.53,222.97L283.53,220.55L284.67,215.22L286.35,208.29L287.38,204.68L288.55,197.71L290.23,194.31L290.35,192.43L295.93,187.95L296.93,188.05L301.22,193.43L301.05,197.43L300.82,200.07L299.79,205.99L298.34,214.51L296.60,216.43L295.00,224.45L293.94,227.46L293.51,230.76L291.36,235.81L289.28,240.55L287.93,243.72L284.79,251.15L281.97,255.24L280.31,259.96L276.11,266.07L270.47,274.47L266.80,278.63L263.24,289.27L258.97,298.86L256.22,303.58L252.02,313.40L248.72,316.68L246.08,321.92L240.85,326.24L234.24,329.03L231.93,329.07L229.93,329.05L225.64,327.65L226.57,327.41L223.67,326.59L224.93,326.85L220.74,325.49L217.42,321.80L215.22,317.73L215.00,315.30L215.36,314.58L213.46,312.28L211.87,307.72L212.42,308.86L210.98,304.72L212.21,305.41L210.72,304.15L209.41,301.28L208.16,296.53L208.23,294.43L208.29,291.43L208.17,286.43L208.25,284.43L207.96,278.43L207.79,273.43L207.81,270.43L207.75,266.43L207.75,263.43L207.93,261.96L208.46,260.56L209.30,259.34L210.42,258.35L211.73,257.66L213.18,257.30L214.67,257.30L216.12,257.66L217.43,258.35L218.55,259.34L219.39,260.56L219.92,261.96L220.10,263.43L220.08,266.43L220.04,267.43L220.01,270.43L219.99,273.43L219.92,275.43L219.97,279.43L220.02,283.43L219.97,284.43L219.90,286.43L219.87,289.43L219.81,290.43L219.74,292.43L219.12,296.73L218.29,298.23L216.74,302.29L214.16,307.05L213.41,308.27L211.45,315.19L209.90,318.43L206.67,324.00L205.27,324.92L203.34,326.85L199.21,329.09L196.93,329.57L193.93,329.55L191.93,329.49L187.51,329.29L182.33,326.91L180.38,323.85L182.64,326.35L178.96,325.13L174.50,320.54L173.10,315.53L173.14,314.43L173.22,312.43L173.30,310.43L173.36,309.43L173.44,306.43L173.53,304.43L173.63,302.43L173.73,299.43L175.28,294.90L176.93,289.63L179.55,286.23L180.83,283.98L184.19,278.45L189.66,272.31L192.52,271.62L196.02,267.54L200.24,264.19L202.43,263.44L205.78,262.45L206.93,262.58L207.93,262.75L210.93,263.19L214.76,264.08L215.93,268.43Z" fill="white">

</path><path d="M370.92,305.43L371.24,298.90L370.84,297.43L370.53,295.43L372.93,296.13L371.66,296.22L367.08,294.20L363.41,292.86L363.93,293.37L358.93,293.73L355.93,294.02L355.15,294.10L351.15,296.56L345.99,302.06L342.91,305.40L336.77,313.32L333.99,319.75L333.12,321.98L332.53,327.03L332.80,330.43L332.98,332.43L333.17,335.43L333.27,340.43L333.41,342.36L334.34,343.97L335.53,348.26L336.30,349.25L337.41,351.19L335.98,351.57L340.13,355.43L338.61,353.18L336.93,351.99L337.93,351.93L338.93,351.86L340.93,351.78L338.83,352.34L342.00,349.80L344.00,350.33L342.58,349.77L343.22,347.63L342.98,346.99L346.93,339.57L347.39,336.32L348.52,332.63L349.47,329.62L350.38,326.02L351.73,322.84L353.71,318.32L356.21,314.30L356.73,313.14L356.61,312.23L359.27,308.50L358.00,310.43L357.95,309.43L357.89,307.43L357.84,306.43L357.78,304.43L357.76,301.43L357.71,300.43L358.20,297.14L359.92,294.28L360.43,291.94L361.64,291.00L363.04,290.37L364.54,290.09L366.07,290.18L367.53,290.64L368.84,291.43L369.93,292.52L370.72,293.83L371.18,295.29L371.27,296.82L370.99,298.32L370.36,299.72L369.42,300.93L371.21,297.73L369.71,301.99L369.93,305.53L367.29,313.22L366.40,316.80L365.08,323.16L364.79,329.43L364.88,333.43L364.38,341.43L364.16,348.43L364.31,351.43L364.93,357.86L365.87,361.48L366.03,363.43L365.68,365.58L365.84,364.52L367.20,366.37L368.05,369.43L363.93,366.32L364.93,366.34L365.93,366.37L367.93,366.48L370.93,366.76L372.93,366.95L374.87,367.20L376.94,366.89L378.34,365.83L384.46,363.65L387.92,362.43L387.93,362.43L387.93,362.44L385.40,365.22L381.51,369.04L378.91,371.98L374.98,373.67L372.93,373.91L370.93,374.11L367.93,374.39L365.93,374.50L364.93,374.53L363.93,374.55L359.80,369.43L360.66,370.50L360.01,370.35L358.17,367.28L357.98,363.39L356.92,359.01L355.55,351.44L355.69,348.43L355.47,341.43L354.97,333.43L355.06,329.43L354.77,321.71L355.45,314.07L356.56,309.65L357.92,305.34L358.64,297.13L360.43,291.94L361.64,291.00L363.03,290.37L364.54,290.09L366.07,290.18L367.53,290.64L368.84,291.43L369.93,292.52L370.72,293.83L371.17,295.29L371.27,296.82L370.99,298.32L370.36,299.72L369.42,300.93L369.93,300.59L369.65,299.73L370.14,300.43L370.09,301.43L370.07,304.43L370.01,306.43L369.96,307.43L369.90,309.43L369.85,310.43L368.58,314.37L367.24,314.64L367.12,317.73L365.64,320.57L364.14,322.55L362.12,328.03L361.47,328.85L360.38,333.25L359.33,336.24L358.46,338.55L356.92,345.30L354.87,347.88L354.64,351.23L353.28,355.10L349.85,358.54L347.85,359.07L347.02,360.53L343.11,362.66L340.93,363.09L338.93,363.00L337.93,362.94L336.93,362.87L333.24,361.69L330.10,357.53L329.72,355.43L331.87,359.30L328.44,355.68L327.55,353.62L326.32,350.61L325.52,346.90L324.44,342.51L324.59,340.43L324.68,335.43L324.87,332.43L325.05,330.43L325.32,325.84L326.73,318.89L327.86,317.12L331.08,309.55L336.94,299.47L339.86,296.80L346.70,288.31L354.70,284.77L355.93,284.84L358.93,285.13L363.93,285.50L366.44,286.01L370.77,288.67L372.19,290.65L372.93,290.74L375.32,295.43L375.01,297.43L374.61,299.97L370.93,305.44Z" fill="white">

</path><path d="M408.92,317.43L409.82,310.04L411.81,307.33L415.12,301.23L419.92,294.76L430.06,284.57L434.91,279.42L445.40,271.54L448.82,266.75L450.80,264.33L452.18,261.64L452.55,259.37L452.15,256.37L453.12,252.23L452.74,249.43L452.58,247.43L452.44,243.43L452.28,240.43L452.14,238.43L452.01,236.43L451.93,235.43L456.93,239.51L459.08,238.06L460.24,237.60L456.39,246.32L453.74,255.20L452.87,260.22L450.16,271.02L446.58,282.16L444.74,287.56L441.40,298.11L438.06,308.07L437.46,312.07L435.14,321.88L432.89,331.83L431.15,337.32L427.98,349.91L425.79,360.78L424.07,367.15L420.86,377.96L418.99,385.95L417.25,391.36L416.71,395.99L415.98,401.05L415.15,404.50L414.46,409.13L414.76,411.45L413.82,417.21L412.95,422.22L408.93,427.70L405.09,425.76L402.62,421.86L401.52,415.17L400.47,411.51L401.23,399.43L401.88,384.43L401.80,377.43L402.29,363.43L403.67,351.19L405.55,346.25L409.77,335.65L411.62,328.62L413.92,325.49L416.27,320.11L416.92,317.27L418.21,315.72L420.26,311.76L421.20,310.62L426.09,307.77L428.54,305.88L428.82,305.31L432.40,302.64L434.82,301.22L436.76,300.10L440.43,298.71L444.93,298.35L448.93,298.29L455.91,298.61L461.16,297.79L463.93,297.60L464.93,297.51L466.93,297.39L470.46,298.88L473.60,302.09L475.49,304.99L476.32,310.43L476.35,314.43L476.14,320.43L476.25,322.43L476.10,327.78L470.99,336.76L468.93,340.10L464.54,345.36L458.75,349.96L456.92,351.91L451.08,354.06L447.07,355.15L444.01,355.41L442.53,356.27L436.90,357.40L434.93,357.57L433.93,357.65L432.93,357.72L431.93,357.79L430.93,357.86L429.93,357.93L428.93,357.99L426.93,358.08L422.74,357.65L420.04,356.02L420.93,357.29L419.93,357.34L418.51,357.17L417.18,356.66L416.01,355.86L415.06,354.79L414.40,353.53L414.06,352.15L414.06,350.72L414.40,349.34L415.06,348.08L416.01,347.01L417.18,346.20L418.51,345.70L419.93,345.53L423.15,346.02L427.15,348.20L430.43,350.77L434.90,355.46L438.78,359.60L445.45,370.96L453.62,382.23L457.49,385.91L461.76,393.78L465.25,397.11L467.32,399.04L470.28,402.07L473.77,404.96L475.27,405.74L479.33,408.33L480.87,411.14L481.87,411.50L486.18,413.18L491.93,415.42L491.93,415.43L491.92,415.44L485.67,415.69L479.98,415.37L476.99,413.73L476.52,412.54L472.58,411.13L470.08,409.91L465.57,406.80L462.53,403.83L460.60,401.76L456.09,397.09L452.36,390.96L448.23,386.64L438.40,375.90L431.08,367.26L426.95,363.41L423.42,360.10L418.70,356.67L420.70,356.85L419.93,357.34L418.51,357.17L417.18,356.66L416.01,355.86L415.06,354.79L414.40,353.53L414.06,352.15L414.06,350.72L414.40,349.34L415.06,348.08L416.01,347.01L417.18,346.20L418.51,345.70L419.93,345.53L420.93,345.58L425.81,346.85L425.11,347.22L426.93,346.79L428.93,346.88L429.93,346.94L430.93,347.01L431.93,347.08L432.93,347.15L433.93,347.22L434.95,347.47L439.32,346.60L443.84,345.46L444.78,345.71L448.77,344.81L450.93,344.96L453.10,342.91L457.31,339.51L460.92,334.76L462.86,332.11L465.75,327.09L465.61,322.43L465.71,320.43L465.51,314.43L465.53,310.43L466.36,309.88L464.25,306.78L465.39,305.99L466.93,307.48L464.93,307.35L463.93,307.27L462.69,307.07L455.94,308.25L448.93,308.58L444.93,308.52L443.42,308.16L441.09,308.77L439.03,309.64L437.45,310.23L435.03,311.56L433.31,312.98L429.76,315.09L426.65,316.25L425.60,317.10L424.16,317.17L423.64,319.14L422.93,319.60L421.58,322.76L417.93,329.38L416.24,330.25L414.08,337.22L410.30,348.62L408.18,351.68L407.56,363.43L408.05,377.43L407.97,384.43L408.62,399.43L409.38,409.35L410.33,413.70L411.23,419.01L410.76,421.11L408.93,419.17L404.91,420.65L406.03,415.65L407.10,411.42L407.39,407.74L408.70,402.36L409.87,399.82L411.15,394.88L412.60,389.51L414.86,384.92L416.99,376.91L419.79,365.72L422.06,360.09L423.87,348.96L426.70,335.55L428.96,331.04L430.71,320.99L432.39,310.80L433.79,306.79L436.45,296.76L439.11,285.31L441.28,280.71L443.70,269.85L444.98,258.65L446.12,253.67L447.46,242.54L449.61,237.26L450.77,232.81L454.86,229.73L456.93,229.36L461.92,235.43L461.84,236.43L461.71,238.43L461.57,240.43L461.41,243.43L461.27,247.43L461.11,249.43L460.73,254.63L459.70,256.50L459.30,261.50L457.67,265.23L455.05,268.54L453.03,270.12L448.45,275.32L438.94,283.45L433.79,288.30L423.93,298.11L418.73,303.64L414.04,309.54L412.03,310.83L408.94,317.44Z" fill="white">

</path>
</mask>
</svg>