<svg width="800" height="600" viewBox="0 0 800 600" xmlns="http://www.w3.org/2000/svg" xmlns:xlink="http://www.w3.org/1999/xlink" data-cache="1714886800110">
<style>
path.line-0 {
  stroke-dasharray: 504 509;
  stroke-dashoffset: 504;
  animation: draw-0 7437.695211273935ms linear forwards infinite;
}
@keyframes draw-0 {
  0% { stroke-dashoffset: 504; }
  13.54% { stroke-dashoffset: 0; }
  97.74% { stroke-dashoffset: 0; }
  98.88% { stroke-dashoffset: 504; }
  100% { stroke-dashoffset: 504; }
}
path.line-1 {
  stroke-dasharray: 207 212;
  stroke-dashoffset: 207;
  animation: draw-1 7437.695211273935ms linear forwards infinite;
}
@keyframes draw-1 {
  0% { stroke-dashoffset: 207; }
  13.54173567230709% { stroke-dashoffset: 207; }
  19.10% { stroke-dashoffset: 0; }
  97.37% { stroke-dashoffset: 0; }
  97.84% { stroke-dashoffset: 207; }
  100% { stroke-dashoffset: 207; }
}
path.line-2 {
  stroke-dasharray: 380 385;
  stroke-dashoffset: 380;
  animation: draw-2 7437.695211273935ms linear forwards infinite;
}
@keyframes draw-2 {
  0% { stroke-dashoffset: 380; }
  19.104463708435386% { stroke-dashoffset: 380; }
  29.31% { stroke-dashoffset: 0; }
  96.68% { stroke-dashoffset: 0; }
  97.54% { stroke-dashoffset: 380; }
  100% { stroke-dashoffset: 380; }
}
path.line-3 {
  stroke-dasharray: 274 279;
  stroke-dashoffset: 274;
  animation: draw-3 7437.695211273935ms linear forwards infinite;
}
@keyframes draw-3 {
  0% { stroke-dashoffset: 274; }
  29.309982540569244% { stroke-dashoffset: 274; }
  36.68% { stroke-dashoffset: 0; }
  96.18% { stroke-dashoffset: 0; }
  96.81% { stroke-dashoffset: 274; }
  100% { stroke-dashoffset: 274; }
}
path.line-4 {
  stroke-dasharray: 518 523;
  stroke-dashoffset: 518;
  animation: draw-4 7437.695211273935ms linear forwards infinite;
}
@keyframes draw-4 {
  0% { stroke-dashoffset: 518; }
  36.677846032316324% { stroke-dashoffset: 518; }
  50.61% { stroke-dashoffset: 0; }
  95.25% { stroke-dashoffset: 0; }
  96.42% { stroke-dashoffset: 518; }
  100% { stroke-dashoffset: 518; }
}
path.line-5 {
  stroke-dasharray: 422 427;
  stroke-dashoffset: 422;
  animation: draw-5 7437.695211273935ms linear forwards infinite;
}
@keyframes draw-5 {
  0% { stroke-dashoffset: 422; }
  50.606009279376465% { stroke-dashoffset: 422; }
  61.96% { stroke-dashoffset: 0; }
  94.48% { stroke-dashoffset: 0; }
  95.44% { stroke-dashoffset: 422; }
  100% { stroke-dashoffset: 422; }
}
path.line-6 {
  stroke-dasharray: 197 202;
  stroke-dashoffset: 197;
  animation: draw-6 7437.695211273935ms linear forwards infinite;
}
@keyframes draw-6 {
  0% { stroke-dashoffset: 197; }
  61.95801851827065% { stroke-dashoffset: 197; }
  67.24% { stroke-dashoffset: 0; }
  94.13% { stroke-dashoffset: 0; }
  94.57% { stroke-dashoffset: 197; }
  100% { stroke-dashoffset: 197; }
}
path.line-7 {
  stroke-dasharray: 64 69;
  stroke-dashoffset: 64;
  animation: draw-7 7437.695211273935ms linear forwards infinite;
}
@keyframes draw-7 {
  0% { stroke-dashoffset: 64; }
  67.24268440626531% { stroke-dashoffset: 64; }
  68.95% { stroke-dashoffset: 0; }
  94.01% { stroke-dashoffset: 0; }
  94.15% { stroke-dashoffset: 64; }
  100% { stroke-dashoffset: 64; }
}
path.line-8 {
  stroke-dasharray: 25 30;
  stroke-dashoffset: 25;
  animation: draw-8 7437.695211273935ms linear forwards infinite;
}
@keyframes draw-8 {
  0% { stroke-dashoffset: 25; }
  68.95427527250725% { stroke-dashoffset: 25; }
  69.62% { stroke-dashoffset: 0; }
  93.97% { stroke-dashoffset: 0; }
  94.02% { stroke-dashoffset: 25; }
  100% { stroke-dashoffset: 25; }
}
path.line-9 {
  stroke-dasharray: 167 172;
  stroke-dashoffset: 167;
  animation: draw-9 7437.695211273935ms linear forwards infinite;
}
@keyframes draw-9 {
  0% { stroke-dashoffset: 167; }
  69.62347046834293% { stroke-dashoffset: 167; }
  74.12% { stroke-dashoffset: 0; }
  93.66% { stroke-dashoffset: 0; }
  94.04% { stroke-dashoffset: 167; }
  100% { stroke-dashoffset: 167; }
}
path.line-10 {
  stroke-dasharray: 33 38;
  stroke-dashoffset: 33;
  animation: draw-10 7437.695211273935ms linear forwards infinite;
}
@keyframes draw-10 {
  0% { stroke-dashoffset: 33; }
  74.11583546744782% { stroke-dashoffset: 33; }
  74.99% { stroke-dashoffset: 0; }
  93.60% { stroke-dashoffset: 0; }
  93.68% { stroke-dashoffset: 33; }
  100% { stroke-dashoffset: 33; }
}
path.line-11 {
  stroke-dasharray: 140 145;
  stroke-dashoffset: 140;
  animation: draw-11 7437.695211273935ms linear forwards infinite;
}
@keyframes draw-11 {
  0% { stroke-dashoffset: 140; }
  74.99240818864817% { stroke-dashoffset: 140; }
  78.75% { stroke-dashoffset: 0; }
  93.35% { stroke-dashoffset: 0; }
  93.67% { stroke-dashoffset: 140; }
  100% { stroke-dashoffset: 140; }
}
path.line-12 {
  stroke-dasharray: 40 45;
  stroke-dashoffset: 40;
  animation: draw-12 7437.695211273935ms linear forwards infinite;
}
@keyframes draw-12 {
  0% { stroke-dashoffset: 40; }
  78.7482464535619% { stroke-dashoffset: 40; }
  79.83% { stroke-dashoffset: 0; }
  93.28% { stroke-dashoffset: 0; }
  93.37% { stroke-dashoffset: 40; }
  100% { stroke-dashoffset: 40; }
}
</style><rect x="0" y="0" width="800" height="600" fill="#fff">

</rect><g mask="url(#brush)">
<path d="M53.925,226.206L56.425,225.206C58.925,224.206,63.925,222.206,68.259,219.206C72.592,216.206,76.259,212.206,79.092,209.039C81.925,205.873,83.925,203.539,87.259,199.873C90.592,196.206,95.259,191.206,99.925,186.206C104.592,181.206,109.259,176.206,112.759,172.206C116.259,168.206,118.592,165.206,121.592,161.373C124.592,157.539,128.259,152.873,131.092,148.539C133.925,144.206,135.925,140.206,137.425,137.206C138.925,134.206,139.925,132.206,140.759,129.873C141.592,127.539,142.259,124.873,142.092,124.706C141.925,124.539,140.925,126.873,139.592,130.039C138.259,133.206,136.592,137.206,134.925,141.039C133.259,144.873,131.592,148.539,130.425,151.539C129.259,154.539,128.592,156.873,127.592,159.873C126.592,162.873,125.259,166.539,124.592,169.873C123.925,173.206,123.925,176.206,123.925,178.873C123.925,181.539,123.925,183.873,125.592,184.873C127.259,185.873,130.592,185.539,133.425,184.539C136.259,183.539,138.592,181.873,141.259,179.706C143.925,177.539,146.925,174.873,149.259,172.873C151.592,170.873,153.259,169.539,155.592,167.206C157.925,164.873,160.925,161.539,164.092,158.539C167.259,155.539,170.592,152.873,172.925,150.706C175.259,148.539,176.592,146.873,178.425,144.706C180.259,142.539,182.592,139.873,184.592,137.539C186.592,135.206,188.259,133.206,188.925,133.539C189.592,133.873,189.259,136.539,188.425,139.206C187.592,141.873,186.259,144.539,184.425,148.873C182.592,153.206,180.259,159.206,177.925,165.039C175.592,170.873,173.259,176.539,171.425,181.206C169.592,185.873,168.259,189.539,166.425,194.706C164.592,199.873,162.259,206.539,160.092,213.039C157.925,219.539,155.925,225.873,154.425,230.539C152.925,235.206,151.925,238.206,151.425,242.039C150.925,245.873,150.925,250.539,150.925,254.039C150.925,257.539,150.925,259.873,152.759,260.373C154.592,260.873,158.259,259.539,162.092,256.706C165.925,253.873,169.925,249.539,172.592,246.539C175.259,243.539,176.592,241.873,177.592,240.706C178.592,239.539,179.259,238.873,179.592,238.539L179.925,238.206" stroke-width="9.904596074066864" stroke-linecap="round" stroke-linejoin="round" stroke="#000" fill="none" class="line-0">

</path><path d="M213.925,206.206L212.759,206.039C211.592,205.873,209.259,205.539,207.092,205.873C204.925,206.206,202.925,207.206,200.592,208.873C198.259,210.539,195.592,212.873,193.092,215.539C190.592,218.206,188.259,221.206,186.425,223.539C184.592,225.873,183.259,227.539,181.925,229.539C180.592,231.539,179.259,233.873,178.592,236.206C177.925,238.539,177.925,240.873,178.592,242.873C179.259,244.873,180.592,246.539,182.425,247.206C184.259,247.873,186.592,247.539,188.925,246.873C191.259,246.206,193.592,245.206,196.092,244.039C198.592,242.873,201.259,241.539,203.592,239.539C205.925,237.539,207.925,234.873,209.592,232.539C211.259,230.206,212.592,228.206,213.592,225.873C214.592,223.539,215.259,220.873,215.259,218.373C215.259,215.873,214.592,213.539,213.259,211.539C211.925,209.539,209.925,207.873,209.925,208.039C209.925,208.206,211.925,210.206,213.592,212.873C215.259,215.539,216.592,218.873,217.592,221.706C218.592,224.539,219.259,226.873,219.925,229.206C220.592,231.539,221.259,233.873,221.925,236.539C222.592,239.206,223.259,242.206,223.759,245.373C224.259,248.539,224.592,251.873,225.259,254.539C225.925,257.206,226.925,259.206,227.425,260.206L227.925,261.206" stroke-width="9.904596074066864" stroke-linecap="round" stroke-linejoin="round" stroke="#000" fill="none" class="line-1">

</path><path d="M237.925,211.206L238.759,210.039C239.592,208.873,241.259,206.539,243.592,204.706C245.925,202.873,248.925,201.539,251.759,200.039C254.592,198.539,257.259,196.873,260.259,195.373C263.259,193.873,266.592,192.539,270.592,190.206C274.592,187.873,279.259,184.539,282.925,182.039C286.592,179.539,289.259,177.873,291.759,175.873C294.259,173.873,296.592,171.539,298.759,169.039C300.925,166.539,302.925,163.873,303.925,161.206C304.925,158.539,304.925,155.873,304.425,153.539C303.925,151.206,302.925,149.206,301.259,148.039C299.592,146.873,297.259,146.539,295.259,147.373C293.259,148.206,291.592,150.206,289.925,152.206C288.259,154.206,286.592,156.206,285.259,158.206C283.925,160.206,282.925,162.206,281.925,164.539C280.925,166.873,279.925,169.539,278.925,172.373C277.925,175.206,276.925,178.206,275.759,181.206C274.592,184.206,273.259,187.206,272.259,189.873C271.259,192.539,270.592,194.873,269.759,197.873C268.925,200.873,267.925,204.539,266.925,208.039C265.925,211.539,264.925,214.873,263.592,218.706C262.259,222.539,260.592,226.873,259.259,230.706C257.925,234.539,256.925,237.873,255.759,241.206C254.592,244.539,253.259,247.873,252.092,250.706C250.925,253.539,249.925,255.873,248.925,258.206C247.925,260.539,246.925,262.873,246.425,262.206C245.925,261.539,245.925,257.873,246.425,254.873C246.925,251.873,247.925,249.539,249.592,246.706C251.259,243.873,253.592,240.539,255.925,237.539C258.259,234.539,260.592,231.873,263.259,229.373C265.925,226.873,268.925,224.539,271.592,222.873C274.259,221.206,276.592,220.206,278.925,220.206C281.259,220.206,283.592,221.206,285.259,222.873C286.925,224.539,287.925,226.873,288.425,229.706C288.925,232.539,288.925,235.873,288.925,239.206C288.925,242.539,288.925,245.873,288.925,248.706C288.925,251.539,288.925,253.873,288.925,256.206C288.925,258.539,288.925,260.873,290.092,261.706C291.259,262.539,293.592,261.873,295.592,260.706C297.592,259.539,299.259,257.873,300.759,256.206C302.259,254.539,303.592,252.873,304.425,251.206C305.259,249.539,305.592,247.873,305.759,247.039L305.925,246.206" stroke-width="9.904596074066864" stroke-linecap="round" stroke-linejoin="round" stroke="#000" fill="none" class="line-2">

</path><path d="M368.925,212.206L367.425,211.539C365.925,210.873,362.925,209.539,360.092,208.873C357.259,208.206,354.592,208.206,352.092,208.206C349.592,208.206,347.259,208.206,345.092,209.039C342.925,209.873,340.925,211.539,339.425,213.373C337.925,215.206,336.925,217.206,336.259,219.373C335.592,221.539,335.259,223.873,335.092,226.373C334.925,228.873,334.925,231.539,334.925,234.373C334.925,237.206,334.925,240.206,334.925,243.039C334.925,245.873,334.925,248.539,334.925,251.039C334.925,253.539,334.925,255.873,335.425,258.206C335.925,260.539,336.925,262.873,339.092,264.039C341.259,265.206,344.592,265.206,347.259,264.206C349.925,263.206,351.925,261.206,353.925,258.873C355.925,256.539,357.925,253.873,359.759,251.539C361.592,249.206,363.259,247.206,364.759,245.373C366.259,243.539,367.592,241.873,368.425,239.706C369.259,237.539,369.592,234.873,369.759,232.206C369.925,229.539,369.925,226.873,369.925,224.373C369.925,221.873,369.925,219.539,368.925,217.706C367.925,215.873,365.925,214.539,363.759,213.373C361.592,212.206,359.259,211.206,359.259,211.039C359.259,210.873,361.592,211.539,363.592,212.539C365.592,213.539,367.259,214.873,368.592,216.873C369.925,218.873,370.925,221.539,371.592,224.206C372.259,226.873,372.592,229.539,372.925,232.206C373.259,234.873,373.592,237.539,373.759,240.039C373.925,242.539,373.925,244.873,373.925,247.373C373.925,249.873,373.925,252.539,374.092,255.039C374.259,257.539,374.592,259.873,375.259,262.039C375.925,264.206,376.925,266.206,378.759,267.206C380.592,268.206,383.259,268.206,385.259,267.373C387.259,266.539,388.592,264.873,389.759,263.039C390.925,261.206,391.925,259.206,392.759,257.039C393.592,254.873,394.259,252.539,394.592,251.373L394.925,250.206" stroke-width="9.904596074066864" stroke-linecap="round" stroke-linejoin="round" stroke="#000" fill="none" class="line-3">

</path><path d="M406.925,220.206L407.592,219.206C408.259,218.206,409.592,216.206,411.259,214.539C412.925,212.873,414.925,211.539,417.425,210.206C419.925,208.873,422.925,207.539,425.759,206.039C428.592,204.539,431.259,202.873,433.925,201.539C436.592,200.206,439.259,199.206,442.592,197.539C445.925,195.873,449.925,193.539,453.092,191.539C456.259,189.539,458.592,187.873,460.425,186.039C462.259,184.206,463.592,182.206,465.092,179.873C466.592,177.539,468.259,174.873,469.425,172.373C470.592,169.873,471.259,167.539,471.425,165.206C471.592,162.873,471.259,160.539,469.925,158.873C468.592,157.206,466.259,156.206,464.092,156.873C461.925,157.539,459.925,159.873,458.259,162.039C456.592,164.206,455.259,166.206,453.925,168.706C452.592,171.206,451.259,174.206,450.259,176.873C449.259,179.539,448.592,181.873,447.592,184.373C446.592,186.873,445.259,189.539,444.092,192.373C442.925,195.206,441.925,198.206,440.759,201.039C439.592,203.873,438.259,206.539,436.925,210.039C435.592,213.539,434.259,217.873,433.259,221.373C432.259,224.873,431.592,227.539,430.759,230.039C429.925,232.539,428.925,234.873,427.759,238.039C426.592,241.206,425.259,245.206,424.092,249.039C422.925,252.873,421.925,256.539,421.092,259.706C420.259,262.873,419.592,265.539,418.592,268.206C417.592,270.873,416.259,273.539,415.592,276.039C414.925,278.539,414.925,280.873,414.759,283.206C414.592,285.539,414.259,287.873,413.925,287.539C413.592,287.206,413.259,284.206,413.092,281.539C412.925,278.873,412.925,276.539,413.092,273.539C413.259,270.539,413.592,266.873,414.092,263.539C414.592,260.206,415.259,257.206,416.259,254.039C417.259,250.873,418.592,247.539,419.759,244.873C420.925,242.206,421.925,240.206,423.092,238.373C424.259,236.539,425.592,234.873,426.925,233.039C428.259,231.206,429.592,229.206,431.092,227.206C432.592,225.206,434.259,223.206,436.259,221.206C438.259,219.206,440.592,217.206,442.759,215.539C444.925,213.873,446.925,212.539,449.092,211.539C451.259,210.539,453.592,209.873,455.759,210.539C457.925,211.206,459.925,213.206,461.259,215.373C462.592,217.539,463.259,219.873,463.425,222.206C463.592,224.539,463.259,226.873,462.092,228.873C460.925,230.873,458.925,232.539,457.092,234.039C455.259,235.539,453.592,236.873,451.425,237.706C449.259,238.539,446.592,238.873,444.092,238.706C441.592,238.539,439.259,237.873,436.925,237.206C434.592,236.539,432.259,235.873,431.925,237.039C431.592,238.206,433.259,241.206,434.592,243.873C435.925,246.539,436.925,248.873,438.092,251.039C439.259,253.206,440.592,255.206,442.092,257.039C443.592,258.873,445.259,260.539,446.925,262.039C448.592,263.539,450.259,264.873,451.925,266.206C453.592,267.539,455.259,268.873,457.259,270.039C459.259,271.206,461.592,272.206,463.759,273.206C465.925,274.206,467.925,275.206,470.092,275.706C472.259,276.206,474.592,276.206,476.759,275.706C478.925,275.206,480.925,274.206,482.425,272.706C483.925,271.206,484.925,269.206,485.592,267.206C486.259,265.206,486.592,263.206,486.759,262.206L486.925,261.206" stroke-width="9.904596074066864" stroke-linecap="round" stroke-linejoin="round" stroke="#000" fill="none" class="line-4">

</path><path d="M153.925,444.206L154.425,443.206C154.925,442.206,155.925,440.206,156.925,438.039C157.925,435.873,158.925,433.539,160.092,431.206C161.259,428.873,162.592,426.539,163.759,424.206C164.925,421.873,165.925,419.539,167.592,416.873C169.259,414.206,171.592,411.206,173.425,408.539C175.259,405.873,176.592,403.539,179.259,400.206C181.925,396.873,185.925,392.539,188.759,389.206C191.592,385.873,193.259,383.539,195.925,380.539C198.592,377.539,202.259,373.873,205.592,370.039C208.925,366.206,211.925,362.206,214.092,359.373C216.259,356.539,217.592,354.873,219.425,352.706C221.259,350.539,223.592,347.873,225.425,345.539C227.259,343.206,228.592,341.206,230.425,338.539C232.259,335.873,234.592,332.539,236.592,330.206C238.592,327.873,240.259,326.539,241.759,324.706C243.259,322.873,244.592,320.539,245.759,318.206C246.925,315.873,247.925,313.539,248.925,310.706C249.925,307.873,250.925,304.539,250.092,303.039C249.259,301.539,246.592,301.873,244.259,303.539C241.925,305.206,239.925,308.206,238.425,310.706C236.925,313.206,235.925,315.206,235.425,317.706C234.925,320.206,234.925,323.206,234.925,325.873C234.925,328.539,234.925,330.873,236.092,333.206C237.259,335.539,239.592,337.873,241.592,340.539C243.592,343.206,245.259,346.206,246.592,349.373C247.925,352.539,248.925,355.873,249.425,358.706C249.925,361.539,249.925,363.873,249.925,366.373C249.925,368.873,249.925,371.539,249.259,374.706C248.592,377.873,247.259,381.539,245.592,384.706C243.925,387.873,241.925,390.539,239.759,392.706C237.592,394.873,235.259,396.539,232.259,397.873C229.259,399.206,225.592,400.206,222.592,400.706C219.592,401.206,217.259,401.206,214.759,400.706C212.259,400.206,209.592,399.206,207.759,397.706C205.925,396.206,204.925,394.206,204.759,391.873C204.592,389.539,205.259,386.873,206.592,385.039C207.925,383.206,209.925,382.206,211.592,382.539C213.259,382.873,214.592,384.539,215.759,386.706C216.925,388.873,217.925,391.539,218.759,394.373C219.592,397.206,220.259,400.206,220.925,402.873C221.592,405.539,222.259,407.873,223.259,410.539C224.259,413.206,225.592,416.206,226.925,419.039C228.259,421.873,229.592,424.539,231.425,426.206C233.259,427.873,235.592,428.539,237.425,428.039C239.259,427.539,240.592,425.873,241.425,424.706C242.259,423.539,242.592,422.873,242.759,422.539L242.925,422.206" stroke-width="9.904596074066864" stroke-linecap="round" stroke-linejoin="round" stroke="#000" fill="none" class="line-5">

</path><path d="M304.925,346.206L303.425,346.539C301.925,346.873,298.925,347.539,296.092,348.873C293.259,350.206,290.592,352.206,288.259,354.039C285.925,355.873,283.925,357.539,282.425,359.373C280.925,361.206,279.925,363.206,279.259,365.373C278.592,367.539,278.259,369.873,278.092,372.373C277.925,374.873,277.925,377.539,278.592,380.206C279.259,382.873,280.592,385.539,282.092,387.539C283.592,389.539,285.259,390.873,287.259,391.539C289.259,392.206,291.592,392.206,293.425,391.039C295.259,389.873,296.592,387.539,297.759,384.706C298.925,381.873,299.925,378.539,300.759,375.539C301.592,372.539,302.259,369.873,302.592,367.373C302.925,364.873,302.925,362.539,302.925,362.873C302.925,363.206,302.925,366.206,302.925,368.873C302.925,371.539,302.925,373.873,303.425,376.706C303.925,379.539,304.925,382.873,305.759,385.873C306.592,388.873,307.259,391.539,308.259,394.039C309.259,396.539,310.592,398.873,312.592,400.206C314.592,401.539,317.259,401.873,319.925,401.873C322.592,401.873,325.259,401.539,327.592,400.206C329.925,398.873,331.925,396.539,333.425,394.373C334.925,392.206,335.925,390.206,336.425,389.206L336.925,388.206" stroke-width="9.904596074066864" stroke-linecap="round" stroke-linejoin="round" stroke="#000" fill="none" class="line-6">

</path><path d="M352.925,353.206L352.259,354.039C351.592,354.873,350.259,356.539,349.425,358.539C348.592,360.539,348.259,362.873,347.759,366.039C347.259,369.206,346.592,373.206,346.259,376.373C345.925,379.539,345.925,381.873,345.925,384.206C345.925,386.539,345.925,388.873,346.425,391.039C346.925,393.206,347.925,395.206,349.592,396.039C351.259,396.873,353.592,396.539,354.759,395.206C355.925,393.873,355.925,391.539,355.925,390.373L355.925,389.206" stroke-width="9.904596074066864" stroke-linecap="round" stroke-linejoin="round" stroke="#000" fill="none" class="line-7">

</path><path d="M363.925,313.206L362.759,313.206C361.592,313.206,359.259,313.206,357.425,313.539C355.592,313.873,354.259,314.539,353.592,314.873L352.925,315.206" stroke-width="9.904596074066864" stroke-linecap="round" stroke-linejoin="round" stroke="#000" fill="none" class="line-8">

</path><path d="M386.925,359.206L387.259,360.706C387.592,362.206,388.259,365.206,388.425,368.539C388.592,371.873,388.259,375.539,387.592,378.706C386.925,381.873,385.925,384.539,385.259,387.539C384.592,390.539,384.259,393.873,383.759,396.873C383.259,399.873,382.592,402.539,382.092,402.539C381.592,402.539,381.259,399.873,381.092,397.373C380.925,394.873,380.925,392.539,381.592,390.039C382.259,387.539,383.592,384.873,384.925,382.539C386.259,380.206,387.592,378.206,389.425,376.206C391.259,374.206,393.592,372.206,395.925,370.873C398.259,369.539,400.592,368.873,402.925,368.706C405.259,368.539,407.592,368.873,408.925,370.373C410.259,371.873,410.592,374.539,410.759,377.539C410.925,380.539,410.925,383.873,410.925,386.706C410.925,389.539,410.925,391.873,410.592,394.373C410.259,396.873,409.592,399.539,409.259,402.039C408.925,404.539,408.925,406.873,409.759,408.706C410.592,410.539,412.259,411.873,414.092,412.039C415.925,412.206,417.925,411.206,418.925,410.706L419.925,410.206" stroke-width="9.904596074066864" stroke-linecap="round" stroke-linejoin="round" stroke="#000" fill="none" class="line-9">

</path><path d="M371.925,361.206L373.092,361.206C374.259,361.206,376.592,361.206,378.759,361.873C380.925,362.539,382.925,363.873,384.592,365.373C386.259,366.873,387.592,368.539,388.925,370.206C390.259,371.873,391.592,373.539,392.759,374.873C393.925,376.206,394.925,377.206,395.425,377.706L395.925,378.206" stroke-width="9.904596074066864" stroke-linecap="round" stroke-linejoin="round" stroke="#000" fill="none" class="line-10">

</path><path d="M431.925,403.206L432.759,402.539C433.592,401.873,435.259,400.539,436.592,398.873C437.925,397.206,438.925,395.206,439.759,393.039C440.592,390.873,441.259,388.539,441.925,386.206C442.592,383.873,443.259,381.539,444.092,378.873C444.925,376.206,445.925,373.206,446.425,370.539C446.925,367.873,446.925,365.539,446.925,363.206C446.925,360.873,446.925,358.539,446.259,358.373C445.592,358.206,444.259,360.206,443.425,362.373C442.592,364.539,442.259,366.873,442.092,369.373C441.925,371.873,441.925,374.539,441.925,377.039C441.925,379.539,441.925,381.873,441.925,384.206C441.925,386.539,441.925,388.873,441.925,391.706C441.925,394.539,441.925,397.873,441.925,401.039C441.925,404.206,441.925,407.206,442.425,410.039C442.925,412.873,443.925,415.539,445.592,417.039C447.259,418.539,449.592,418.873,451.259,419.039C452.925,419.206,453.925,419.206,454.425,419.206L454.925,419.206" stroke-width="9.904596074066864" stroke-linecap="round" stroke-linejoin="round" stroke="#000" fill="none" class="line-11">

</path><path d="M462.925,315.206L461.425,315.539C459.925,315.873,456.925,316.539,454.592,317.539C452.259,318.539,450.592,319.873,450.592,320.539C450.592,321.206,452.259,321.206,453.092,321.206L453.925,321.206" stroke-width="9.904596074066864" stroke-linecap="round" stroke-linejoin="round" stroke="#000" fill="none" class="line-12">

</path>
</g><mask id="brush">
<rect x="0" y="0" width="100%" height="100%" fill="black">

</rect><path d="M53.94,226.21L54.21,232.42L54.12,232.72L53.96,232.99L53.74,233.21L53.48,233.38L53.18,233.48L52.87,233.50L52.56,233.45L52.27,233.33L52.02,233.14L51.83,232.90L51.69,232.61L51.63,232.31L51.65,231.99L55.42,229.77L58.69,226.56L67.43,218.53L78.32,206.73L84.34,199.85L98.55,184.92L112.66,170.02L119.64,161.21L130.71,147.26L136.59,135.54L139.23,129.37L140.94,121.71L141.55,117.63L141.41,116.58L141.63,115.99L141.99,115.48L142.46,115.06L143.01,114.78L143.62,114.63L144.25,114.63L144.85,114.78L145.41,115.07L145.87,115.49L146.23,116.01L146.45,116.59L146.52,117.21L146.44,117.84L146.74,120.34L144.74,125.61L143.06,130.46L142.37,133.35L137.68,142.43L132.25,153.26L130.51,159.95L126.11,170.95L126.17,179.21L126.44,181.21L126.76,184.21L126.73,185.57L125.91,184.52L129.24,182.80L132.94,181.65L138.96,177.46L148.06,170.10L153.04,165.87L162.04,156.50L172.53,148.49L175.96,143.64L183.28,135.76L187.10,131.44L187.38,130.08L189.93,127.25L194.02,130.21L194.29,133.21L194.46,135.37L192.31,140.90L187.93,148.69L187.42,152.09L180.67,166.38L173.26,183.17L168.99,193.96L161.78,213.85L155.63,232.75L152.59,241.73L152.56,255.21L152.88,262.21L153.01,264.73L152.80,263.65L153.64,262.74L160.44,256.74L163.20,252.14L173.30,244.51L179.92,238.20L179.93,238.21L179.93,238.21L174.55,245.90L166.65,254.27L163.41,259.67L156.21,267.67L153.05,268.76L150.70,268.16L148.84,265.68L148.97,262.21L149.29,255.21L149.26,240.68L152.22,231.67L158.07,212.56L164.86,192.45L168.59,181.24L175.19,164.03L180.43,150.32L181.92,145.72L185.54,137.51L187.39,135.04L187.56,133.21L187.84,130.21L189.93,133.16L192.47,132.33L190.75,134.97L186.57,138.65L179.89,146.78L175.32,151.93L165.81,159.91L156.81,170.55L151.79,174.31L142.89,182.95L134.91,188.77L130.61,189.61L123.94,189.90L121.12,186.84L121.09,184.21L121.42,181.21L121.69,179.21L121.74,169.46L125.34,158.47L127.60,151.15L132.17,139.98L135.49,131.06L136.79,127.95L139.11,122.80L141.11,120.07L141.33,118.21L141.41,116.58L141.63,115.99L141.99,115.48L142.46,115.06L143.01,114.78L143.62,114.63L144.25,114.63L144.85,114.78L145.41,115.07L145.87,115.49L146.23,116.01L146.45,116.59L146.52,117.21L146.44,117.84L146.30,118.78L144.91,122.70L142.62,131.04L139.26,136.87L133.14,149.16L122.21,163.20L115.19,172.39L101.30,187.49L87.51,202.57L81.53,209.68L70.42,221.88L61.16,229.85L56.43,232.65L54.21,232.42L54.12,232.72L53.96,232.99L53.74,233.21L53.48,233.38L53.18,233.48L52.87,233.50L52.56,233.45L52.27,233.33L52.02,233.14L51.83,232.90L51.69,232.61L51.63,232.31L51.65,231.99L53.92,226.20Z" fill="white">

</path><path d="M213.92,206.22L206.74,206.52L205.93,206.69L203.63,206.74L202.04,210.02L200.27,210.09L199.71,213.77L195.19,218.11L194.31,220.46L189.07,226.83L185.24,231.74L185.07,233.66L181.69,238.35L182.46,241.21L182.55,242.21L182.64,243.21L182.78,245.21L182.86,246.21L181.41,244.73L181.98,243.56L184.89,242.87L187.60,242.01L188.48,241.32L193.94,239.25L197.54,237.44L201.07,235.92L201.21,233.75L206.26,228.54L208.13,226.54L209.13,224.09L209.05,221.10L210.96,217.60L210.70,216.56L210.36,215.21L210.76,214.38L210.88,216.25L209.77,215.23L208.67,212.69L208.16,213.82L205.98,212.34L203.08,209.43L201.35,207.64L200.33,205.47L201.84,208.10L199.52,207.61L198.60,206.43L197.98,205.06L197.71,203.58L197.80,202.08L198.25,200.65L199.03,199.37L200.09,198.31L201.37,197.53L202.80,197.08L204.30,196.99L205.78,197.26L207.15,197.88L208.33,198.81L211.36,200.77L210.24,200.39L215.44,203.70L219.10,209.25L219.95,213.63L221.04,213.83L223.29,220.06L224.10,221.68L225.20,228.15L225.74,233.20L226.24,234.10L227.03,240.38L227.48,244.32L228.00,247.24L227.67,251.21L226.87,255.21L226.66,256.21L226.21,258.21L225.88,258.99L227.93,261.20L227.93,261.21L227.93,261.22L223.97,259.42L223.64,258.21L223.19,256.21L222.99,255.21L222.18,251.21L221.85,249.17L220.37,246.10L218.82,242.03L217.61,238.31L216.11,235.22L214.65,230.26L213.75,226.73L212.56,224.35L210.81,220.58L207.90,214.78L208.75,215.16L206.41,212.71L207.61,212.03L204.76,211.22L203.06,209.71L199.53,207.61L198.60,206.43L197.98,205.06L197.71,203.58L197.80,202.08L198.25,200.65L199.03,199.37L200.09,198.31L201.37,197.53L202.80,197.08L204.30,196.99L205.78,197.26L207.15,197.88L208.33,198.81L208.01,198.31L211.52,202.94L210.50,202.78L212.77,202.98L211.87,204.07L211.70,202.59L217.18,205.72L218.08,207.19L218.97,208.16L221.09,212.04L221.49,215.21L221.15,219.85L218.89,224.81L218.80,223.31L218.72,228.32L215.72,233.88L213.59,235.87L210.64,238.66L206.79,244.50L202.31,246.98L197.91,249.16L193.37,251.09L190.25,252.40L184.96,253.54L181.93,253.45L177.87,252.86L174.44,249.69L172.99,246.21L173.07,245.21L173.21,243.21L173.30,242.21L173.39,241.21L174.17,234.06L176.78,230.75L178.61,226.67L182.78,221.58L187.54,215.95L190.66,212.30L194.14,210.64L197.58,206.32L199.81,206.39L202.22,203.67L205.93,203.72L207.11,203.90L213.93,206.20Z" fill="white">

</path><path d="M237.92,211.20L238.92,206.68L241.77,203.03L246.80,199.27L251.22,197.57L258.43,192.79L268.92,188.76L272.12,185.81L282.47,179.12L290.69,174.25L293.02,171.30L296.80,167.15L298.04,163.71L299.50,161.79L302.02,159.37L301.03,158.21L300.83,155.21L300.66,153.21L300.56,152.21L300.46,151.21L304.93,153.81L302.95,153.50L298.46,150.56L298.94,148.95L298.93,150.29L297.17,150.35L296.75,152.02L294.19,155.41L288.87,160.57L289.66,160.80L285.87,167.15L284.38,170.41L283.81,173.43L282.68,179.18L280.10,183.93L279.76,185.83L276.26,192.35L274.26,198.46L272.07,203.20L271.26,208.83L267.31,219.23L265.29,223.88L261.96,232.22L258.50,241.98L257.77,245.16L254.69,252.39L252.94,257.41L252.04,259.74L251.50,263.17L247.74,268.17L240.88,265.21L240.70,261.21L240.54,259.19L241.58,253.29L243.85,248.18L244.50,245.65L248.14,240.37L252.24,234.73L254.67,231.95L259.67,226.50L261.49,223.57L264.89,221.13L269.65,218.31L274.78,216.72L275.72,215.98L276.48,215.33L279.93,214.24L280.93,214.16L281.93,214.08L285.87,215.01L290.33,219.25L291.85,220.41L293.97,223.98L294.56,227.21L294.64,229.21L294.63,233.21L294.70,235.21L294.66,239.21L294.60,243.21L294.63,245.21L294.50,249.21L294.17,254.21L294.14,256.21L293.85,260.21L293.82,261.21L288.93,258.43L290.71,258.63L294.49,257.50L296.59,255.87L298.94,254.22L300.12,253.40L303.81,250.40L305.92,246.21L305.93,246.21L305.94,246.21L306.04,252.01L303.74,257.01L302.91,258.20L301.26,260.54L297.36,264.91L294.90,266.16L291.14,267.78L288.93,267.98L284.03,261.21L284.00,260.21L283.71,256.21L283.68,254.21L283.35,249.21L283.22,245.21L283.25,243.21L283.19,239.21L283.15,235.21L283.22,233.21L283.21,229.21L283.29,227.21L284.00,228.01L283.11,227.02L281.52,225.17L281.98,223.40L281.93,224.33L280.93,224.26L279.93,224.18L281.37,223.08L280.13,224.44L277.07,225.70L274.20,226.10L268.97,229.28L268.36,228.84L266.18,231.91L261.19,238.46L259.62,239.69L255.71,246.05L253.35,248.76L252.00,252.24L250.27,255.12L249.31,259.22L249.15,261.21L248.97,265.21L244.11,262.24L244.35,261.24L245.81,256.67L246.91,255.00L249.16,250.02L252.08,243.26L253.35,240.43L255.89,230.19L258.56,220.53L260.54,217.18L262.59,207.58L263.78,199.22L265.59,195.95L267.59,188.06L270.09,182.59L271.75,178.48L273.17,177.24L274.04,170.99L275.47,166.01L277.98,161.26L280.20,159.61L280.98,155.85L285.66,149.01L289.10,144.39L292.48,141.51L296.68,140.06L298.93,140.12L302.91,141.47L305.39,143.85L304.93,144.60L309.39,151.21L309.29,152.21L309.19,153.21L309.02,155.21L308.82,158.21L307.83,163.04L303.81,166.71L301.05,171.26L296.83,175.11L293.17,178.16L285.39,183.29L275.73,190.61L270.93,193.65L261.42,197.62L252.63,202.84L249.06,203.14L244.09,205.38L240.93,207.73L237.93,211.21Z" fill="white">

</path><path d="M368.92,212.22L359.33,209.67L354.93,210.35L351.93,210.75L348.93,211.14L347.93,211.29L345.93,211.57L344.98,211.72L343.48,212.64L342.28,215.71L340.91,219.20L340.11,221.21L339.35,226.83L339.00,234.21L339.20,237.21L339.18,243.21L339.17,249.21L339.33,251.21L339.40,256.21L339.55,258.21L339.64,259.21L339.72,261.98L339.97,260.59L338.93,260.03L340.93,259.92L341.93,259.85L343.93,259.75L346.79,260.20L346.00,259.28L350.10,255.43L352.48,251.50L356.22,247.50L361.30,242.18L364.48,238.87L364.50,238.02L365.06,235.03L364.84,232.21L364.73,230.21L364.62,228.21L364.52,226.21L364.43,224.21L364.36,223.21L364.30,222.21L364.22,220.21L364.16,219.21L364.10,218.21L364.05,217.21L369.93,221.15L367.93,221.22L366.93,221.27L361.90,219.46L359.14,216.66L354.76,215.26L352.72,214.35L351.56,213.67L350.59,212.73L349.87,211.59L349.44,210.31L349.34,208.97L349.56,207.64L350.09,206.40L350.90,205.32L351.95,204.47L353.17,203.90L354.49,203.63L355.83,203.69L357.13,204.07L359.19,203.75L363.44,205.19L367.17,207.63L368.54,210.94L369.12,209.95L373.04,212.09L374.59,214.26L375.86,219.11L376.60,220.31L377.27,221.42L377.76,222.16L378.97,229.21L379.00,232.21L379.02,235.18L379.74,239.07L379.81,244.21L379.84,247.21L379.77,251.21L379.68,255.21L379.63,256.93L380.67,261.21L380.67,262.21L380.67,263.21L380.66,264.21L374.93,259.49L377.11,260.00L379.75,261.73L383.53,266.21L377.93,262.73L380.93,263.02L381.93,263.10L383.93,263.31L384.96,263.95L383.76,264.05L387.12,261.12L391.18,256.44L391.72,254.09L394.92,250.21L394.93,250.21L394.94,250.21L394.13,254.32L394.67,257.98L392.73,265.30L390.09,270.37L386.89,272.46L383.93,273.10L381.93,273.31L380.93,273.39L377.93,273.68L372.32,266.21L374.10,270.68L374.93,270.93L369.19,264.21L369.18,263.21L369.18,262.21L369.71,261.51L368.22,257.48L368.17,255.21L368.08,251.21L368.01,247.21L368.04,244.21L368.11,241.35L366.83,235.23L366.85,232.21L366.88,229.21L368.09,228.26L366.58,226.99L365.25,224.11L363.99,219.30L364.81,220.32L366.73,220.46L363.31,219.48L360.68,216.78L358.66,214.66L352.72,214.35L351.56,213.67L350.59,212.73L349.87,211.59L349.44,210.31L349.34,208.97L349.56,207.64L350.09,206.40L350.90,205.32L351.95,204.47L353.17,203.90L354.49,203.63L355.83,203.69L357.13,204.07L359.09,205.15L368.71,209.76L367.95,210.96L366.93,209.14L367.93,209.19L369.93,209.26L375.81,217.21L375.75,218.21L375.69,219.21L375.63,220.21L375.55,222.21L375.49,223.21L375.42,224.21L375.33,226.21L375.23,228.21L375.12,230.21L375.01,232.21L374.79,237.39L373.36,242.39L371.37,245.54L368.55,248.23L363.63,254.91L361.37,256.91L357.75,262.98L353.85,267.13L349.06,270.21L343.93,270.66L341.93,270.56L340.93,270.49L338.93,270.38L335.89,269.83L331.92,266.88L330.13,262.44L330.21,259.21L330.30,258.21L330.45,256.21L330.52,251.21L330.68,249.21L330.67,243.21L330.65,237.21L330.85,234.21L330.50,225.58L331.74,217.20L332.94,215.22L335.57,210.70L340.37,205.77L344.87,204.70L345.93,204.84L347.93,205.12L348.93,205.28L351.93,205.67L354.93,206.07L360.52,206.74L368.93,212.20Z" fill="white">

</path><path d="M406.92,220.21L406.33,214.18L410.32,212.39L411.29,210.52L415.63,207.63L420.23,204.29L424.95,202.55L432.05,198.18L440.72,195.06L442.91,193.18L452.44,188.60L455.78,184.84L459.44,183.18L462.06,178.28L465.00,175.36L464.15,174.84L466.51,169.97L466.86,167.92L467.60,163.84L467.20,163.21L467.12,160.44L466.41,160.20L467.38,158.73L466.84,159.93L467.93,160.50L465.93,160.60L465.96,159.61L466.52,161.29L461.72,166.00L459.83,167.99L458.78,170.64L455.45,175.85L455.05,178.49L452.61,185.56L447.65,194.07L445.60,197.47L445.16,201.97L440.28,210.86L439.76,214.17L436.10,223.26L433.99,230.98L430.81,238.43L430.23,242.88L426.98,250.40L427.46,252.29L423.98,261.35L421.91,269.01L419.75,273.07L418.26,277.44L418.46,283.26L417.53,287.34L417.92,290.21L413.93,297.40L408.63,293.21L408.46,290.21L408.30,287.21L408.37,281.21L408.59,274.21L408.42,271.20L409.86,262.70L412.52,253.36L414.77,249.17L416.41,243.19L419.65,236.57L420.51,234.43L424.02,230.39L425.20,227.27L427.82,224.10L430.72,221.03L431.92,219.06L435.57,213.74L440.74,210.83L442.67,209.73L445.94,207.20L448.88,205.57L451.93,205.01L447.65,210.21L452.93,203.86L453.93,203.79L461.43,209.21L462.84,209.26L465.28,210.83L468.01,214.67L469.14,216.90L469.74,222.21L469.78,225.25L468.36,231.00L465.07,235.37L460.38,238.80L459.53,239.11L458.05,241.01L453.69,243.81L450.21,244.10L443.93,245.19L442.93,245.24L441.93,245.29L440.93,245.34L438.65,244.85L434.52,242.61L435.62,242.99L432.74,241.26L434.62,242.55L430.35,241.04L431.93,241.69L430.93,241.73L423.37,235.21L429.93,240.80L428.35,240.61L426.86,240.05L425.55,239.14L424.50,237.95L423.76,236.54L423.38,235.00L423.38,233.41L423.76,231.87L424.50,230.46L425.55,229.27L426.86,228.37L428.35,227.80L429.93,227.61L436.52,235.21L436.55,236.16L436.99,238.20L436.55,236.58L440.02,241.00L440.79,245.88L441.53,244.75L443.69,248.30L445.93,251.48L447.27,254.08L448.67,254.32L451.49,258.31L452.50,258.78L453.58,261.39L453.95,260.15L458.74,264.65L458.88,263.53L461.47,265.66L462.05,266.42L463.45,266.22L466.74,267.80L468.97,269.76L469.68,269.64L475.65,275.21L469.93,270.53L470.93,270.59L471.93,270.66L473.93,270.85L475.93,271.06L476.93,271.17L478.98,272.01L477.88,272.06L479.91,272.60L482.93,269.37L482.24,270.52L483.66,268.77L483.80,267.21L484.07,266.21L484.35,265.21L484.64,264.21L484.94,263.21L486.93,261.20L486.93,261.21L486.93,261.22L486.91,263.21L487.21,264.21L487.50,265.21L487.78,266.21L488.05,267.21L488.56,269.21L487.83,271.86L487.61,273.90L484.68,276.55L482.93,277.04L485.94,275.81L483.97,278.35L480.88,280.40L476.93,281.24L475.93,281.35L473.93,281.56L471.93,281.75L470.93,281.82L469.93,281.88L464.20,275.21L466.17,280.77L461.11,278.61L460.40,278.19L453.81,275.99L452.97,274.88L449.47,271.38L449.11,269.76L449.90,272.26L444.27,269.02L443.35,267.64L442.44,266.69L440.36,264.10L441.18,264.09L436.59,260.34L435.92,258.94L432.32,253.66L429.06,248.54L429.84,247.42L427.30,245.84L424.86,242.21L423.30,236.25L423.33,235.21L429.93,240.80L428.35,240.61L426.86,240.05L425.55,239.14L424.50,237.95L423.76,236.54L423.38,235.00L423.38,233.41L423.76,231.87L424.50,230.46L425.55,229.27L426.86,228.37L428.35,227.80L429.93,227.61L436.48,235.21L430.93,228.68L431.93,228.72L435.23,229.86L439.11,231.15L438.24,231.42L441.07,232.22L443.33,233.80L440.93,233.08L441.93,233.12L442.93,233.17L443.93,233.23L445.52,233.75L450.16,232.60L451.81,233.41L450.32,233.30L453.47,229.62L456.78,227.05L457.49,227.41L458.07,225.16L458.12,222.21L458.71,221.51L457.84,219.75L458.57,219.58L455.01,217.15L450.83,211.36L450.42,209.21L453.93,214.62L452.93,214.55L458.20,210.21L451.93,215.41L452.97,214.85L451.92,215.22L447.18,218.69L445.11,219.58L442.28,220.67L440.27,221.19L439.93,223.36L437.13,227.39L434.03,230.31L432.65,231.14L429.83,236.02L427.35,237.99L426.20,239.84L423.44,245.22L421.08,253.24L419.33,255.05L417.99,263.72L417.43,271.21L417.27,274.21L417.48,281.21L417.55,287.21L417.39,290.21L417.22,293.21L413.93,289.01L409.93,290.21L410.32,285.07L411.39,283.15L411.59,274.98L414.10,269.34L415.94,267.40L417.87,259.06L420.39,252.13L420.87,248.01L423.62,241.53L425.04,235.99L427.86,229.43L429.75,221.15L432.09,212.25L433.57,207.55L436.69,200.44L438.25,192.94L440.20,190.34L443.24,182.85L444.80,175.92L446.40,170.57L449.07,165.78L452.02,160.42L454.13,158.41L457.33,155.12L461.89,150.81L465.93,149.81L467.93,149.91L471.01,150.48L474.47,153.68L475.44,156.21L476.73,159.98L476.65,163.21L476.56,164.21L476.25,166.57L475.29,168.28L475.00,170.49L473.34,174.44L471.70,175.57L470.85,179.05L467.79,182.13L462.41,189.23L460.07,189.57L455.41,193.81L446.94,199.23L443.13,201.35L435.80,204.23L426.90,209.86L423.62,210.12L418.22,212.79L414.56,213.89L411.53,216.02L407.52,216.23L406.94,220.21Z" fill="white">

</path><path d="M153.92,444.20L154.44,439.47L155.15,437.32L155.86,435.17L157.26,430.14L158.08,427.78L160.83,422.35L163.49,415.70L171.36,406.22L175.23,399.64L187.99,386.42L192.85,379.72L204.36,368.64L213.35,357.02L217.12,351.76L224.38,343.86L228.02,337.92L231.02,334.34L234.65,327.83L239.97,323.16L239.93,321.15L243.18,316.16L244.65,312.57L245.24,309.98L247.21,304.73L247.90,300.36L249.04,297.49L252.93,301.66L251.93,301.75L249.93,301.89L250.69,301.03L250.89,303.02L246.69,306.36L245.15,306.62L245.87,308.60L242.04,314.27L241.62,315.55L239.68,319.31L240.22,321.21L240.29,322.21L240.32,326.21L240.42,328.21L240.48,329.21L240.55,332.21L239.70,331.39L242.32,331.79L246.54,337.57L246.40,340.14L248.41,339.99L251.90,347.03L253.33,348.43L254.48,355.17L255.32,357.90L255.57,361.21L255.47,366.21L255.24,372.21L255.34,374.23L254.14,380.30L250.37,387.52L247.57,390.83L243.66,396.07L240.14,398.58L235.87,401.90L229.98,405.30L221.93,405.79L219.93,405.93L214.93,405.96L212.85,406.07L208.30,404.93L203.87,402.19L201.32,398.61L200.72,397.86L204.93,398.61L198.46,393.21L198.39,392.21L198.30,390.21L198.24,387.21L198.67,385.02L201.82,380.10L205.00,377.56L208.70,376.79L207.93,376.46L212.21,375.23L218.52,379.77L219.90,382.63L221.05,382.86L222.74,387.26L223.46,388.45L224.80,392.35L225.13,395.18L225.76,399.03L226.52,401.35L227.36,407.07L227.86,407.74L229.57,413.35L231.02,417.16L231.99,420.84L232.57,422.38L233.72,425.06L234.38,425.30L236.08,426.59L236.93,426.69L237.93,426.88L238.04,427.58L242.92,422.20L242.93,422.21L242.93,422.21L239.81,430.83L237.93,431.53L236.93,431.73L233.77,431.82L231.47,431.12L228.13,429.35L225.28,426.03L223.86,423.57L222.83,421.25L220.28,417.07L217.99,412.67L216.49,409.35L215.33,405.07L214.09,401.38L212.72,395.23L213.05,396.06L212.39,393.96L211.11,391.15L210.80,389.55L207.95,383.78L209.34,384.65L211.64,387.18L213.92,385.96L211.15,387.63L210.85,386.85L210.03,388.31L209.61,387.21L209.55,390.21L209.46,392.21L209.39,393.21L204.93,387.81L209.13,392.56L210.53,393.81L209.98,394.23L211.55,395.48L213.00,396.34L214.93,396.46L219.93,396.48L221.93,396.62L225.87,397.12L229.98,394.51L235.71,389.83L236.20,390.34L240.28,383.59L241.48,382.89L243.71,378.11L244.51,374.19L244.61,372.21L244.38,366.21L244.28,361.21L244.53,360.51L243.37,355.25L244.53,353.98L241.95,351.39L241.44,348.42L237.45,344.27L237.32,342.84L235.53,340.63L230.15,335.03L229.30,332.21L229.37,329.21L229.43,328.21L229.53,326.21L229.56,322.21L229.63,321.21L230.17,315.11L232.24,310.86L233.81,308.14L235.98,305.81L238.70,299.80L241.16,298.05L242.96,297.39L247.16,293.38L249.93,292.52L251.93,292.66L252.93,292.76L256.81,300.92L255.95,302.05L254.64,307.68L252.61,312.44L251.20,315.84L248.67,320.25L245.92,323.26L243.88,327.25L239.20,330.59L234.83,338.08L231.83,340.49L227.47,346.55L220.73,354.65L216.50,359.39L207.49,371.77L197.00,382.69L191.86,389.99L180.63,402.77L176.49,410.20L170.36,418.71L167.02,426.06L163.77,430.63L162.59,432.27L159.99,437.24L158.70,439.09L157.41,440.95L153.93,444.21Z" fill="white">

</path><path d="M304.93,346.22L299.08,347.80L297.12,349.99L293.24,353.50L291.53,353.86L290.32,356.60L287.62,359.91L286.71,361.08L285.15,360.92L286.35,360.21L286.43,361.42L285.17,365.41L283.43,367.71L282.66,368.60L282.97,369.80L283.38,371.21L283.47,372.21L283.58,374.21L283.66,376.21L283.72,377.21L283.71,379.93L285.27,381.53L287.19,385.57L286.65,386.77L290.88,391.21L284.93,386.20L285.93,386.15L286.93,386.10L288.93,386.05L290.93,385.99L291.93,385.95L289.84,388.85L289.11,386.95L291.42,383.74L292.63,381.82L292.88,379.74L292.72,378.91L295.36,372.75L294.90,370.92L296.43,366.46L297.31,364.73L296.68,366.21L296.64,365.21L296.63,362.21L296.59,360.21L296.54,358.21L296.50,357.21L296.46,356.21L296.43,355.21L296.39,354.21L296.58,352.64L297.14,351.17L298.03,349.87L299.21,348.83L300.61,348.09L302.14,347.72L303.71,347.72L305.24,348.09L306.64,348.83L307.82,349.87L308.71,351.17L309.27,352.64L309.46,354.21L309.46,355.21L309.50,356.21L309.53,357.21L309.57,358.21L309.60,359.21L309.62,361.21L309.60,364.21L309.62,366.21L309.60,369.21L309.57,372.21L309.46,376.21L309.49,377.16L310.18,379.63L311.67,384.09L312.11,387.21L311.34,390.98L312.59,391.27L313.76,394.93L314.50,397.43L314.51,396.24L315.71,397.79L313.93,396.68L315.93,396.81L317.93,396.97L319.93,397.15L321.89,397.37L324.94,397.14L326.49,398.09L327.27,396.42L332.61,392.89L333.80,392.19L336.92,388.21L336.93,388.21L336.94,388.21L336.05,394.23L335.24,395.52L332.58,399.99L329.37,404.32L326.91,405.27L321.96,407.04L319.93,407.26L317.93,407.45L315.93,407.60L313.93,407.73L310.14,406.62L309.34,406.18L305.35,402.98L303.68,399.82L302.10,395.48L303.26,397.15L300.51,393.43L299.74,387.21L300.18,388.33L297.67,382.78L296.36,377.25L296.39,376.21L296.28,372.21L296.26,369.21L296.23,366.21L296.25,364.21L296.23,361.21L296.25,359.21L296.28,358.21L296.32,357.21L296.35,356.21L296.39,355.21L296.39,354.21L296.58,352.64L297.14,351.17L298.03,349.87L299.21,348.83L300.61,348.09L302.14,347.72L303.71,347.72L305.24,348.09L306.64,348.83L307.82,349.87L308.71,351.17L309.27,352.64L309.46,354.21L309.42,355.21L309.39,356.21L309.35,357.21L309.31,358.21L309.26,360.21L309.22,362.21L309.21,365.21L309.17,366.21L308.54,369.68L307.42,371.96L306.95,371.49L306.50,377.67L305.13,379.50L304.97,382.67L303.22,388.59L300.43,392.68L300.74,391.46L298.02,395.56L291.93,398.46L290.93,398.42L288.93,398.37L286.93,398.31L285.93,398.26L284.93,398.21L278.97,391.21L281.20,395.65L276.66,390.85L274.58,386.88L273.64,384.85L272.14,380.48L272.13,377.21L272.19,376.21L272.28,374.21L272.39,372.21L272.47,371.21L272.88,366.62L275.19,361.81L276.69,361.00L277.42,360.99L277.50,360.21L278.70,357.49L281.14,355.33L282.23,354.51L285.53,351.81L290.61,348.91L294.73,346.42L298.77,344.61L304.93,346.20Z" fill="white">

</path><path d="M352.93,353.21L350.12,359.12L349.81,361.80L350.37,365.44L348.50,369.59L349.32,371.21L349.75,377.21L350.06,382.21L350.07,384.21L349.98,387.21L349.82,390.21L349.79,391.21L349.66,393.21L350.35,393.79L351.24,394.90L351.47,395.76L350.93,395.25L352.93,395.57L353.80,396.63L354.29,395.48L355.08,392.21L355.92,389.21L355.93,389.21L355.94,389.21L356.77,392.21L357.52,395.21L357.56,396.93L356.05,399.78L352.93,400.84L350.93,401.16L348.38,400.66L346.62,399.52L345.51,398.63L344.41,397.72L342.57,394.97L342.19,393.21L342.06,391.21L342.03,390.21L341.88,387.21L341.78,384.21L341.79,382.21L342.10,377.21L342.53,371.21L343.35,366.83L345.48,364.97L346.04,360.61L347.73,357.29L352.92,353.20Z" fill="white">

</path><path d="M363.93,313.22L357.93,314.55L357.00,314.69L356.32,314.95L354.93,317.22L356.11,315.21L356.05,317.21L353.93,316.19L354.93,316.31L354.17,318.21L354.31,317.21L354.66,315.21L355.06,313.21L355.09,313.00L355.16,312.80L355.28,312.63L355.43,312.50L355.62,312.40L355.82,312.35L356.03,312.35L356.23,312.40L356.42,312.50L356.57,312.63L356.69,312.80L356.76,313.00L356.79,313.21L352.93,315.22L352.93,315.21L352.92,315.20L355.06,313.21L355.09,313.00L355.16,312.80L355.28,312.63L355.43,312.50L355.62,312.40L355.82,312.35L356.03,312.35L356.23,312.40L356.42,312.50L356.57,312.63L356.69,312.80L356.76,313.00L356.79,313.21L357.19,315.21L357.54,317.21L357.69,318.21L354.93,320.10L353.93,320.22L351.80,317.21L351.74,315.21L354.93,313.19L353.53,313.47L356.85,311.72L357.93,311.86L363.93,313.20Z" fill="white">

</path><path d="M386.94,359.20L390.63,367.84L391.21,374.21L390.65,379.76L387.67,388.21L386.54,397.47L386.87,401.35L384.88,406.51L385.41,407.21L381.93,411.81L377.21,408.21L377.09,407.21L376.89,403.21L376.72,401.21L376.56,397.21L376.42,393.21L376.31,389.99L378.68,384.09L380.62,380.05L381.51,377.98L384.98,373.24L388.39,369.67L389.33,368.59L393.09,365.87L397.34,364.18L399.84,363.87L401.30,363.04L403.93,362.71L405.93,362.62L406.93,362.56L407.93,362.50L410.12,362.93L414.11,365.16L416.27,368.85L416.87,372.21L416.92,373.21L416.84,377.21L416.87,379.21L416.84,382.21L416.52,387.21L416.53,388.21L416.29,392.21L416.22,394.21L416.07,396.45L414.45,400.44L413.36,403.28L413.03,406.21L412.76,408.21L412.63,409.21L412.48,410.21L412.14,412.21L408.93,410.17L411.93,410.81L412.93,411.03L413.83,411.28L415.29,410.99L416.24,410.50L419.93,410.20L419.93,410.21L419.93,410.22L417.61,411.91L416.56,413.42L414.02,415.13L412.93,415.38L411.93,415.60L408.93,416.24L405.71,412.21L405.37,410.21L405.22,409.21L405.09,408.21L404.82,406.21L404.44,403.21L404.49,401.13L405.79,395.96L405.63,394.21L405.56,392.21L405.32,388.21L405.33,387.21L405.01,382.21L404.98,379.21L405.01,377.21L404.93,373.21L404.98,372.21L405.74,373.26L407.93,373.92L406.93,373.86L405.93,373.79L403.93,373.70L404.55,373.37L400.51,374.23L398.76,374.54L396.52,375.83L395.46,376.74L392.87,379.18L390.34,382.43L389.23,384.36L387.17,388.33L385.54,390.43L385.43,393.21L385.29,397.21L385.13,401.21L384.96,403.21L384.76,407.21L384.64,408.21L381.93,404.61L378.45,407.21L378.97,403.90L380.98,401.07L381.31,396.95L382.18,386.20L385.20,378.66L386.64,374.20L387.22,368.58L386.92,359.21Z" fill="white">

</path><path d="M371.93,361.20L376.93,359.51L377.93,359.34L379.35,359.35L383.66,362.30L386.40,362.77L388.23,365.67L389.34,366.09L391.00,369.13L391.88,370.70L393.66,372.21L393.35,372.88L393.94,373.57L393.90,374.99L395.93,378.20L395.93,378.21L395.92,378.21L391.91,374.84L390.50,373.53L390.19,372.21L389.98,373.71L386.85,371.29L386.51,370.32L383.62,368.74L383.45,367.64L380.20,366.11L377.93,363.07L376.93,362.90L371.93,361.22Z" fill="white">

</path><path d="M431.92,403.20L435.09,399.95L435.23,398.33L437.18,395.70L437.23,392.31L438.60,390.21L438.43,387.36L438.09,386.02L439.14,382.54L438.78,379.27L440.51,376.00L441.35,372.38L441.96,369.00L441.68,366.21L441.59,365.21L441.48,363.21L441.42,362.21L441.40,358.21L441.31,356.21L441.25,353.21L441.17,351.21L441.11,350.21L441.28,348.82L441.78,347.50L442.57,346.35L443.62,345.42L444.86,344.77L446.23,344.44L447.63,344.44L448.99,344.77L450.23,345.42L451.28,346.35L452.07,347.51L452.57,348.82L452.74,350.21L452.24,352.41L450.59,355.15L451.28,357.42L447.53,362.11L448.77,362.30L447.53,366.97L447.79,369.21L447.86,371.21L447.82,375.21L447.88,377.21L447.88,380.21L447.78,384.21L447.51,389.21L447.51,391.21L447.13,396.21L446.68,401.21L446.47,404.21L445.61,410.18L445.96,413.47L445.84,414.93L446.91,416.87L447.00,417.50L447.93,417.44L449.93,417.88L451.93,418.38L454.93,419.20L454.93,419.21L454.93,419.22L451.93,420.04L449.93,420.53L447.93,420.97L446.93,421.17L444.85,420.91L442.94,419.54L439.89,414.94L438.24,410.23L437.38,404.21L437.17,401.21L436.72,396.21L436.35,391.21L436.34,389.21L436.07,384.21L435.97,380.21L435.98,377.21L436.03,375.21L435.99,371.21L436.06,369.21L436.32,363.44L437.08,362.11L438.32,356.30L440.57,354.99L441.26,349.27L441.11,350.21L441.28,348.82L441.78,347.51L442.57,346.35L443.62,345.42L444.86,344.77L446.22,344.44L447.63,344.44L448.99,344.77L450.23,345.42L451.28,346.35L452.07,347.50L452.57,348.82L452.74,350.21L452.68,351.21L452.60,353.21L452.54,356.21L452.45,358.21L452.43,362.21L452.37,363.21L452.26,365.21L452.17,366.21L451.89,371.41L450.50,376.03L447.34,382.41L447.07,381.15L446.71,385.88L445.77,386.39L445.42,389.05L443.25,394.20L442.62,394.10L440.67,398.71L438.62,400.09L436.76,402.46L431.93,403.22Z" fill="white">

</path><path d="M462.94,315.21L464.30,317.90L464.93,317.31L463.86,319.21L463.69,318.21L463.38,316.21L465.93,317.92L464.93,318.09L463.93,318.26L462.93,318.43L458.09,318.60L455.23,319.81L452.28,321.22L450.49,322.20L448.93,321.57L449.93,321.76L450.93,321.97L450.90,323.21L451.93,321.42L453.92,321.21L453.93,321.21L453.94,321.21L451.93,322.99L452.95,323.21L450.93,324.45L449.93,324.65L448.93,324.84L447.11,322.21L447.36,320.22L449.57,317.20L452.62,314.60L457.76,311.81L462.93,311.99L463.93,312.15L464.93,312.32L465.93,312.49L468.48,316.21L468.16,318.21L467.99,319.21L464.93,321.10L463.06,320.58L461.55,318.52L462.92,315.21Z" fill="white">

</path>
</mask>
</svg>