<svg width="1002" height="591" viewBox="0 0 1002 591" xmlns="http://www.w3.org/2000/svg" xmlns:xlink="http://www.w3.org/1999/xlink" data-cache="1714894033292">
<style>
path.line-0 {
  stroke-dasharray: 534 539;
  stroke-dashoffset: 534;
  animation: draw-0 5819.138280731463ms linear forwards infinite;
}
@keyframes draw-0 {
  0% { stroke-dashoffset: 534; }
  18.35% { stroke-dashoffset: 0; }
  96.58% { stroke-dashoffset: 0; }
  98.71% { stroke-dashoffset: 534; }
  100% { stroke-dashoffset: 534; }
}
path.line-1 {
  stroke-dasharray: 278 283;
  stroke-dashoffset: 278;
  animation: draw-1 5819.138280731463ms linear forwards infinite;
}
@keyframes draw-1 {
  0% { stroke-dashoffset: 278; }
  18.345253488802303% { stroke-dashoffset: 278; }
  27.89% { stroke-dashoffset: 0; }
  95.70% { stroke-dashoffset: 0; }
  96.80% { stroke-dashoffset: 278; }
  100% { stroke-dashoffset: 278; }
}
path.line-2 {
  stroke-dasharray: 497 502;
  stroke-dashoffset: 497;
  animation: draw-2 5819.138280731463ms linear forwards infinite;
}
@keyframes draw-2 {
  0% { stroke-dashoffset: 497; }
  27.89029697180328% { stroke-dashoffset: 497; }
  44.98% { stroke-dashoffset: 0; }
  94.12% { stroke-dashoffset: 0; }
  96.09% { stroke-dashoffset: 497; }
  100% { stroke-dashoffset: 497; }
}
path.line-3 {
  stroke-dasharray: 282 287;
  stroke-dashoffset: 282;
  animation: draw-3 5819.138280731463ms linear forwards infinite;
}
@keyframes draw-3 {
  0% { stroke-dashoffset: 282; }
  44.97826766273894% { stroke-dashoffset: 282; }
  54.65% { stroke-dashoffset: 0; }
  93.22% { stroke-dashoffset: 0; }
  94.34% { stroke-dashoffset: 282; }
  100% { stroke-dashoffset: 282; }
}
path.line-4 {
  stroke-dasharray: 569 574;
  stroke-dashoffset: 569;
  animation: draw-4 5819.138280731463ms linear forwards infinite;
}
@keyframes draw-4 {
  0% { stroke-dashoffset: 569; }
  54.653954849804364% { stroke-dashoffset: 569; }
  74.22% { stroke-dashoffset: 0; }
  91.41% { stroke-dashoffset: 0; }
  93.67% { stroke-dashoffset: 569; }
  100% { stroke-dashoffset: 569; }
}
</style><rect x="0" y="0" width="1002" height="591" fill="#ffffff">

</rect><g mask="url(#brush)">
<path d="M89.926,335.939L90.593,334.439C91.259,332.939,92.593,329.939,94.093,326.772C95.593,323.605,97.259,320.272,98.926,316.939C100.593,313.605,102.259,310.272,104.259,306.439C106.259,302.605,108.593,298.272,110.426,294.939C112.259,291.605,113.593,289.272,115.093,286.439C116.593,283.605,118.259,280.272,119.926,276.939C121.593,273.605,123.259,270.272,124.759,267.772C126.259,265.272,127.593,263.605,129.426,261.105C131.259,258.605,133.593,255.272,136.093,252.105C138.593,248.939,141.259,245.939,144.259,241.605C147.259,237.272,150.593,231.605,153.259,227.105C155.926,222.605,157.926,219.272,159.759,215.939C161.593,212.605,163.259,209.272,164.593,206.605C165.926,203.939,166.926,201.939,168.259,199.105C169.593,196.272,171.259,192.605,172.926,189.439C174.593,186.272,176.259,183.605,178.093,182.939C179.926,182.272,181.926,183.605,183.259,185.605C184.593,187.605,185.259,190.272,185.926,192.939C186.593,195.605,187.259,198.272,187.759,200.772C188.259,203.272,188.593,205.605,188.926,208.105C189.259,210.605,189.593,213.272,190.093,215.772C190.593,218.272,191.259,220.605,191.926,223.105C192.593,225.605,193.259,228.272,193.759,231.105C194.259,233.939,194.593,236.939,195.093,239.605C195.593,242.272,196.259,244.605,196.593,246.939C196.926,249.272,196.926,251.605,198.426,251.272C199.926,250.939,202.926,247.939,205.093,245.439C207.259,242.939,208.593,240.939,210.093,238.605C211.593,236.272,213.259,233.605,214.759,231.439C216.259,229.272,217.593,227.605,218.926,225.939C220.259,224.272,221.593,222.605,222.926,220.272C224.259,217.939,225.593,214.939,226.926,211.939C228.259,208.939,229.593,205.939,230.926,203.105C232.259,200.272,233.593,197.605,234.759,194.772C235.926,191.939,236.926,188.939,237.593,188.939C238.259,188.939,238.593,191.939,238.426,194.939C238.259,197.939,237.593,200.939,237.093,203.605C236.593,206.272,236.259,208.605,236.093,210.939C235.926,213.272,235.926,215.605,235.593,218.105C235.259,220.605,234.593,223.272,233.926,226.105C233.259,228.939,232.593,231.939,232.093,234.605C231.593,237.272,231.259,239.605,230.926,242.105C230.593,244.605,230.259,247.272,229.926,250.105C229.593,252.939,229.259,255.939,228.759,258.605C228.259,261.272,227.593,263.605,226.759,265.939C225.926,268.272,224.926,270.605,224.259,273.105C223.593,275.605,223.259,278.272,222.926,280.772C222.593,283.272,222.259,285.605,221.926,287.939C221.593,290.272,221.259,292.605,220.926,294.939C220.593,297.272,220.259,299.605,219.926,302.439C219.593,305.272,219.259,308.605,218.759,311.939C218.259,315.272,217.593,318.605,217.093,321.605C216.593,324.605,216.259,327.272,215.926,329.772C215.593,332.272,215.259,334.605,215.093,336.939C214.926,339.272,214.926,341.605,215.426,343.772C215.926,345.939,216.926,347.939,218.593,349.105C220.259,350.272,222.593,350.605,224.259,350.772C225.926,350.939,226.926,350.939,227.426,350.939L227.926,350.939" stroke-width="9.904596074066864" stroke-linecap="round" stroke-linejoin="round" stroke="#000000" fill="none" class="line-0">

</path><path d="M266.926,302.939L266.259,302.105C265.593,301.272,264.259,299.605,262.259,298.439C260.259,297.272,257.593,296.605,255.426,297.272C253.259,297.939,251.593,299.939,250.759,302.105C249.926,304.272,249.926,306.605,249.926,309.272C249.926,311.939,249.926,314.939,249.926,317.605C249.926,320.272,249.926,322.605,249.926,325.105C249.926,327.605,249.926,330.272,250.593,332.439C251.259,334.605,252.593,336.272,254.593,337.105C256.593,337.939,259.259,337.939,262.093,337.439C264.926,336.939,267.926,335.939,270.593,334.939C273.259,333.939,275.593,332.939,277.593,331.772C279.593,330.605,281.259,329.272,282.593,327.272C283.926,325.272,284.926,322.605,285.426,319.605C285.926,316.605,285.926,313.272,285.926,310.272C285.926,307.272,285.926,304.605,285.426,302.105C284.926,299.605,283.926,297.272,281.926,295.605C279.926,293.939,276.926,292.939,274.259,292.439C271.593,291.939,269.259,291.939,266.926,291.939C264.593,291.939,262.259,291.939,260.093,292.439C257.926,292.939,255.926,293.939,255.926,294.939C255.926,295.939,257.926,296.939,260.259,297.439C262.593,297.939,265.259,297.939,267.759,297.605C270.259,297.272,272.593,296.605,274.926,296.105C277.259,295.605,279.593,295.272,281.259,296.105C282.926,296.939,283.926,298.939,284.426,301.272C284.926,303.605,284.926,306.272,284.926,308.772C284.926,311.272,284.926,313.605,284.926,315.939C284.926,318.272,284.926,320.605,284.926,322.939C284.926,325.272,284.926,327.605,285.093,330.105C285.259,332.605,285.593,335.272,286.426,337.605C287.259,339.939,288.593,341.939,290.593,343.272C292.593,344.605,295.259,345.272,297.926,345.605C300.593,345.939,303.259,345.939,305.759,345.772C308.259,345.605,310.593,345.272,312.259,344.439C313.926,343.605,314.926,342.272,315.426,341.605L315.926,340.939" stroke-width="9.904596074066864" stroke-linecap="round" stroke-linejoin="round" stroke="#000000" fill="none" class="line-1">

</path><path d="M306.926,308.939L308.926,308.272C310.926,307.605,314.926,306.272,319.759,304.272C324.593,302.272,330.259,299.605,334.926,297.105C339.593,294.605,343.259,292.272,346.926,289.772C350.593,287.272,354.259,284.605,356.926,282.605C359.593,280.605,361.259,279.272,363.093,277.105C364.926,274.939,366.926,271.939,368.593,269.605C370.259,267.272,371.593,265.605,372.926,263.439C374.259,261.272,375.593,258.605,376.593,256.105C377.593,253.605,378.259,251.272,378.759,248.439C379.259,245.605,379.593,242.272,379.759,239.439C379.926,236.605,379.926,234.272,379.926,231.772C379.926,229.272,379.926,226.605,379.926,223.939C379.926,221.272,379.926,218.605,379.426,216.105C378.926,213.605,377.926,211.272,376.593,211.105C375.259,210.939,373.593,212.939,372.426,215.605C371.259,218.272,370.593,221.605,369.593,225.105C368.593,228.605,367.259,232.272,366.259,235.605C365.259,238.939,364.593,241.939,364.093,245.105C363.593,248.272,363.259,251.605,362.759,254.772C362.259,257.939,361.593,260.939,361.093,263.939C360.593,266.939,360.259,269.939,359.593,272.439C358.926,274.939,357.926,276.939,357.259,279.105C356.593,281.272,356.259,283.605,355.759,286.105C355.259,288.605,354.593,291.272,354.259,294.272C353.926,297.272,353.926,300.605,353.926,303.439C353.926,306.272,353.926,308.605,353.759,311.272C353.593,313.939,353.259,316.939,353.093,320.105C352.926,323.272,352.926,326.605,352.926,329.939C352.926,333.272,352.926,336.605,352.926,339.439C352.926,342.272,352.926,344.605,352.926,347.105C352.926,349.605,352.926,352.272,352.926,354.772C352.926,357.272,352.926,359.605,352.426,359.439C351.926,359.272,350.926,356.605,350.426,354.105C349.926,351.605,349.926,349.272,349.926,346.772C349.926,344.272,349.926,341.605,349.926,339.105C349.926,336.605,349.926,334.272,349.926,331.439C349.926,328.605,349.926,325.272,349.926,322.272C349.926,319.272,349.926,316.605,349.926,314.105C349.926,311.605,349.926,309.272,350.426,307.105C350.926,304.939,351.926,302.939,353.093,300.939C354.259,298.939,355.593,296.939,357.093,295.105C358.593,293.272,360.259,291.605,362.259,290.605C364.259,289.605,366.593,289.272,368.593,289.939C370.593,290.605,372.259,292.272,373.593,294.105C374.926,295.939,375.926,297.939,376.759,300.105C377.593,302.272,378.259,304.605,378.926,307.105C379.593,309.605,380.259,312.272,380.593,314.772C380.926,317.272,380.926,319.605,380.926,322.105C380.926,324.605,380.926,327.272,380.926,329.939C380.926,332.605,380.926,335.272,381.093,337.772C381.259,340.272,381.593,342.605,382.259,344.772C382.926,346.939,383.926,348.939,385.093,350.939C386.259,352.939,387.593,354.939,389.926,355.605C392.259,356.272,395.593,355.605,398.093,354.605C400.593,353.605,402.259,352.272,404.426,350.939C406.593,349.605,409.259,348.272,410.926,347.272C412.593,346.272,413.259,345.605,413.593,345.272L413.926,344.939" stroke-width="9.904596074066864" stroke-linecap="round" stroke-linejoin="round" stroke="#000000" fill="none" class="line-2">

</path><path d="M458.926,306.939L458.093,306.272C457.259,305.605,455.593,304.272,453.426,303.272C451.259,302.272,448.593,301.605,446.093,301.272C443.593,300.939,441.259,300.939,438.926,301.105C436.593,301.272,434.259,301.605,431.759,302.439C429.259,303.272,426.593,304.605,424.259,305.772C421.926,306.939,419.926,307.939,418.593,309.605C417.259,311.272,416.593,313.605,416.259,315.939C415.926,318.272,415.926,320.605,415.926,322.939C415.926,325.272,415.926,327.605,416.093,329.939C416.259,332.272,416.593,334.605,417.259,336.939C417.926,339.272,418.926,341.605,419.926,343.939C420.926,346.272,421.926,348.605,423.259,350.439C424.593,352.272,426.259,353.605,427.926,355.105C429.593,356.605,431.259,358.272,433.093,359.605C434.926,360.939,436.926,361.939,439.093,362.439C441.259,362.939,443.593,362.939,445.593,362.105C447.593,361.272,449.259,359.605,450.759,357.772C452.259,355.939,453.593,353.939,454.426,351.605C455.259,349.272,455.593,346.605,455.926,343.939C456.259,341.272,456.593,338.605,456.759,335.939C456.926,333.272,456.926,330.605,456.926,327.439C456.926,324.272,456.926,320.605,456.759,317.605C456.593,314.605,456.259,312.272,455.593,310.105C454.926,307.939,453.926,305.939,453.926,306.439C453.926,306.939,454.926,309.939,455.426,312.772C455.926,315.605,455.926,318.272,455.926,321.105C455.926,323.939,455.926,326.939,456.093,329.772C456.259,332.605,456.593,335.272,456.926,337.772C457.259,340.272,457.593,342.605,458.593,345.105C459.593,347.605,461.259,350.272,462.593,352.772C463.926,355.272,464.926,357.605,466.426,359.439C467.926,361.272,469.926,362.605,472.093,363.605C474.259,364.605,476.593,365.272,479.093,365.605C481.593,365.939,484.259,365.939,486.926,365.939C489.593,365.939,492.259,365.939,494.426,365.605C496.593,365.272,498.259,364.605,499.093,364.272L499.926,363.939" stroke-width="9.904596074066864" stroke-linecap="round" stroke-linejoin="round" stroke="#000000" fill="none" class="line-3">

</path><path d="M499.926,327.939L499.926,326.772C499.926,325.605,499.926,323.272,500.759,320.772C501.593,318.272,503.259,315.605,504.759,313.439C506.259,311.272,507.593,309.605,509.093,307.772C510.593,305.939,512.259,303.939,514.093,301.772C515.926,299.605,517.926,297.272,519.926,294.772C521.926,292.272,523.926,289.605,525.759,287.105C527.593,284.605,529.259,282.272,530.759,279.439C532.259,276.605,533.593,273.272,534.593,269.939C535.593,266.605,536.259,263.272,537.593,259.605C538.926,255.939,540.926,251.939,542.426,248.272C543.926,244.605,544.926,241.272,545.759,238.439C546.593,235.605,547.259,233.272,547.593,230.772C547.926,228.272,547.926,225.605,547.926,223.105C547.926,220.605,547.926,218.272,547.093,216.439C546.259,214.605,544.593,213.272,543.093,213.605C541.593,213.939,540.259,215.939,538.593,219.105C536.926,222.272,534.926,226.605,533.259,230.772C531.593,234.939,530.259,238.939,529.093,242.272C527.926,245.605,526.926,248.272,525.926,251.772C524.926,255.272,523.926,259.605,523.259,263.272C522.593,266.939,522.259,269.939,522.093,272.939C521.926,275.939,521.926,278.939,521.926,282.772C521.926,286.605,521.926,291.272,521.926,295.272C521.926,299.272,521.926,302.605,521.759,305.439C521.593,308.272,521.259,310.605,521.093,313.439C520.926,316.272,520.926,319.605,520.926,322.772C520.926,325.939,520.926,328.939,520.926,331.939C520.926,334.939,520.926,337.939,520.926,340.939C520.926,343.939,520.926,346.939,520.926,349.605C520.926,352.272,520.926,354.605,520.926,356.939C520.926,359.272,520.926,361.605,520.926,364.105C520.926,366.605,520.926,369.272,520.926,371.939C520.926,374.605,520.926,377.272,520.926,379.939C520.926,382.605,520.926,385.272,520.593,384.105C520.259,382.939,519.593,377.939,519.259,373.939C518.926,369.939,518.926,366.939,518.759,363.105C518.593,359.272,518.259,354.605,518.093,351.105C517.926,347.605,517.926,345.272,517.926,342.939C517.926,340.605,517.926,338.272,517.926,335.772C517.926,333.272,517.926,330.605,517.926,327.939C517.926,325.272,517.926,322.605,517.926,319.772C517.926,316.939,517.926,313.939,518.426,311.272C518.926,308.605,519.926,306.272,520.759,303.772C521.593,301.272,522.259,298.605,523.593,296.605C524.926,294.605,526.926,293.272,529.093,292.272C531.259,291.272,533.593,290.605,535.259,291.439C536.926,292.272,537.926,294.605,538.926,297.272C539.926,299.939,540.926,302.939,541.593,305.605C542.259,308.272,542.593,310.605,542.759,313.105C542.926,315.605,542.926,318.272,542.926,320.772C542.926,323.272,542.926,325.605,541.926,327.605C540.926,329.605,538.926,331.272,536.593,332.605C534.259,333.939,531.593,334.939,529.093,335.772C526.593,336.605,524.259,337.272,524.093,338.272C523.926,339.272,525.926,340.605,527.926,342.105C529.926,343.605,531.926,345.272,533.593,346.939C535.259,348.605,536.593,350.272,537.926,352.272C539.259,354.272,540.593,356.605,541.926,358.772C543.259,360.939,544.593,362.939,546.093,364.772C547.593,366.605,549.259,368.272,551.093,369.772C552.926,371.272,554.926,372.605,557.093,373.439C559.259,374.272,561.593,374.605,563.426,373.605C565.259,372.605,566.593,370.272,567.259,368.939C567.926,367.605,567.926,367.272,567.926,367.105L567.926,366.939" stroke-width="9.904596074066864" stroke-linecap="round" stroke-linejoin="round" stroke="#000000" fill="none" class="line-4">

</path>
</g><mask id="brush">
<rect x="0" y="0" width="100%" height="100%" fill="black">

</rect><path d="M89.92,335.93L92.91,326.49L97.58,316.27L102.44,306.19L105.08,300.83L108.99,292.97L112.94,285.81L113.43,283.10L117.63,275.63L122.89,265.91L126.92,260.33L134.10,250.66L142.44,241.62L144.90,236.72L152.13,224.89L158.32,214.97L160.98,209.77L162.49,204.96L165.41,198.68L167.31,195.22L170.18,187.90L175.71,179.56L176.32,177.79L178.93,173.82L181.13,174.34L184.86,178.00L187.34,183.57L188.63,186.71L189.89,192.15L191.00,197.12L192.05,199.58L193.04,207.36L193.04,213.74L193.81,214.01L195.88,221.81L197.57,230.05L197.90,233.93L198.87,239.28L199.95,244.09L200.82,245.22L201.37,250.94L201.52,252.94L196.93,249.26L197.70,249.22L196.23,250.98L195.23,251.16L202.75,242.22L206.59,236.72L208.43,233.61L211.31,228.77L213.29,225.49L214.74,223.75L215.65,222.66L218.54,219.66L218.57,218.76L220.44,214.14L222.55,209.75L224.75,206.21L226.36,201.41L231.24,193.10L231.84,190.58L233.90,184.59L234.98,181.96L235.84,179.89L236.45,178.98L237.26,178.23L238.22,177.70L239.29,177.41L240.39,177.39L241.46,177.63L242.45,178.13L243.29,178.84L243.93,179.74L244.34,180.76L244.50,181.85L244.38,182.95L244.01,183.98L244.44,182.94L244.58,184.94L244.72,187.94L244.85,189.96L243.74,195.90L242.76,200.17L241.55,202.98L242.14,203.94L242.25,205.94L242.34,207.94L242.35,209.20L240.98,213.17L241.56,211.94L241.63,214.94L241.62,218.21L240.14,222.54L239.51,224.70L239.84,225.94L239.86,229.04L238.60,233.83L237.63,236.74L236.46,240.38L236.98,241.94L236.97,244.23L235.51,248.40L236.03,249.94L236.07,252.04L234.80,256.79L234.97,259.23L233.46,263.64L232.77,267.16L230.20,272.57L229.55,274.81L228.59,279.05L228.25,282.14L226.60,284.88L227.86,284.94L227.89,287.94L227.94,290.04L226.68,294.75L227.09,296.94L227.13,299.04L225.84,303.81L226.11,307.98L224.84,313.37L225.03,314.04L223.69,318.85L222.56,323.04L222.44,327.03L221.02,331.55L221.26,330.94L221.03,333.94L220.92,335.18L219.33,338.88L219.50,339.94L219.40,340.94L219.13,342.94L219.00,343.94L218.54,345.49L220.07,348.33L220.12,349.04L220.93,348.98L221.93,349.22L222.93,349.48L223.93,349.74L224.93,350.02L227.93,350.93L227.93,350.94L227.93,350.95L224.93,351.86L223.93,352.13L222.93,352.40L221.93,352.65L220.93,352.89L219.93,353.12L217.73,352.84L215.78,351.55L211.31,346.39L210.85,343.94L210.72,342.94L210.46,340.94L210.35,339.94L210.26,338.94L210.93,334.70L210.82,333.94L210.60,330.94L210.83,328.33L211.41,326.85L211.17,322.94L211.29,320.83L212.16,315.02L212.82,313.84L213.01,310.51L213.74,307.89L213.66,303.94L214.01,300.07L214.72,298.84L214.76,296.94L214.82,294.94L215.17,291.12L215.91,289.84L215.96,287.94L215.99,284.94L217.26,278.99L217.60,279.73L217.26,276.83L218.30,271.07L219.65,267.31L221.08,264.71L222.39,258.24L222.88,258.65L223.05,253.09L223.78,251.84L223.82,249.94L224.88,243.65L224.87,241.94L225.94,235.65L226.22,233.14L227.26,230.05L227.99,228.84L228.02,225.94L228.34,221.18L230.23,217.67L230.23,214.94L230.29,211.94L231.50,208.68L231.51,207.94L231.61,205.94L231.71,203.94L232.30,198.90L233.10,197.70L234.11,193.97L235.00,189.92L235.13,187.94L235.27,184.94L235.42,182.94L235.84,179.89L236.45,178.98L237.26,178.23L238.22,177.70L239.29,177.41L240.39,177.39L241.46,177.63L242.45,178.13L243.29,178.84L243.93,179.74L244.34,180.76L244.50,181.85L244.38,182.94L244.01,183.98L242.87,185.91L241.95,187.29L240.02,193.30L238.62,196.78L235.49,204.47L233.10,211.67L231.30,214.13L229.41,217.73L227.28,223.11L225.32,226.22L222.20,229.21L220.57,230.39L218.54,233.11L215.42,238.27L213.26,241.16L209.10,247.66L204.62,252.72L203.62,254.90L198.15,258.66L196.93,258.62L192.33,252.94L192.48,250.94L193.04,248.66L191.90,245.78L190.98,240.60L189.95,233.95L190.28,231.82L187.97,224.07L186.04,217.86L184.81,214.14L184.81,208.52L183.81,202.30L182.85,198.76L181.96,193.73L181.22,189.17L180.51,186.31L178.99,181.87L178.93,180.05L181.53,180.09L180.14,182.32L175.67,189.98L172.54,198.66L170.45,201.20L167.36,206.91L164.87,212.10L161.53,216.90L155.72,226.99L148.95,239.15L145.41,244.25L137.75,253.22L130.93,263.54L126.96,267.97L122.22,278.25L118.42,284.78L116.91,288.06L112.86,294.91L108.77,303.04L105.42,307.68L100.27,317.61L94.94,327.39L89.94,335.94Z" fill="white">

</path><path d="M266.92,302.94L264.44,299.01L261.22,297.94L262.93,298.81L261.50,298.81L259.79,297.74L258.93,298.53L256.93,298.85L254.93,299.16L253.93,299.32L252.93,299.48L253.74,299.66L253.75,300.63L254.48,301.94L254.79,304.94L255.06,308.94L255.18,309.94L255.36,313.94L255.48,317.94L255.56,318.94L255.65,321.94L255.71,322.94L255.79,324.94L255.76,328.94L255.83,330.94L255.90,332.94L254.12,331.95L256.51,333.50L257.54,335.67L256.02,333.03L253.93,331.70L255.93,331.65L256.93,331.61L258.93,331.56L259.93,331.52L261.93,331.48L264.62,331.56L263.94,331.21L268.98,328.76L265.39,334.94L271.93,327.37L272.82,327.35L273.84,326.70L274.89,326.10L274.23,326.25L275.30,325.16L278.85,323.02L278.00,323.46L277.59,322.82L278.93,319.95L279.59,317.94L279.38,315.94L279.35,313.94L279.45,309.94L279.46,306.94L279.42,305.94L279.39,303.94L279.36,301.94L279.40,300.25L278.84,298.32L279.20,300.67L281.93,301.69L280.61,301.64L276.21,300.09L270.82,297.72L272.93,298.69L271.93,298.72L269.93,298.74L268.93,298.77L266.93,298.78L265.93,298.81L264.93,298.84L263.93,298.86L262.93,298.89L260.93,298.90L259.93,298.92L258.93,298.95L257.93,298.97L256.93,298.99L256.26,298.93L259.25,295.76L261.01,293.94L253.93,287.83L255.59,288.01L261.81,291.10L262.73,291.60L260.93,290.91L261.93,290.89L263.93,290.89L264.93,290.86L267.88,290.93L270.31,290.29L272.60,290.14L275.93,289.03L275.49,289.60L274.45,289.42L278.93,287.96L279.93,287.93L280.93,287.91L281.93,287.89L282.93,287.87L285.40,288.45L290.56,292.38L292.06,296.94L292.08,297.94L292.10,298.94L292.11,299.94L292.13,300.94L292.15,301.94L292.14,303.94L292.16,304.94L292.18,305.94L292.19,306.94L292.18,308.94L292.18,310.94L292.19,311.94L292.18,313.94L292.18,315.94L292.17,317.94L292.18,318.94L291.99,322.94L291.97,324.94L291.95,326.94L291.84,329.94L291.84,330.94L291.69,333.89L292.18,336.37L288.79,336.06L290.98,336.65L294.25,340.17L291.93,339.19L293.02,339.29L297.50,340.96L299.93,341.26L301.93,341.58L303.93,341.94L305.93,342.34L307.93,342.77L309.37,343.47L312.55,343.28L314.14,342.45L315.92,340.94L315.93,340.94L315.94,340.94L315.71,343.43L314.92,344.94L313.30,346.60L312.10,346.80L310.49,348.41L307.93,349.11L305.93,349.54L303.93,349.93L301.93,350.29L299.93,350.62L297.93,350.91L294.36,350.92L292.83,350.58L291.93,350.68L288.02,349.55L285.73,348.13L283.60,345.71L285.06,345.81L279.68,339.50L278.16,333.99L278.01,330.94L278.01,329.94L277.90,326.94L277.88,324.94L277.86,322.94L277.67,318.94L277.69,317.94L277.68,315.94L277.67,313.94L277.66,311.94L277.68,310.94L277.67,308.94L277.66,306.94L277.67,305.94L277.69,304.94L277.71,303.94L277.70,301.94L277.72,300.94L277.74,299.94L277.76,298.94L277.78,297.94L277.79,296.94L279.29,299.49L282.46,301.42L282.93,302.01L281.93,301.99L280.93,301.97L279.93,301.94L278.93,301.92L281.40,300.45L278.36,302.28L275.93,302.85L277.68,302.17L273.54,303.59L267.98,304.95L264.93,305.01L263.93,304.99L261.93,304.99L260.93,304.97L257.12,304.28L254.04,302.77L253.93,302.05L246.84,293.94L248.61,290.11L255.59,284.94L256.93,284.89L257.93,284.91L258.93,284.93L259.93,284.95L260.93,284.98L262.93,284.99L263.93,285.01L264.93,285.04L265.93,285.07L266.93,285.09L268.93,285.11L269.93,285.14L271.93,285.16L272.93,285.19L277.03,286.16L277.56,287.32L281.25,288.23L281.93,288.19L286.29,289.61L288.65,291.21L290.92,295.29L292.45,299.63L292.49,301.94L292.46,303.94L292.43,305.94L292.39,306.94L292.40,309.94L292.50,313.94L292.47,315.94L292.26,321.94L290.92,325.92L290.26,327.06L287.85,332.41L284.55,334.72L283.62,335.63L280.96,337.78L278.01,339.17L273.03,340.53L271.93,340.51L278.46,334.94L272.88,341.12L272.27,340.72L269.91,342.67L265.23,344.31L261.93,344.39L259.93,344.35L258.93,344.31L256.93,344.27L255.93,344.23L253.93,344.18L249.83,342.85L246.31,338.21L247.34,338.38L245.73,337.92L243.95,332.94L244.02,330.94L244.09,328.94L244.07,324.94L244.14,322.94L244.20,321.94L244.29,318.94L244.37,317.94L244.49,313.94L244.68,309.94L244.79,308.94L245.06,304.94L245.37,301.94L246.10,297.25L248.12,294.22L251.16,292.55L252.93,292.39L253.93,292.56L254.93,292.72L256.93,293.03L258.93,293.34L262.06,294.13L262.93,295.06L264.64,297.94L265.41,296.87L266.94,302.93Z" fill="white">

</path><path d="M306.92,308.93L318.46,303.57L322.90,300.23L335.07,294.89L345.78,288.14L349.41,284.92L356.49,279.93L361.23,275.82L361.84,274.92L363.06,271.50L366.17,266.87L367.86,263.88L370.14,261.19L372.51,256.91L372.96,254.62L375.09,247.85L375.97,242.29L375.73,238.94L375.87,231.94L376.17,223.94L375.98,221.94L375.79,217.94L375.68,216.14L374.93,215.93L373.55,212.41L375.02,212.52L376.93,213.37L378.45,213.41L376.18,217.08L376.86,215.96L375.75,221.90L374.76,226.17L373.51,229.20L372.93,232.20L370.65,237.83L369.64,240.02L370.22,240.98L369.10,246.19L368.19,251.21L368.27,254.94L368.34,258.03L365.85,265.49L366.14,267.19L364.79,271.09L365.27,273.19L362.75,279.35L361.90,281.13L362.47,282.03L361.28,286.63L361.61,285.98L360.43,291.31L359.42,295.27L359.64,298.94L359.53,303.94L359.61,305.94L359.67,308.94L359.74,310.94L359.73,314.22L358.30,318.31L358.83,319.94L358.89,321.94L358.93,324.94L358.78,329.94L358.85,331.94L358.82,335.94L358.79,339.94L358.86,341.94L358.72,346.94L358.60,351.94L358.65,354.94L358.65,358.94L358.70,361.94L358.77,363.94L352.93,371.86L351.93,371.91L350.93,371.96L343.85,365.94L343.90,361.94L343.87,358.94L344.03,353.94L344.50,346.94L344.41,344.94L344.63,338.94L344.59,334.94L344.50,331.94L344.57,326.94L344.63,321.94L344.54,318.94L344.61,313.94L344.57,309.94L344.50,308.94L344.42,306.85L345.77,301.94L347.87,299.01L347.85,298.30L350.83,294.84L351.63,294.03L352.19,292.07L355.96,288.87L355.98,287.61L357.67,285.68L359.88,284.12L363.93,282.81L364.93,282.76L365.93,282.71L375.16,288.94L368.93,283.66L370.22,283.68L376.72,288.39L377.78,290.61L378.52,289.49L380.63,292.97L383.03,297.84L384.44,299.98L385.25,306.89L385.98,309.43L386.91,313.49L387.14,316.94L386.96,321.94L386.92,325.94L386.98,327.94L387.04,329.94L387.06,332.94L387.10,334.94L387.10,337.94L387.01,340.65L388.02,344.65L389.37,346.22L390.31,348.25L391.29,350.57L391.32,352.72L391.05,350.81L391.73,352.49L391.18,351.55L395.02,353.20L393.55,352.89L396.82,351.43L402.25,348.74L406.23,347.89L413.92,344.93L413.93,344.94L413.93,344.95L407.62,351.98L405.61,353.13L401.04,358.44L394.30,362.98L390.67,362.33L386.12,361.39L382.80,359.07L380.56,355.31L379.54,353.63L378.48,351.66L377.44,349.68L376.35,345.40L374.84,341.23L374.75,337.94L374.75,334.94L374.80,332.94L374.81,329.94L374.87,327.94L374.93,325.94L374.89,321.94L374.94,316.39L373.87,312.45L372.60,306.98L373.41,305.90L370.82,302.04L371.17,301.26L369.33,298.39L366.07,293.26L367.14,293.48L369.63,296.19L368.93,296.22L362.69,288.94L365.93,295.16L364.93,295.12L363.93,295.07L365.87,294.26L361.90,299.01L361.66,297.80L360.22,301.84L359.03,303.04L358.00,303.58L355.98,306.86L356.08,305.93L355.43,307.03L355.35,308.94L355.28,309.94L355.24,313.94L355.31,318.94L355.22,321.94L355.28,326.94L355.35,331.94L355.26,334.94L355.22,338.94L355.44,344.94L355.35,346.94L355.82,353.94L355.98,358.94L355.95,361.94L356.00,365.94L350.93,359.92L351.93,359.97L352.93,360.02L347.08,363.94L347.15,361.94L347.21,358.94L347.20,354.94L347.26,351.94L347.13,346.94L346.99,341.94L347.06,339.94L347.04,335.94L347.01,331.94L347.08,329.94L346.93,324.94L346.96,321.94L347.03,319.94L348.13,313.66L348.11,310.94L348.18,308.94L348.24,305.94L348.33,303.94L348.22,298.94L348.21,294.94L348.43,292.61L349.42,288.56L350.25,285.90L350.58,283.25L351.38,281.85L351.96,276.74L353.10,274.53L354.58,272.68L355.06,266.79L355.71,266.69L356.01,262.39L357.51,257.85L357.58,254.94L357.67,248.66L358.53,245.90L358.75,243.68L359.63,240.90L360.22,235.86L361.20,234.05L362.92,229.68L364.34,224.68L365.09,223.70L366.10,219.97L366.99,215.92L367.67,212.80L371.40,206.46L374.92,204.51L378.83,205.35L382.31,209.47L382.92,211.95L384.18,215.74L384.06,217.94L383.87,221.94L383.68,223.94L383.98,231.94L384.12,238.94L383.89,243.59L382.76,250.03L380.89,257.26L379.35,260.97L375.71,266.68L373.99,268.00L371.68,271.00L368.79,274.38L366.01,278.96L364.63,280.06L359.36,283.94L352.44,288.95L348.07,291.73L336.78,298.98L324.95,303.65L319.39,306.31L306.93,308.95Z" fill="white">

</path><path d="M458.92,306.95L452.99,304.11L452.07,303.30L449.82,304.12L446.91,303.24L445.93,303.80L443.93,304.10L441.93,304.40L438.93,304.79L437.93,304.94L436.13,305.16L435.74,306.05L432.15,306.66L430.18,308.45L426.27,310.62L424.41,311.72L422.70,313.34L418.93,314.56L423.62,308.94L423.54,311.48L420.91,316.61L421.80,315.94L421.86,317.94L421.72,322.94L421.71,326.94L421.76,329.93L422.21,336.13L424.32,341.92L427.07,348.91L428.66,348.87L431.61,351.59L433.04,355.45L433.02,354.19L436.75,356.12L437.67,357.58L441.48,361.94L435.93,357.32L436.93,357.26L438.93,357.18L439.93,357.12L441.93,357.05L442.93,356.99L444.69,357.47L442.67,357.65L446.31,355.23L445.48,355.21L447.70,352.14L448.67,349.91L450.27,349.47L448.70,349.89L449.95,344.49L450.21,340.64L451.93,337.79L450.61,337.94L450.57,335.94L450.57,332.94L450.57,329.94L450.52,327.94L450.49,325.94L450.49,322.94L450.86,316.94L450.82,315.98L450.05,313.36L449.82,309.94L449.77,308.94L451.62,311.00L449.22,309.44L447.64,305.94L446.55,303.94L446.73,302.41L447.28,300.97L448.15,299.71L449.30,298.69L450.66,297.97L452.16,297.60L453.70,297.60L455.19,297.97L456.55,298.69L457.70,299.71L458.58,300.97L459.12,302.41L459.31,303.94L459.30,304.89L460.01,307.38L461.50,310.47L461.91,317.94L461.95,320.94L461.90,324.94L461.76,329.94L461.81,330.90L462.61,333.56L462.82,337.94L462.86,338.84L463.61,340.15L463.41,343.70L463.44,342.05L465.50,348.09L467.57,350.01L468.30,353.72L468.25,352.01L470.29,356.86L469.79,355.68L470.95,355.72L474.82,359.05L472.93,358.53L474.01,358.60L478.53,360.16L480.85,361.57L481.93,361.51L484.93,361.97L486.93,362.28L487.93,362.44L488.93,362.62L489.93,362.80L492.93,363.46L494.93,363.94L495.93,364.18L498.93,365.02L499.92,363.94L499.93,363.94L499.94,363.94L498.93,366.86L495.93,367.69L494.93,367.94L492.93,368.41L489.93,369.08L488.93,369.26L487.93,369.43L486.93,369.59L484.93,369.91L481.93,370.37L477.00,370.30L475.32,369.72L473.84,369.28L472.93,369.34L469.20,368.26L467.03,366.83L466.90,366.16L462.06,364.19L459.56,361.02L459.61,359.87L457.55,356.16L458.28,355.87L454.35,351.78L454.41,349.82L452.44,346.18L452.24,343.73L450.99,339.04L451.03,337.94L451.25,336.31L450.04,330.98L450.09,329.94L449.95,324.94L449.91,320.94L449.94,317.94L450.35,315.40L447.84,310.49L446.56,304.98L446.55,303.94L446.73,302.41L447.28,300.97L448.15,299.71L449.30,298.69L450.66,297.97L452.16,297.60L453.69,297.60L455.19,297.97L456.55,298.69L457.70,299.71L458.58,300.97L459.12,302.41L459.31,303.94L459.72,303.63L460.22,305.94L458.63,304.44L460.23,304.87L462.08,308.94L461.80,310.52L463.03,315.89L462.99,316.94L463.36,322.94L463.37,325.94L463.33,327.94L463.29,329.94L463.28,332.94L463.28,335.94L463.24,337.94L461.93,344.09L461.65,343.23L462.13,343.94L461.90,347.39L461.15,349.98L459.58,354.41L457.18,355.97L458.15,357.74L456.37,360.67L453.54,364.65L451.18,366.22L447.16,368.41L442.93,368.88L441.93,368.83L439.93,368.76L438.93,368.70L436.93,368.62L435.93,368.56L430.37,361.94L432.18,366.29L429.10,363.76L430.82,363.80L428.83,363.69L424.81,360.43L424.24,358.29L423.19,357.00L418.78,352.97L417.29,348.24L415.53,345.96L411.64,337.74L410.10,329.95L410.15,326.94L410.13,322.94L409.99,317.94L410.06,315.94L410.94,311.26L412.31,310.40L412.23,308.94L418.93,303.32L417.15,304.54L419.44,302.16L421.58,301.25L425.67,299.42L431.70,297.21L432.11,297.83L435.72,296.72L437.93,296.94L438.93,297.09L441.93,297.48L443.93,297.78L445.93,298.08L448.94,298.63L450.03,299.76L451.93,300.05L453.79,300.57L454.86,301.77L458.93,306.93Z" fill="white">

</path><path d="M499.92,327.94L498.64,322.94L498.34,320.91L498.99,317.29L499.81,314.84L502.86,310.88L505.19,306.88L506.36,305.37L510.99,299.49L517.22,292.63L518.74,289.81L522.91,284.53L525.57,279.89L527.93,277.13L531.80,268.70L534.19,259.34L537.31,253.37L540.12,246.76L540.76,241.37L542.81,236.39L544.62,230.03L544.36,224.94L544.17,222.94L543.98,220.94L543.78,217.94L543.68,216.94L543.63,216.14L542.94,216.02L542.26,215.25L545.93,216.66L544.93,216.74L545.36,215.36L545.33,218.23L542.55,221.51L540.19,225.48L536.99,232.46L535.00,237.57L532.92,244.08L530.85,249.51L530.11,252.33L528.06,257.55L526.94,264.46L525.96,268.21L526.16,272.94L526.15,278.94L526.33,281.94L526.29,287.94L525.93,295.94L526.11,299.94L526.11,305.94L524.92,313.50L525.15,315.94L525.00,322.94L525.02,328.94L525.21,331.94L524.64,340.94L524.72,346.94L524.93,349.94L525.13,352.94L525.31,355.94L525.41,356.94L525.57,359.94L525.68,363.94L525.81,365.94L525.69,371.94L525.71,376.94L525.85,379.94L525.93,380.94L526.00,384.94L526.08,385.94L526.18,387.94L520.93,395.30L514.50,389.94L514.48,385.98L513.62,383.22L514.33,372.94L514.98,363.94L514.84,358.94L514.40,350.33L514.39,342.94L514.16,339.94L513.95,335.94L513.82,330.94L513.71,329.94L513.55,327.94L513.39,324.94L513.30,323.94L513.21,322.94L513.07,319.94L512.94,317.94L512.83,314.94L512.82,310.69L514.21,306.58L516.09,302.15L516.10,300.84L517.67,298.25L516.46,298.94L516.45,297.68L517.84,293.69L522.93,289.26L524.39,289.34L524.70,288.14L525.74,286.76L527.94,285.20L531.93,283.91L532.93,283.86L533.93,283.81L542.11,289.94L541.53,287.76L543.88,292.95L544.52,294.03L547.01,300.42L547.94,304.48L548.13,308.89L548.88,311.50L549.08,315.94L549.13,316.94L549.18,318.94L549.22,320.94L549.23,323.94L549.27,324.94L548.73,329.25L545.42,334.44L544.46,335.47L543.40,336.56L539.91,338.67L534.88,341.12L532.03,341.46L530.99,342.11L529.54,342.86L525.93,343.51L524.24,343.47L518.93,344.54L517.93,344.58L516.34,344.38L514.84,343.82L513.52,342.91L512.46,341.71L511.72,340.29L511.34,338.74L511.34,337.14L511.72,335.58L512.46,334.17L513.52,332.97L514.84,332.06L516.34,331.49L517.93,331.30L521.30,331.88L526.17,335.01L527.53,334.64L530.93,336.16L535.43,340.40L537.47,341.67L539.60,343.69L541.02,347.86L541.70,347.33L544.83,352.86L546.67,355.40L548.88,360.36L549.77,361.07L551.80,362.66L553.95,365.40L554.51,367.90L554.40,366.47L555.22,368.30L554.34,367.58L559.07,370.66L560.94,371.73L561.93,371.91L562.93,372.10L563.93,372.30L563.73,373.26L564.26,372.07L565.72,371.18L567.92,366.94L567.93,366.94L567.94,366.94L568.18,370.96L568.14,372.70L567.60,373.81L566.12,376.62L563.93,377.58L562.93,377.78L561.93,377.97L560.93,378.15L558.91,378.15L554.78,377.22L553.51,376.29L550.63,375.57L547.46,373.41L545.34,369.98L545.90,370.48L546.05,371.22L542.09,368.81L538.97,365.52L537.18,362.47L533.02,357.01L534.15,356.54L530.84,354.02L530.39,352.20L526.42,349.48L524.92,347.71L524.32,347.23L517.68,344.87L518.55,344.00L517.93,344.58L516.34,344.38L514.84,343.82L513.52,342.91L512.46,341.71L511.72,340.29L511.34,338.74L511.34,337.14L511.72,335.58L512.46,334.17L513.52,332.97L514.84,332.06L516.34,331.49L517.93,331.30L518.93,331.33L519.28,331.94L523.61,330.41L525.93,330.36L524.31,331.02L526.86,329.76L531.82,328.42L530.98,328.75L531.58,329.16L534.45,327.31L535.39,326.41L536.43,325.44L537.12,326.62L536.58,324.94L536.62,323.94L536.63,320.94L536.68,318.94L536.73,316.94L536.77,315.94L536.97,314.38L535.72,308.98L535.91,307.40L534.84,303.46L535.19,302.02L533.34,299.85L531.97,296.93L532.33,296.12L530.23,292.23L529.74,289.94L533.93,296.07L532.93,296.02L531.93,295.97L534.11,295.12L533.06,296.07L531.15,297.73L525.46,300.54L522.93,300.62L527.40,298.20L527.39,298.94L526.18,303.62L525.76,303.03L525.76,305.72L523.03,311.18L523.02,314.94L522.91,317.94L522.78,319.94L522.65,322.94L522.56,323.94L522.46,324.94L522.30,327.94L522.14,329.94L522.03,330.94L521.90,335.94L521.69,339.94L521.46,342.94L521.45,349.55L523.01,358.94L522.88,363.94L523.53,372.94L524.23,380.65L525.38,385.90L525.36,389.94L520.93,384.58L515.67,387.94L515.78,385.94L515.85,384.94L515.92,380.94L516.01,379.94L516.14,376.94L516.16,371.94L516.04,365.94L516.17,363.94L516.29,359.94L516.44,356.94L516.54,355.94L516.72,352.94L516.92,349.94L517.13,346.94L517.21,340.94L516.64,331.94L516.83,328.94L516.85,322.94L516.70,315.94L516.93,312.37L517.74,305.93L517.74,299.94L517.92,295.94L517.56,287.94L517.52,281.94L517.70,278.94L517.69,272.94L517.89,265.67L518.91,263.42L519.79,254.32L521.74,249.54L523.00,246.37L524.93,241.79L526.85,234.31L528.86,229.41L531.66,220.39L535.30,214.36L536.52,213.65L540.49,208.51L544.93,207.13L545.93,207.22L549.60,210.62L550.92,211.86L552.23,215.73L552.18,216.94L552.07,217.94L551.87,220.94L551.68,222.94L551.49,224.94L551.24,231.85L549.05,239.49L547.09,242.51L545.73,249.12L542.54,256.50L539.66,260.54L538.05,271.18L533.92,282.75L532.28,283.98L528.94,289.35L525.12,294.07L522.63,297.25L516.86,304.39L511.50,310.51L510.66,311.00L506.99,315.00L504.04,317.04L502.87,318.59L501.51,320.96L501.22,322.94L499.94,327.94Z" fill="white">

</path>
</mask>
</svg>